<svg width="40" height="22" viewBox="0 0 40 22" fill="none" xmlns="http://www.w3.org/2000/svg">
<g id="night">
<rect id="Rectangle 1" x="0.25" y="0.25" width="39.5" height="21.5" rx="10.75" fill="#1E1E1E" stroke="white" stroke-width="0.5"/>
<g id="Group 1">
<rect id="Rectangle 3" x="20.8516" y="5.41553" width="2.12766" height="2.11538" rx="1.05769" fill="white"/>
<rect id="Rectangle 4" x="18.7236" y="8.85303" width="1.15248" height="1.14583" rx="0.572917" fill="white"/>
</g>
<g id="Group">
<g id="Group_2">
<g id="Vector">
<path d="M31.3076 8.01922C31.1409 6.76444 30.6445 5.63521 29.9203 4.69923C29.7448 4.47286 29.92 4.14164 30.2055 4.17562C33.4972 4.57032 36.1973 7.25941 36.3643 10.78C36.5214 14.1033 34.2063 17.1367 30.9439 17.878C28.6802 18.3925 26.4776 17.7686 24.8678 16.4286C24.6504 16.2473 24.7682 15.8914 25.0505 15.8662C25.1254 15.8598 25.2012 15.8514 25.2768 15.8415C29.1146 15.3374 31.8147 11.8357 31.3076 8.01922Z" fill="white"/>
<path fill-rule="evenodd" clip-rule="evenodd" d="M30.2368 3.91607C29.6975 3.85188 29.4083 4.46687 29.712 4.85877C30.4091 5.7597 30.8866 6.84603 31.047 8.05346C31.5351 11.7268 28.9362 15.0972 25.2424 15.5823C25.1702 15.5918 25.0984 15.5998 25.028 15.6058L25.0275 15.6058L25.027 15.6059C24.5209 15.651 24.2951 16.2922 24.6988 16.6289L24.699 16.6291C26.3686 18.0189 28.6546 18.6664 31.0024 18.1329C34.3891 17.3633 36.79 14.2173 36.627 10.7678L36.627 10.7677C36.4537 7.11529 33.6517 4.32555 30.237 3.91609L30.2368 3.91607ZM36.1017 10.7923C35.9409 7.40355 33.3428 4.81516 30.1742 4.43515L36.1017 10.7923ZM30.1742 4.43515C30.1582 4.43327 30.1494 4.43652 30.1438 4.43963C30.1367 4.44354 30.1284 4.45108 30.1218 4.46319C30.1087 4.48758 30.1095 4.51515 30.1285 4.5397L30.1287 4.53984C30.88 5.51083 31.3953 6.68292 31.5683 7.98499C32.0944 11.9445 29.293 15.5777 25.3112 16.1006C25.2325 16.111 25.1529 16.1198 25.0738 16.1266C25.0585 16.128 25.0489 16.133 25.0419 16.1389C25.0337 16.1458 25.0261 16.1564 25.0218 16.1697C25.0174 16.183 25.0176 16.195 25.0198 16.2035C25.0216 16.2106 25.0254 16.2189 25.0368 16.2284C26.5867 17.5184 28.7059 18.1185 30.8853 17.6232C34.0235 16.9101 36.2528 13.9893 36.1017 10.7923" fill="white"/>
</g>
</g>
</g>
<path id="Vector_2" d="M13.4057 5.18378L13.4057 5.18378L13.4047 5.18106C13.0566 4.15142 11.6246 4.1712 11.2783 5.17533L11.2783 5.17531L11.2754 5.184L11.1568 5.53808L10.8234 5.5455C10.823 5.54551 10.8227 5.54552 10.8223 5.54553C10.8222 5.54553 10.8221 5.54553 10.8219 5.54554C10.2643 5.5578 9.89567 5.94952 9.77512 6.33664C9.65543 6.72101 9.73549 7.22955 10.1503 7.55896L10.1519 7.5602L10.4518 7.7974L10.3395 8.18558C10.3394 8.18597 10.3393 8.18637 10.3392 8.18677C10.3391 8.18691 10.3391 8.18706 10.339 8.18721C10.1982 8.67337 10.398 9.14312 10.7413 9.40309C11.0912 9.66805 11.6308 9.7384 12.0742 9.41731C12.0743 9.41718 12.0745 9.41705 12.0747 9.41692L12.3406 9.22471L12.6077 9.41767C12.6078 9.41773 12.6079 9.4178 12.6079 9.41786C13.0496 9.73702 13.5885 9.66939 13.94 9.40328C14.2851 9.14206 14.4827 8.67154 14.3423 8.18699C14.3422 8.18688 14.3422 8.18676 14.3422 8.18665C14.3421 8.18649 14.3421 8.18633 14.342 8.18617L14.2294 7.79719L14.5287 7.56037C14.5288 7.56029 14.5289 7.5602 14.5291 7.56011C15.2928 6.95598 14.9937 5.57167 13.8599 5.54555L13.8592 5.54554L13.5243 5.53808L13.4057 5.18378Z" fill="white" stroke="white" stroke-width="2"/>
<path id="Vector_3" d="M19.6667 14.2949L19.6667 14.2949L19.6658 14.2921C19.3299 13.2986 17.9471 13.3184 17.6132 14.2864L17.6132 14.2864L17.6103 14.2951L17.5996 14.3268L17.5928 14.3269C17.5927 14.3269 17.5926 14.3269 17.5924 14.327C17.0532 14.3388 16.6975 14.7181 16.5817 15.0901C16.4668 15.4592 16.5433 15.9497 16.9436 16.2676L16.9451 16.2688L16.9839 16.2995L16.9662 16.3607C16.9661 16.3611 16.966 16.3615 16.9659 16.3619C16.9658 16.3621 16.9658 16.3622 16.9657 16.3623C16.8302 16.8302 17.0228 17.2832 17.3537 17.5338C17.6904 17.7888 18.2109 17.8574 18.6386 17.5496C19.0647 17.8561 19.5849 17.7903 19.9235 17.534C20.2562 17.2821 20.4465 16.8283 20.3114 16.3621C20.3114 16.362 20.3114 16.3618 20.3113 16.3616C20.3113 16.3615 20.3112 16.3614 20.3112 16.3613L20.2932 16.2993L20.3315 16.269C20.3316 16.2689 20.3317 16.2688 20.3319 16.2687C21.0662 15.6878 20.7823 14.3522 19.6854 14.327L19.6846 14.327L19.6774 14.3268L19.6667 14.2949Z" fill="white" stroke="white" stroke-width="2"/>
<ellipse id="Ellipse 1" cx="8.85077" cy="13.2847" rx="0.680851" ry="0.592308" fill="white"/>
</g>
</svg>
