<svg width="40" height="40" viewBox="0 0 40 40" fill="none" xmlns="http://www.w3.org/2000/svg">
<g id="PR">
<path id="Subtract" fill-rule="evenodd" clip-rule="evenodd" d="M21 39C30.9411 39 39 30.9411 39 21C39 11.0589 30.9411 3 21 3C11.0589 3 3 11.0589 3 21C3 30.9411 11.0589 39 21 39ZM27.3151 27.2453C27.4022 27.432 27.5453 27.5253 27.7444 27.5253H28.0991C28.236 27.5378 28.3978 27.5378 28.5844 27.5253C28.7587 27.5253 28.8707 27.4693 28.9204 27.3573C28.9329 27.3449 28.9391 27.3138 28.9391 27.264C28.9515 27.152 28.9204 26.984 28.8458 26.76L28.5098 25.7333L28.2484 24.9307L27.6138 23.0827L27.5578 22.8773C27.5453 22.84 27.5391 22.784 27.5391 22.7093C27.5391 22.5476 27.5951 22.4169 27.7071 22.3173C27.7444 22.2924 27.7755 22.2613 27.8004 22.224C27.9871 22.0871 28.1613 21.9191 28.3231 21.72C28.6591 21.3093 28.8458 20.8364 28.8831 20.3013C28.908 20.0649 28.9204 19.7102 28.9204 19.2373V18.6213C28.9204 18.3351 28.9142 18.1236 28.9018 17.9867C28.8769 17.6382 28.8458 17.3769 28.8084 17.2027C28.6715 16.568 28.3667 16.0578 27.8938 15.672C27.3711 15.2489 26.7489 15.0249 26.0271 15H23.3578C23.2831 15 23.2209 15.0062 23.1711 15.0187C22.9969 15.056 22.9035 15.1618 22.8911 15.336C22.8787 15.3858 22.8724 15.4604 22.8724 15.56V26.816C22.8724 26.9529 22.8787 27.0524 22.8911 27.1147C22.9035 27.2142 22.9284 27.2889 22.9658 27.3387C23.0155 27.376 23.0902 27.4071 23.1898 27.432C23.2147 27.4444 23.2582 27.4507 23.3204 27.4507C23.4698 27.4631 23.6938 27.4693 23.9924 27.4693C24.0547 27.4693 24.1231 27.4569 24.1978 27.432C24.3595 27.3947 24.4467 27.3138 24.4591 27.1893C24.484 27.0151 24.4964 26.8844 24.4964 26.7973V23.4373C24.4964 23.2507 24.5338 23.0951 24.6084 22.9707C24.6831 22.9084 24.7827 22.8587 24.9071 22.8213C24.9444 22.8089 25.0004 22.8027 25.0751 22.8027C25.212 22.8027 25.3613 22.8338 25.5231 22.896C25.7969 23.0204 25.9711 23.2133 26.0458 23.4747C26.1702 23.8729 26.3693 24.4702 26.6431 25.2667C26.9418 26.1751 27.1347 26.76 27.2218 27.0213C27.2342 27.0711 27.2653 27.1458 27.3151 27.2453ZM23.7871 27.0027C23.812 27.0276 23.8307 27.04 23.8431 27.04C23.868 26.9902 23.8804 26.9529 23.8804 26.928L23.7684 26.7787C23.7933 26.7538 23.8058 26.7351 23.8058 26.7227C23.8058 26.6356 23.812 26.5733 23.8244 26.536L23.8804 26.48L23.9738 26.4613V26.536H24.0671C24.0671 26.6107 24.0982 26.648 24.1604 26.648L24.1044 26.7973C24.092 26.8222 24.0858 26.8658 24.0858 26.928H24.0111C23.9987 26.9404 23.9924 26.9653 23.9924 27.0027L24.0858 27.0587C24.0982 27.0462 24.1107 27.04 24.1231 27.04C24.148 27.04 24.1667 27.0338 24.1791 27.0213V27.1893C24.1542 27.2018 24.1355 27.2018 24.1231 27.1893C24.1107 27.1644 24.092 27.1458 24.0671 27.1333C23.9924 27.1707 23.9489 27.1956 23.9364 27.208H23.8618C23.8493 27.1956 23.8307 27.1956 23.8058 27.208L23.7124 27.2267C23.6875 27.2142 23.6813 27.1956 23.6938 27.1707C23.7062 27.1333 23.7062 27.1084 23.6938 27.096L23.6751 26.984C23.6253 27.0089 23.6004 27.0462 23.6004 27.096C23.6129 27.1333 23.6191 27.1582 23.6191 27.1707V27.208C23.5942 27.1458 23.5258 27.0836 23.4138 27.0213L23.3204 27.0587C23.2955 27.0462 23.2955 27.0213 23.3204 26.984L23.2458 26.8533C23.3453 26.8284 23.4075 26.7724 23.4324 26.6853C23.4324 26.6978 23.42 26.6791 23.3951 26.6293L23.4698 26.4613C23.42 26.3867 23.3951 26.3307 23.3951 26.2933C23.3951 26.256 23.4013 26.2249 23.4138 26.2L23.4698 26.2187V26.3493C23.5071 26.3618 23.5382 26.3493 23.5631 26.312C23.6004 26.2498 23.6067 26.1751 23.5818 26.088C23.5569 26.0382 23.5631 26.0071 23.6004 25.9947L23.6564 26.1067C23.6813 26.0942 23.7249 26.088 23.7871 26.088L23.8804 26.2L24.0298 26.1067L23.9178 26.0133C23.9302 26.0133 23.9613 26.0009 24.0111 25.976L24.1418 26.032C24.1293 26.0693 24.1231 26.1253 24.1231 26.2L24.0671 26.1813C24.0547 26.2062 24.0609 26.2373 24.0858 26.2747C24.1231 26.2996 24.1418 26.3182 24.1418 26.3307C24.1169 26.3556 24.0858 26.3556 24.0484 26.3307C24.0111 26.3058 23.98 26.2933 23.9551 26.2933C23.9427 26.3058 23.9364 26.3307 23.9364 26.368C23.924 26.3804 23.9115 26.3804 23.8991 26.368L23.8804 26.3307L23.8244 26.2933C23.812 26.3307 23.8058 26.3742 23.8058 26.424C23.8182 26.4738 23.8244 26.5111 23.8244 26.536L23.6751 26.5173L23.6564 26.536V26.648H23.6004L23.4884 26.5173C23.4884 26.6418 23.4822 26.7227 23.4698 26.76C23.5444 26.8098 23.5942 26.8347 23.6191 26.8347C23.6689 26.8347 23.7187 26.8533 23.7684 26.8907L23.7871 27.0027ZM23.9178 26.0133C23.8804 25.976 23.8618 25.9511 23.8618 25.9387C23.8618 25.9262 23.8804 25.9013 23.9178 25.864C23.9302 25.8889 23.9302 25.92 23.9178 25.9573V26.0133ZM24.1978 26.4987L24.2538 26.5547L24.1604 26.6107H24.1418V26.592L24.1978 26.4987ZM24.0858 25.696C24.0982 25.7084 24.1107 25.7396 24.1231 25.7893C24.0609 25.7271 24.0235 25.6836 24.0111 25.6587C24.0484 25.6587 24.0733 25.6711 24.0858 25.696ZM23.8804 25.2107C23.8804 25.2729 23.8742 25.3289 23.8618 25.3787C23.8369 25.3662 23.8058 25.36 23.7684 25.36L23.8431 25.192L23.8804 25.2107ZM24.1044 25.528H24.1791L24.2911 25.64C24.2289 25.6276 24.1667 25.5902 24.1044 25.528ZM24.1418 25.248C24.1044 25.2604 24.0484 25.2916 23.9738 25.3413C23.9613 25.2916 23.9613 25.2542 23.9738 25.2293C23.9987 25.192 24.0111 25.1671 24.0111 25.1547H24.0671C24.0795 25.1049 24.1418 25.0862 24.2538 25.0987L24.1791 25.136C24.1667 25.1484 24.1418 25.1547 24.1044 25.1547H24.0858C24.0733 25.1671 24.0671 25.1858 24.0671 25.2107L24.1418 25.248ZM26.7364 24.576C26.7738 24.5138 26.8235 24.5076 26.8858 24.5573L26.7924 24.632L26.7364 24.576ZM27.7818 21.44C27.732 21.3778 27.6884 21.3778 27.6511 21.44H27.7818ZM27.6138 21.048C27.5889 21.1102 27.5515 21.1351 27.5018 21.1227C27.5018 21.1102 27.5142 21.0667 27.5391 20.992L27.6138 21.048ZM27.6138 20.8613C27.6511 20.8862 27.6947 20.8862 27.7444 20.8613C27.6822 20.824 27.6387 20.824 27.6138 20.8613ZM25.4298 21.216C25.3178 21.216 25.2244 21.2222 25.1498 21.2347C24.988 21.2596 24.8324 21.2409 24.6831 21.1787C24.5587 21.104 24.4964 20.9796 24.4964 20.8053V17.0347C24.4964 16.9724 24.5027 16.9227 24.5151 16.8853C24.5524 16.7236 24.652 16.6427 24.8138 16.6427C24.9507 16.6427 25.0564 16.6364 25.1311 16.624L25.4298 16.6053H25.4858C25.5231 16.5929 25.548 16.5929 25.5604 16.6053C25.5978 16.6178 25.66 16.624 25.7471 16.624H25.9338C26.1578 16.6489 26.3133 16.68 26.4004 16.7173C26.8609 16.8418 27.1471 17.1404 27.2591 17.6133L27.2964 17.9493C27.3089 18.1733 27.3151 18.5031 27.3151 18.9387L27.2591 19.8907L27.2218 20.32C27.1222 20.7182 26.892 20.9796 26.5311 21.104C26.3693 21.1662 26.2138 21.1973 26.0644 21.1973H25.7284C25.6538 21.2098 25.5542 21.216 25.4298 21.216ZM24.3284 15.728C24.3035 15.7404 24.2724 15.7529 24.2351 15.7653V15.6533H24.3471L24.4031 15.5787L24.4218 15.6907C24.3969 15.7031 24.3658 15.7156 24.3284 15.728ZM25.2991 15.9893C25.3115 16.0018 25.324 16.0267 25.3364 16.064L25.2244 15.9333H25.2804C25.2929 15.9458 25.2991 15.9644 25.2991 15.9893ZM24.9818 15.616C25.0315 15.6284 25.0502 15.672 25.0378 15.7467C24.988 15.6969 24.9507 15.6658 24.9258 15.6533C24.9507 15.6284 24.9693 15.616 24.9818 15.616ZM28.1551 18.36C28.18 18.36 28.2235 18.3724 28.2858 18.3973V18.472C28.2733 18.4596 28.2547 18.4533 28.2298 18.4533C28.2173 18.4533 28.2049 18.4471 28.1924 18.4347L28.0431 18.416C28.0929 18.3787 28.1302 18.36 28.1551 18.36ZM28.0058 18.192C27.956 18.2169 27.9187 18.2293 27.8938 18.2293C27.8938 18.2169 27.8875 18.1982 27.8751 18.1733V18.0613L28.0058 18.192ZM25.8404 15.5973C25.9027 15.6347 25.8964 15.6907 25.8218 15.7653C25.8093 15.7404 25.8031 15.7031 25.8031 15.6533L25.8404 15.5973ZM28.3604 18.0613L28.3418 18.1173L28.1924 18.136L28.1178 18.024C28.068 17.9991 28.0307 17.9742 28.0058 17.9493L28.1364 17.8933C28.1364 17.8809 28.1489 17.8622 28.1738 17.8373L28.2484 17.8933L28.1924 18.0427C28.2298 18.0551 28.2858 18.0613 28.3604 18.0613ZM28.4351 18.136L28.6031 18.192L28.4351 18.2293V18.136ZM28.0431 17.4453C28.0058 17.4578 27.9622 17.464 27.9124 17.464C27.9124 17.4018 27.9373 17.3707 27.9871 17.3707L28.0431 17.4453ZM27.9498 17.1653L28.0058 17.2027L27.7818 17.352C27.7818 17.3022 27.788 17.2711 27.8004 17.2587C27.8253 17.2338 27.8751 17.2027 27.9498 17.1653ZM27.2218 16.3813C27.1969 16.2818 27.1844 16.2258 27.1844 16.2133C27.1844 16.2631 27.1969 16.3191 27.2218 16.3813ZM27.7631 16.6613C27.8129 16.6862 27.8191 16.7173 27.7818 16.7547C27.7444 16.7422 27.732 16.7236 27.7444 16.6987L27.7631 16.6613ZM27.5578 16.3813C27.5578 16.3938 27.5702 16.4124 27.5951 16.4373L27.4831 16.4747C27.4831 16.4373 27.508 16.4062 27.5578 16.3813ZM13.9094 27.488C14.0089 27.5129 14.0898 27.5253 14.152 27.5253H14.7494C14.824 27.5253 14.9236 27.5129 15.048 27.488C15.16 27.4756 15.2347 27.4071 15.272 27.2827C15.2969 27.1582 15.3094 27.0649 15.3094 27.0027V23.4933C15.3094 23.4311 15.3218 23.3253 15.3467 23.176C15.3467 23.0889 15.3965 23.0204 15.496 22.9707C15.5707 22.9458 15.6267 22.9333 15.664 22.9333C15.9378 22.9084 16.1431 22.896 16.28 22.896C16.4418 22.9084 16.5787 22.9147 16.6907 22.9147C16.8027 22.9022 16.896 22.896 16.9707 22.896C17.3316 22.896 17.6987 22.8089 18.072 22.6347C18.3583 22.5102 18.6507 22.2987 18.9494 22C19.2605 21.6764 19.4783 21.3031 19.6027 20.88C19.7023 20.4071 19.7583 20.0587 19.7707 19.8347L19.7894 19.3493V19.032C19.8018 18.9076 19.8018 18.7644 19.7894 18.6027L19.6774 17.6507C19.64 17.3644 19.5778 17.1031 19.4907 16.8667C19.2791 16.3564 18.9991 15.9644 18.6507 15.6907C18.128 15.28 17.5183 15.0747 16.8214 15.0747C16.2489 15.0622 15.384 15.056 14.2267 15.056C14.1769 15.056 14.1023 15.0684 14.0027 15.0933C13.8285 15.1182 13.7289 15.224 13.704 15.4107L13.6667 15.896V18.1173C13.6791 18.5529 13.6854 19.2124 13.6854 20.096V22.0933C13.6978 22.5413 13.704 23.2196 13.704 24.128C13.704 25.024 13.6916 25.7022 13.6667 26.1627V26.6667L13.704 27.152C13.704 27.1893 13.7165 27.2453 13.7414 27.32C13.7663 27.4071 13.8223 27.4631 13.9094 27.488ZM14.2454 26.2C14.2827 26.2373 14.2827 26.2871 14.2454 26.3493C14.2454 26.3369 14.2329 26.3182 14.208 26.2933C14.1956 26.256 14.208 26.2249 14.2454 26.2ZM14.0587 25.8453C14.0711 25.8329 14.096 25.8267 14.1334 25.8267L14.0587 25.92C14.0463 25.8702 14.0463 25.8453 14.0587 25.8453ZM14.208 25.64C14.2827 25.6773 14.32 25.7147 14.32 25.752V25.9573C14.2827 25.9573 14.264 25.9449 14.264 25.92L14.2267 25.7333L14.1147 25.6773C14.0774 25.6773 14.0338 25.6898 13.984 25.7147C13.9716 25.6524 13.984 25.6089 14.0214 25.584L14.096 25.5093C14.1085 25.5591 14.1458 25.6027 14.208 25.64ZM14.8427 26.0133L14.8054 26.1253L14.7494 26.088C14.7494 26.0258 14.7556 25.9822 14.768 25.9573L14.7867 25.9387L14.8427 26.0133ZM14.2454 25.3227L14.3387 25.4533L14.32 25.5093C14.2827 25.4844 14.2267 25.4596 14.152 25.4347C14.1271 25.3849 14.1147 25.3351 14.1147 25.2853L14.2454 25.3227ZM14.3947 25.5093L14.488 25.5653L14.432 25.6773L14.3574 25.6213L14.3947 25.5093ZM14.2827 24.856C14.3076 24.8933 14.2951 24.912 14.2454 24.912L14.1707 24.8747V24.8373C14.1956 24.8498 14.2329 24.856 14.2827 24.856ZM14.4694 24.9307H14.5254L14.6 25.08L14.4694 25.0613V24.9307ZM14.432 24.856H14.376L14.3947 24.7627L14.4694 24.8C14.4694 24.8249 14.4569 24.8436 14.432 24.856ZM14.9174 25.2107C14.9547 25.2107 14.9796 25.2169 14.992 25.2293L14.824 25.2853L14.656 25.1547C14.656 25.1173 14.6685 25.0924 14.6934 25.08L14.7494 25.024C14.7743 25.0116 14.7867 24.9991 14.7867 24.9867C14.7991 24.9618 14.8116 24.9431 14.824 24.9307C14.8738 24.9431 14.9111 24.9929 14.936 25.08L14.88 25.136C14.88 25.1733 14.8925 25.1982 14.9174 25.2107ZM14.2454 24.688C14.2205 24.7378 14.1956 24.7751 14.1707 24.8L14.0774 24.744L14.264 24.6133C14.264 24.6507 14.2578 24.6756 14.2454 24.688ZM14.3387 24.576L14.264 24.6133L14.2267 24.52C14.1915 24.4614 14.184 24.4083 14.204 24.3608L14.2827 24.408L14.3387 24.576ZM14.3387 24.576L14.376 24.6507L14.544 24.5947C14.6063 24.6569 14.6747 24.688 14.7494 24.688L14.7307 24.5947L14.5627 24.5013C14.488 24.5013 14.432 24.5076 14.3947 24.52L14.3387 24.576ZM14.1894 24.352V24.3333C14.1894 24.3084 14.1956 24.2836 14.208 24.2587C14.2329 24.2338 14.2454 24.2089 14.2454 24.184L14.2267 24.1467L14.152 24.1653C14.152 24.1529 14.1396 24.1218 14.1147 24.072H14.2827L14.208 23.96C14.1085 24.0222 14.0338 24.0907 13.984 24.1653C14.0089 24.1653 14.0463 24.1778 14.096 24.2027C14.0711 24.2773 14.0463 24.3644 14.0214 24.464H14.04L14.096 24.352H14.1894ZM15.048 24.856L15.0107 24.9493H14.9547L14.88 24.856C14.8551 24.8311 14.8303 24.7751 14.8054 24.688H14.88L14.9547 24.8373C14.9671 24.8498 14.9983 24.856 15.048 24.856ZM14.6187 24.3707C14.6311 24.3582 14.6374 24.3582 14.6374 24.3707L14.7494 24.4827C14.7245 24.4951 14.6934 24.4951 14.656 24.4827C14.6311 24.4702 14.6125 24.4578 14.6 24.4453C14.6125 24.4204 14.6187 24.3893 14.6187 24.352V24.3707ZM14.9174 24.632C14.9049 24.632 14.8925 24.6382 14.88 24.6507L14.8614 24.6133C14.8863 24.5884 14.8925 24.5573 14.88 24.52V24.4267L14.9174 24.3707L15.0107 24.4267C14.9858 24.5013 14.9734 24.5636 14.9734 24.6133C14.9609 24.6258 14.9423 24.632 14.9174 24.632ZM14.2267 23.624C14.1894 23.6613 14.152 23.6676 14.1147 23.6427L14.1334 23.568C14.1707 23.5431 14.2018 23.5618 14.2267 23.624ZM14.3574 23.5867L14.4694 23.624L14.32 23.736C14.2951 23.6987 14.2951 23.6676 14.32 23.6427C14.3449 23.6178 14.3574 23.5991 14.3574 23.5867ZM14.9174 23.8667L14.88 24.0907H14.8427C14.8303 24.0658 14.824 24.0471 14.824 24.0347C14.8365 24.0098 14.8427 23.9849 14.8427 23.96L14.824 23.8853C14.8489 23.8729 14.88 23.8667 14.9174 23.8667ZM14.264 16.6987C14.2765 16.7111 14.2827 16.7236 14.2827 16.736H14.152C14.1645 16.6738 14.2018 16.6551 14.264 16.68V16.6987ZM17.6987 20.9733C17.4747 21.16 17.2134 21.2533 16.9147 21.2533L15.664 21.272C15.4525 21.272 15.3343 21.1662 15.3094 20.9547V17.3147C15.3094 17.1902 15.3156 17.0907 15.328 17.016C15.3405 16.9164 15.3716 16.848 15.4214 16.8107C15.4711 16.7609 15.5458 16.7236 15.6454 16.6987H15.776H16.224C16.3983 16.6862 16.6036 16.6862 16.84 16.6987C17.3005 16.7236 17.6489 16.9164 17.8854 17.2773C17.9974 17.4516 18.0534 17.6756 18.0534 17.9493C18.0658 18.1484 18.072 18.4409 18.072 18.8267L18.0907 18.976V19.032C18.1031 19.0444 18.1031 19.0631 18.0907 19.088C18.0783 19.1253 18.072 19.1938 18.072 19.2933V19.6293C18.072 19.9529 18.0596 20.1956 18.0347 20.3573C17.9974 20.5938 17.8854 20.7991 17.6987 20.9733ZM14.432 16.5867C14.4071 16.5742 14.3823 16.568 14.3574 16.568L14.2827 16.6053L14.264 16.5867L14.32 16.4373L14.3947 16.4933L14.4694 16.456L14.5254 16.568C14.5005 16.5929 14.4694 16.5991 14.432 16.5867ZM14.1707 16.344C14.1831 16.3813 14.1707 16.4 14.1334 16.4H14.1147V16.3813C14.1147 16.3191 14.1334 16.2507 14.1707 16.176C14.2329 16.176 14.264 16.1822 14.264 16.1947L14.32 16.2507H14.376L14.432 16.3253V16.3627L14.32 16.344L14.2454 16.3627C14.2205 16.3378 14.208 16.3129 14.208 16.288C14.1831 16.288 14.1707 16.3067 14.1707 16.344ZM14.6187 16.288C14.6436 16.3129 14.6623 16.3378 14.6747 16.3627C14.6 16.3502 14.5565 16.3191 14.544 16.2693C14.5316 16.2196 14.5191 16.1822 14.5067 16.1573L14.5254 16.1013C14.5503 16.0889 14.5814 16.0827 14.6187 16.0827C14.6311 16.0702 14.656 16.064 14.6934 16.064C14.6934 16.1138 14.6871 16.1449 14.6747 16.1573L14.6 16.1947C14.5876 16.2196 14.5938 16.2507 14.6187 16.288ZM14.4507 15.9147C14.4756 15.9022 14.5129 15.896 14.5627 15.896L14.5067 16.008L14.4507 15.9147ZM14.8427 15.9147C14.8178 15.9396 14.7805 15.9396 14.7307 15.9147C14.7307 15.8898 14.7431 15.8649 14.768 15.84C14.8054 15.8151 14.824 15.7964 14.824 15.784L14.8054 15.7467L14.8987 15.728C14.8987 15.7902 14.8925 15.8338 14.88 15.8587L14.8427 15.9147ZM15.16 15.9707C15.16 15.9831 15.1538 15.9831 15.1414 15.9707C15.0667 15.9707 15.0169 15.9458 14.992 15.896L15.1227 15.84L15.1974 15.952C15.1849 15.952 15.1725 15.9582 15.16 15.9707ZM15.3654 16.0267C15.3903 16.0142 15.4214 16.0142 15.4587 16.0267L15.4027 16.1013L15.328 16.0827V16.0453C15.3405 16.0329 15.3529 16.0267 15.3654 16.0267ZM18.8374 18.6027C18.8871 18.6276 18.912 18.6711 18.912 18.7333L18.8747 18.7707C18.8249 18.7209 18.8125 18.6649 18.8374 18.6027ZM16.5414 16.2507C16.5165 16.2507 16.4729 16.2693 16.4107 16.3067C16.4231 16.2444 16.4418 16.2009 16.4667 16.176C16.4667 16.1636 16.4605 16.1511 16.448 16.1387C16.448 16.1138 16.4667 16.0951 16.504 16.0827C16.504 16.12 16.5165 16.176 16.5414 16.2507ZM18.688 17.7253L18.7814 17.856H18.688V17.7253ZM17.1574 16.0827C17.0578 16.1076 16.9831 16.12 16.9334 16.12H16.8587L16.9334 16.0267C16.9458 16.0391 16.9707 16.0453 17.008 16.0453L17.1387 15.952L17.1574 16.0827ZM17.1574 15.9333C17.1449 15.9333 17.1387 15.9396 17.1387 15.952L17.0827 15.7467C17.0454 15.7342 17.008 15.7529 16.9707 15.8027C16.9458 15.8524 16.9209 15.8773 16.896 15.8773C16.9085 15.8151 16.9271 15.7653 16.952 15.728C16.9769 15.6782 17.0205 15.616 17.0827 15.5413C17.12 15.5413 17.1449 15.5476 17.1574 15.56L17.1947 15.5787L17.176 15.6533L17.1574 15.6907L17.176 15.9333H17.1574ZM18.968 17.576L18.8934 17.7067H18.688C18.6507 17.6569 18.6445 17.5947 18.6694 17.52C18.7191 17.5449 18.7627 17.5573 18.8 17.5573C18.8374 17.5698 18.8934 17.576 18.968 17.576ZM17.792 16.4373L17.8854 16.4933L17.792 16.5867C17.7671 16.5618 17.7609 16.5369 17.7734 16.512C17.7858 16.4871 17.792 16.4622 17.792 16.4373ZM18.7067 17.352C18.7191 17.352 18.7503 17.3644 18.8 17.3893L18.7814 17.4267L18.6507 17.3893C18.6383 17.3769 18.6383 17.3644 18.6507 17.352C18.6756 17.3396 18.6943 17.3396 18.7067 17.352ZM17.5307 16.1013C17.4809 16.1262 17.4436 16.1511 17.4187 16.176L17.288 16.12C17.3005 16.0951 17.3067 16.0453 17.3067 15.9707L17.2694 15.896L17.4374 15.84C17.4747 15.8898 17.5183 15.9333 17.568 15.9707C17.5431 16.0204 17.5307 16.064 17.5307 16.1013ZM18.6694 17.2587C18.6818 17.2587 18.7005 17.2462 18.7254 17.2213L18.856 17.2773C18.7689 17.3022 18.7067 17.296 18.6694 17.2587ZM18.6694 17.2587C18.6569 17.2587 18.632 17.2524 18.5947 17.24C18.5698 17.2276 18.5449 17.2089 18.52 17.184L18.5574 17.1467C18.5823 17.1591 18.6009 17.1778 18.6134 17.2027L18.6694 17.2587ZM18.3894 16.9787L18.4454 16.904L18.4827 16.9413L18.408 16.9973C18.408 16.9849 18.4018 16.9787 18.3894 16.9787ZM17.4747 16.3253C17.4747 16.3751 17.4436 16.4124 17.3814 16.4373L17.3067 16.4C17.3191 16.3876 17.3254 16.3689 17.3254 16.344C17.3876 16.344 17.4374 16.3378 17.4747 16.3253ZM17.5867 16.3813L17.4747 16.3253L17.456 16.3067C17.456 16.2818 17.4685 16.2631 17.4934 16.2507L17.512 16.176H17.6427L17.6987 16.0453L17.8107 15.9893C17.848 15.9893 17.8916 16.0018 17.9414 16.0267L17.9974 15.9893V16.0827C17.9725 16.1076 17.9414 16.12 17.904 16.12C17.8667 16.1076 17.8418 16.1013 17.8294 16.1013L17.792 16.2133L17.68 16.232L17.5867 16.3813ZM17.9974 15.9893C17.9849 15.9396 18.016 15.8898 18.0907 15.84L18.2214 15.9707C18.1965 15.9831 18.1716 15.9893 18.1467 15.9893C18.1218 15.9769 18.1031 15.9707 18.0907 15.9707C18.0783 15.9582 18.0596 15.9582 18.0347 15.9707C18.0223 15.9831 18.0098 15.9893 17.9974 15.9893ZM17.3814 15.6907L17.344 15.7653H17.2694V15.728L17.3814 15.5973L17.4934 15.6907C17.4809 15.7031 17.4623 15.7093 17.4374 15.7093C17.4125 15.6969 17.3938 15.6907 17.3814 15.6907ZM18.1467 16.4187C18.184 16.4187 18.2276 16.4436 18.2774 16.4933L18.2027 16.5493L18.0907 16.4373C18.1031 16.4249 18.1218 16.4187 18.1467 16.4187ZM18.5574 16.5307L18.5947 16.568V16.904C18.5698 16.8791 18.5511 16.8542 18.5387 16.8293C18.5263 16.792 18.5076 16.7671 18.4827 16.7547L18.4454 16.7733L18.3707 16.792L18.2587 16.68L18.3334 16.6613L18.408 16.7173L18.464 16.568C18.4765 16.5556 18.4889 16.5493 18.5014 16.5493C18.5263 16.5493 18.5449 16.5431 18.5574 16.5307ZM19.3227 17.688C19.2978 17.7253 19.2667 17.744 19.2294 17.744H19.192C19.192 17.7067 19.2045 17.6756 19.2294 17.6507C19.2667 17.6258 19.2916 17.6009 19.304 17.576L19.2294 17.408C19.2667 17.3956 19.2916 17.4018 19.304 17.4267C19.3289 17.4516 19.3476 17.4578 19.36 17.4453L19.416 17.6133C19.3911 17.6258 19.36 17.6507 19.3227 17.688ZM17.9227 16.2693L18.016 16.176V16.288C17.9787 16.288 17.9476 16.2818 17.9227 16.2693ZM19.0054 16.8107C19.0054 16.9227 19.0365 17.0284 19.0987 17.128C19.0738 17.1404 19.0489 17.1404 19.024 17.128C18.9991 17.1031 18.9743 17.0907 18.9494 17.0907L18.856 17.1093L18.8374 17.0907C18.8623 17.0782 18.8809 17.0533 18.8934 17.016C18.9058 16.9787 18.912 16.9538 18.912 16.9413V16.8667C18.9245 16.8293 18.9556 16.8107 19.0054 16.8107ZM17.9414 15.672V15.7467L17.904 15.7653L17.8107 15.7093L17.848 15.672C17.8729 15.6471 17.904 15.6471 17.9414 15.672ZM18.6507 16.3253C18.6507 16.3502 18.6445 16.3689 18.632 16.3813L18.464 16.3627L18.408 16.232L18.5014 16.2133L18.6507 16.3253Z" fill="white"/>
</g>
</svg>
