<svg width="90" height="90" viewBox="0 0 90 90" fill="none" xmlns="http://www.w3.org/2000/svg">
<g filter="url(#filter0_d_966_2323)">
<path d="M70 59.5833V30.4167C69.9967 27.655 68.8982 25.0074 66.9454 23.0546C64.9926 21.1018 62.345 20.0033 59.5833 20H30.4167C27.655 20.0033 25.0074 21.1018 23.0546 23.0546C21.1018 25.0074 20.0033 27.655 20 30.4167L20 59.5833C20.0033 62.345 21.1018 64.9926 23.0546 66.9454C25.0074 68.8982 27.655 69.9967 30.4167 70H59.5833C62.345 69.9967 64.9926 68.8982 66.9454 66.9454C68.8982 64.9926 69.9967 62.345 70 59.5833ZM39.7188 56.8896L32.2479 49.4187C31.6674 48.8384 31.207 48.1493 30.8928 47.391C30.5787 46.6326 30.417 45.8198 30.417 44.999C30.417 44.1781 30.5787 43.3653 30.8928 42.6069C31.207 41.8486 31.6674 41.1595 32.2479 40.5792L39.7188 33.1104L39.7708 33.0604C39.9658 32.8618 40.1985 32.7043 40.4553 32.5972C40.7121 32.49 40.9877 32.4354 41.266 32.4365C41.5442 32.4376 41.8194 32.4944 42.0754 32.6037C42.3313 32.7129 42.5627 32.8723 42.756 33.0724C42.9494 33.2725 43.1006 33.5094 43.2009 33.7689C43.3012 34.0285 43.3485 34.3055 43.34 34.5836C43.3314 34.8618 43.2673 35.1354 43.1513 35.3883C43.0353 35.6412 42.8698 35.8683 42.6646 36.0562L35.8042 42.9167L57.5 42.9021C58.0525 42.9021 58.5824 43.1216 58.9731 43.5123C59.3638 43.903 59.5833 44.4329 59.5833 44.9854C59.5833 45.538 59.3638 46.0679 58.9731 46.4586C58.5824 46.8493 58.0525 47.0687 57.5 47.0687L35.8062 47.0833L42.6646 53.9437C42.8636 54.1359 43.0223 54.3658 43.1315 54.62C43.2406 54.8742 43.2981 55.1475 43.3005 55.4242C43.3029 55.7008 43.2502 55.9751 43.1455 56.2312C43.0407 56.4872 42.886 56.7198 42.6904 56.9154C42.4948 57.111 42.2622 57.2657 42.0062 57.3705C41.7501 57.4752 41.4758 57.5279 41.1992 57.5255C40.9225 57.5231 40.6492 57.4656 40.395 57.3565C40.1408 57.2473 39.9109 57.0886 39.7188 56.8896Z" fill="#FBFBFD" fill-opacity="0.2" shape-rendering="crispEdges"/>
<path d="M31.8944 40.2256L31.8944 40.2256L39.3652 32.7568L39.3724 32.7497L39.3725 32.7497L39.4195 32.7046C39.6601 32.461 39.9467 32.2676 40.2627 32.1357C40.5811 32.0028 40.9229 31.9351 41.268 31.9365C41.613 31.9379 41.9543 32.0084 42.2716 32.1438C42.589 32.2792 42.876 32.4769 43.1157 32.725C43.3554 32.9732 43.543 33.2669 43.6673 33.5887C43.7917 33.9106 43.8503 34.2541 43.8397 34.599C43.8291 34.9438 43.7496 35.2831 43.6058 35.5967C43.4635 35.9068 43.2613 36.1857 43.0108 36.4172L37.0121 42.4159L57.4997 42.4021H57.5C58.1851 42.4021 58.8422 42.6743 59.3267 43.1587C59.8112 43.6432 60.0833 44.3003 60.0833 44.9854C60.0833 45.6706 59.8112 46.3276 59.3267 46.8121C58.8423 47.2965 58.1854 47.5687 57.5003 47.5687L31.8944 40.2256ZM31.8944 40.2256C31.2675 40.8524 30.7702 41.5966 30.4309 42.4156C30.0916 43.2346 29.917 44.1124 29.917 44.999C29.917 45.8855 30.0916 46.7633 30.4309 47.5823C30.7702 48.4013 31.2675 49.1455 31.8944 49.7723C31.8944 49.7723 31.8944 49.7723 31.8944 49.7723L39.3624 57.2403C39.6 57.4855 39.8839 57.6811 40.1976 57.8159C40.5128 57.9513 40.8518 58.0225 41.1948 58.0255C41.5378 58.0285 41.878 57.9631 42.1955 57.8332C42.513 57.7033 42.8014 57.5115 43.044 57.269C43.2865 57.0264 43.4783 56.738 43.6082 56.4205C43.7381 56.103 43.8035 55.7628 43.8005 55.4198C43.7975 55.0768 43.7263 54.7378 43.5909 54.4226C43.4561 54.1089 43.2604 53.825 43.0153 53.5873L37.0123 47.5825L57.5 47.5687L31.8944 40.2256ZM66.5918 23.4082C68.451 25.2673 69.4969 27.788 69.5 30.4173V59.5827C69.4969 62.212 68.451 64.7327 66.5918 66.5918C64.7327 68.451 62.212 69.4969 59.5827 69.5H30.4173C27.788 69.4969 25.2673 68.451 23.4082 66.5918C21.5491 64.7327 20.5032 62.2122 20.5 59.583V30.417C20.5032 27.7878 21.5491 25.2673 23.4082 23.4082C25.2673 21.5491 27.7878 20.5032 30.417 20.5H59.583C62.2122 20.5032 64.7327 21.5491 66.5918 23.4082Z" stroke="black" shape-rendering="crispEdges"/>
</g>
<defs>
<filter id="filter0_d_966_2323" x="0" y="0" width="90" height="90" filterUnits="userSpaceOnUse" color-interpolation-filters="sRGB">
<feFlood flood-opacity="0" result="BackgroundImageFix"/>
<feColorMatrix in="SourceAlpha" type="matrix" values="0 0 0 0 0 0 0 0 0 0 0 0 0 0 0 0 0 0 127 0" result="hardAlpha"/>
<feOffset/>
<feGaussianBlur stdDeviation="10"/>
<feComposite in2="hardAlpha" operator="out"/>
<feColorMatrix type="matrix" values="0 0 0 0 0 0 0 0 0 0 0 0 0 0 0 0 0 0 0.1 0"/>
<feBlend mode="normal" in2="BackgroundImageFix" result="effect1_dropShadow_966_2323"/>
<feBlend mode="normal" in="SourceGraphic" in2="effect1_dropShadow_966_2323" result="shape"/>
</filter>
</defs>
</svg>
