<svg width="90" height="90" viewBox="0 0 90 90" fill="none" xmlns="http://www.w3.org/2000/svg">
<g filter="url(#filter0_d_966_2324)">
<path d="M20 30.4167L20 59.5833C20.0033 62.345 21.1018 64.9926 23.0546 66.9454C25.0074 68.8982 27.655 69.9967 30.4167 70L59.5833 70C62.345 69.9967 64.9926 68.8982 66.9454 66.9454C68.8982 64.9926 69.9967 62.345 70 59.5833L70 30.4167C69.9967 27.655 68.8982 25.0074 66.9454 23.0546C64.9926 21.1018 62.345 20.0033 59.5833 20L30.4167 20C27.655 20.0033 25.0074 21.1018 23.0546 23.0546C21.1018 25.0074 20.0033 27.655 20 30.4167ZM50.2812 33.1104L57.7521 40.5813C58.3326 41.1616 58.793 41.8507 59.1072 42.609C59.4213 43.3674 59.583 44.1802 59.583 45.001C59.583 45.8219 59.4213 46.6347 59.1072 47.3931C58.793 48.1514 58.3326 48.8405 57.7521 49.4208L50.2812 56.8896L50.2292 56.9396C50.0342 57.1382 49.8015 57.2957 49.5447 57.4028C49.2879 57.51 49.0123 57.5646 48.734 57.5635C48.4558 57.5624 48.1806 57.5056 47.9246 57.3963C47.6687 57.2871 47.4373 57.1277 47.244 56.9276C47.0506 56.7275 46.8994 56.4906 46.7991 56.2311C46.6988 55.9715 46.6515 55.6945 46.66 55.4164C46.6686 55.1382 46.7327 54.8646 46.8487 54.6117C46.9647 54.3588 47.1302 54.1317 47.3354 53.9438L54.1958 47.0833L32.5 47.0979C31.9475 47.0979 31.4176 46.8784 31.0269 46.4877C30.6362 46.097 30.4167 45.5671 30.4167 45.0146C30.4167 44.4621 30.6362 43.9321 31.0269 43.5414C31.4176 43.1507 31.9475 42.9313 32.5 42.9313L54.1937 42.9167L47.3354 36.0563C47.1364 35.8641 46.9777 35.6342 46.8685 35.38C46.7594 35.1258 46.7019 34.8525 46.6995 34.5758C46.6971 34.2992 46.7498 34.0249 46.8545 33.7689C46.9593 33.5128 47.114 33.2802 47.3096 33.0846C47.5052 32.889 47.7378 32.7343 47.9938 32.6295C48.2499 32.5248 48.5242 32.4721 48.8008 32.4745C49.0775 32.4769 49.3508 32.5344 49.605 32.6435C49.8592 32.7527 50.0891 32.9114 50.2812 33.1104Z" fill="#FBFBFD" fill-opacity="0.2" shape-rendering="crispEdges"/>
<path d="M58.1056 49.7744L58.1056 49.7744L50.6348 57.2432L50.6276 57.2503L50.6275 57.2503L50.5805 57.2954C50.3399 57.539 50.0533 57.7324 49.7373 57.8643C49.4189 57.9972 49.0771 58.0649 48.732 58.0635C48.387 58.0621 48.0457 57.9916 47.7284 57.8562C47.411 57.7208 47.124 57.5231 46.8843 57.275C46.6446 57.0268 46.457 56.7331 46.3327 56.4113C46.2083 56.0894 46.1497 55.7459 46.1603 55.4011C46.1709 55.0562 46.2504 54.7169 46.3942 54.4033C46.5365 54.0932 46.7387 53.8143 46.9892 53.5828L52.9879 47.5841L32.5003 47.5979L32.5 47.5979C31.8149 47.5979 31.1578 47.3257 30.6733 46.8413C30.1888 46.3568 29.9167 45.6997 29.9167 45.0146C29.9167 44.3294 30.1888 43.6724 30.6733 43.1879C31.1577 42.7035 31.8146 42.4313 32.4997 42.4313L58.1056 49.7744ZM58.1056 49.7744C58.7325 49.1476 59.2298 48.4034 59.5691 47.5844C59.9084 46.7654 60.083 45.8876 60.083 45.001C60.083 44.1145 59.9084 43.2367 59.5691 42.4177C59.2298 41.5987 58.7325 40.8545 58.1056 40.2277C58.1056 40.2277 58.1056 40.2277 58.1056 40.2277L50.6376 32.7597C50.4 32.5145 50.1161 32.3189 49.8023 32.1841C49.4872 32.0487 49.1482 31.9775 48.8052 31.9745C48.4622 31.9715 48.122 32.0369 47.8045 32.1668C47.487 32.2967 47.1986 32.4885 46.956 32.731C46.7135 32.9736 46.5217 33.262 46.3918 33.5795C46.2619 33.897 46.1965 34.2372 46.1995 34.5802C46.2025 34.9232 46.2737 35.2622 46.4091 35.5774C46.5439 35.8911 46.7396 36.175 46.9847 36.4127L52.9877 42.4175L32.5 42.4313L58.1056 49.7744ZM23.4082 66.5918C21.549 64.7327 20.5031 62.212 20.5 59.5827L20.5 30.4173C20.5031 27.788 21.549 25.2673 23.4082 23.4082C25.2673 21.549 27.788 20.5032 30.4173 20.5L59.5827 20.5C62.212 20.5031 64.7327 21.549 66.5918 23.4082C68.4509 25.2673 69.4968 27.7878 69.5 30.417L69.5 59.583C69.4968 62.2122 68.4509 64.7327 66.5918 66.5918C64.7327 68.4509 62.2122 69.4968 59.583 69.5L30.417 69.5C27.7878 69.4968 25.2673 68.4509 23.4082 66.5918Z" stroke="black" shape-rendering="crispEdges"/>
</g>
<defs>
<filter id="filter0_d_966_2324" x="0" y="0" width="90" height="90" filterUnits="userSpaceOnUse" color-interpolation-filters="sRGB">
<feFlood flood-opacity="0" result="BackgroundImageFix"/>
<feColorMatrix in="SourceAlpha" type="matrix" values="0 0 0 0 0 0 0 0 0 0 0 0 0 0 0 0 0 0 127 0" result="hardAlpha"/>
<feOffset/>
<feGaussianBlur stdDeviation="10"/>
<feComposite in2="hardAlpha" operator="out"/>
<feColorMatrix type="matrix" values="0 0 0 0 0 0 0 0 0 0 0 0 0 0 0 0 0 0 0.1 0"/>
<feBlend mode="normal" in2="BackgroundImageFix" result="effect1_dropShadow_966_2324"/>
<feBlend mode="normal" in="SourceGraphic" in2="effect1_dropShadow_966_2324" result="shape"/>
</filter>
</defs>
</svg>
