<svg width="220" height="220" viewBox="0 0 220 220" fill="none" xmlns="http://www.w3.org/2000/svg">
<g id="quote5">
<g id="Rectangle 91" filter="url(#filter0_b_3_69459)">
<rect width="220" height="220" rx="20" fill="#FBFBFD" fill-opacity="0.7"/>
</g>
<g id="Vector">
<path d="M33.1673 102.144C34.0799 100.62 35.2732 99.2373 36.7473 97.9482C37.2855 97.4561 37.7769 96.9873 38.2214 96.5186C42.0588 92.2998 46.2472 88.4561 50.7631 85.0108C51.9331 84.0967 53.3136 83.3467 54.9047 82.7608C55.3493 82.5967 55.7705 82.5264 56.1916 82.5264C57.2212 82.5264 58.1571 83.042 58.9761 84.0498C59.5142 84.8936 59.795 85.8779 59.795 86.9561C59.795 87.0498 59.795 87.4014 59.7482 88.0342C59.7248 88.667 59.5844 89.4873 59.3271 90.5186C58.5549 93.4951 57.5722 96.4248 56.3788 99.2607C55.6301 101.065 54.9515 102.917 54.3197 104.769C57.1744 104.909 60.0056 105.237 62.8369 105.729C62.9071 105.753 63.0241 105.753 63.141 105.776C63.6324 105.8 64.1238 105.917 64.662 106.081C65.0597 106.222 65.2469 106.433 65.2469 106.714C65.2469 106.831 65.2235 106.948 65.1533 107.089C64.8258 107.394 64.3812 107.558 63.843 107.558C63.5622 107.558 63.258 107.511 62.9305 107.44C62.6731 107.417 62.4391 107.394 62.2753 107.394C60.8246 107.37 59.3739 107.276 57.9465 107.112C56.4724 106.925 54.9749 106.831 53.4774 106.831C53.3604 107.417 53.1966 107.979 52.9626 108.542C52.8456 108.847 52.752 109.151 52.635 109.456C51.9565 111.472 51.4417 113.534 51.0439 115.644C51.0205 115.714 51.0205 115.808 50.9971 115.901C50.8567 116.464 50.7865 117.003 50.7865 117.542C50.7865 118.175 50.8801 118.784 51.0673 119.394C51.1141 119.675 51.1375 119.933 51.1375 120.19C51.1375 121.081 50.8801 121.901 50.3888 122.604C50.225 122.651 50.0378 122.698 49.874 122.698C49.289 122.698 48.7509 122.253 48.2595 121.386C47.7681 120.519 47.4405 119.769 47.3001 119.112C46.9959 117.847 46.8556 116.581 46.8556 115.292C46.8556 114.448 46.9492 113.276 47.1831 111.753C47.3937 110.229 47.8149 108.448 48.4233 106.456C45.2176 106.433 42.0354 106.198 38.8766 105.753C38.7596 105.729 38.5958 105.706 38.3852 105.683C37.7535 105.542 37.1685 105.448 36.6303 105.448C36.0454 105.448 35.5306 105.542 35.0626 105.729C34.3373 106.409 33.7055 107.206 33.1205 108.12C32.8397 108.519 32.559 108.917 32.3016 109.269C30.2191 111.964 28.2068 114.729 26.2413 117.519C26.1243 117.683 26.0073 117.847 25.8903 118.011C25.3054 118.784 24.7672 119.604 24.2524 120.425C24.229 120.472 24.1822 120.519 24.1588 120.589C23.9248 121.151 23.5271 121.503 22.9655 121.62H22.7081C22.1231 121.62 21.7254 121.479 21.5382 121.198C21.3744 120.964 21.3042 120.683 21.3042 120.378C21.3042 120.237 21.351 120.003 21.3978 119.651C21.468 119.323 21.6084 118.901 21.8424 118.386C22.0529 117.87 22.2635 117.448 22.4273 117.144C24.697 112.901 27.3878 108.917 30.4531 105.237C29.5873 105.073 28.7216 104.979 27.8324 104.933C27.1539 104.886 26.4519 104.815 25.7733 104.722C25.048 104.604 24.346 104.464 23.6207 104.253C22.8953 104.065 22.1933 103.667 21.5148 103.034C21.1638 102.729 21 102.401 21 102.05C21 101.722 21.1638 101.347 21.5148 100.972C22.1933 100.456 22.9889 100.128 23.878 99.9873C23.9482 99.9639 24.0184 99.9639 24.0886 99.9404C25.0246 99.7061 26.0541 99.5889 27.1773 99.5889C27.7622 99.5889 28.6982 99.6357 29.9383 99.7529C31.2018 99.8701 32.208 100.667 32.9801 102.144H33.1673ZM55.7237 85.5498C54.5771 86.1358 53.5008 86.8623 52.4946 87.7295C52.3309 87.8467 52.1437 87.9873 51.9799 88.1279C48.9614 90.5889 46.1068 93.2607 43.4627 96.1436C42.9246 96.6826 42.3864 97.2451 41.8014 97.8076C39.9529 99.5186 38.3618 101.37 37.0047 103.362C38.2916 103.456 39.5552 103.573 40.8421 103.69C42.4332 103.854 44.0243 103.995 45.6154 104.112C45.8962 104.136 46.2238 104.183 46.5748 104.253C47.0895 104.37 47.5809 104.417 48.0255 104.417C48.3531 104.417 48.6807 104.394 48.9614 104.323C49.1954 104.136 49.3592 103.831 49.4294 103.409C49.4528 103.315 49.4762 103.245 49.4996 103.175C49.8506 102.12 50.225 101.065 50.6227 100.011C50.6461 99.9404 50.6929 99.8701 50.7163 99.7998C51.1843 98.5576 51.6523 97.3389 52.1437 96.1436C52.9626 94.1514 53.7114 92.1592 54.4133 90.1436C54.5303 89.8154 54.6473 89.4873 54.7643 89.1592C55.2557 87.9873 55.5599 86.792 55.7237 85.5498ZM31.2018 102.894C30.8742 102.214 30.3127 101.815 29.5171 101.698C28.9088 101.581 28.3004 101.511 27.692 101.511C26.5221 101.511 25.3756 101.745 24.2758 102.237C26.3583 102.683 28.4642 102.894 30.5935 102.894H31.2018Z" fill="#E2CEC7"/>
<path d="M66.6509 109.011C67.0486 107.464 67.7272 105.964 68.6631 104.487C68.8503 104.183 69.0375 103.878 69.2013 103.573C71.12 99.7998 73.4599 96.3311 76.2209 93.167C77.1803 91.9248 78.397 91.0342 79.8477 90.5186C80.0583 90.4951 80.2455 90.4717 80.4327 90.4717C81.509 90.4717 82.1642 91.0811 82.3514 92.3233C82.1642 94.0811 81.509 95.7451 80.4093 97.2686C80.3391 97.4092 80.2455 97.5498 80.1753 97.667C78.3268 100.597 76.1975 103.362 73.8342 105.917C73.4365 106.362 72.9919 106.784 72.5005 107.206C71.822 107.745 71.237 108.354 70.7456 109.011C70.4414 109.503 70.1841 110.042 70.0203 110.628C69.9501 110.815 69.9033 111.003 69.8331 111.167C69.1545 112.761 68.7333 114.425 68.5227 116.136C68.5227 116.229 68.5227 116.323 68.4993 116.417C68.4759 116.558 68.4525 116.698 68.4525 116.862C68.4525 117.144 68.5227 117.448 68.6163 117.729C68.8503 118.151 69.1545 118.339 69.5523 118.339C69.6693 118.339 69.9033 118.292 70.2776 118.198C70.6286 118.104 71.0264 117.917 71.4242 117.636C73.5067 116.136 75.2616 114.284 76.6655 112.104C76.6889 112.058 76.7357 111.987 76.8059 111.87C76.9463 111.636 77.1335 111.354 77.3675 111.05C77.6014 110.745 77.8354 110.511 78.0694 110.347C78.1396 110.3 78.2332 110.276 78.3034 110.276C78.4204 110.276 78.5374 110.347 78.631 110.511C78.6544 110.581 78.6544 110.651 78.6544 110.745C78.6544 111.026 78.5374 111.331 78.28 111.612C78.2098 111.683 78.163 111.753 78.1396 111.823C77.4142 112.995 76.5953 114.12 75.7061 115.198C74.6298 116.628 73.2493 117.87 71.5412 118.948C70.8392 119.394 70.1607 119.604 69.4587 119.604C68.4993 119.604 67.54 119.159 66.5807 118.292C66.1829 117.847 65.9021 117.331 65.6915 116.792C65.4809 116.019 65.3639 115.269 65.3639 114.495V114.214C65.3639 113.886 65.3639 113.558 65.3405 113.229C64.6854 114.331 63.8664 115.339 62.9071 116.206C61.9711 117.19 60.7076 117.987 59.1399 118.62C58.7187 118.784 58.3209 118.878 57.9699 118.878C56.9872 118.878 56.2384 118.245 55.7237 116.979C55.6535 116.651 55.6067 116.323 55.6067 115.995C55.6067 115.854 55.6067 115.714 55.6301 115.573C55.981 113.112 57.3382 111.214 59.7014 109.878C61.2224 109.011 62.6965 108.589 64.1706 108.589C65.0129 108.589 65.8319 108.729 66.6509 109.011ZM80.9709 92.2295C80.1051 92.7451 79.3797 93.5186 78.7948 94.5498C78.631 94.7842 78.4672 95.0186 78.3268 95.2295C76.7825 97.3389 75.402 99.5654 74.1618 101.886C74.0214 102.12 73.881 102.378 73.7173 102.636C73.1791 103.479 72.7579 104.347 72.4537 105.261C73.2259 104.628 73.9512 103.878 74.583 103.011C74.7468 102.8 74.934 102.565 75.1212 102.354C76.8059 100.409 78.3034 98.3467 79.6137 96.167C80.4093 94.9482 80.8539 93.6357 80.9709 92.2295ZM65.8085 110.792C65.5277 110.722 65.2703 110.698 65.0129 110.698C64.3344 110.698 63.7026 110.909 63.0709 111.331C63.0475 111.354 63.0241 111.354 63.0007 111.378C61.9009 111.94 60.8714 112.761 59.912 113.862C58.9527 114.964 58.4145 116.159 58.3209 117.448C59.4207 117.331 60.4034 116.862 61.2224 116.089C63.0475 114.565 64.5684 112.808 65.8085 110.792Z" fill="#E2CEC7"/>
<path d="M87.4055 107.581C88.1777 107.628 88.552 107.979 88.552 108.659C88.552 108.8 88.5286 108.964 88.5052 109.128C88.3882 109.573 88.1777 110.019 87.9203 110.44C87.5693 110.862 87.4055 111.261 87.4055 111.636C87.4055 112.128 87.6863 112.573 88.2478 112.972C88.8562 113.253 89.4646 113.394 90.0963 113.394C90.6111 113.394 91.2897 113.253 92.1554 112.972C93.0212 112.667 93.8869 112.198 94.7995 111.565C94.8931 111.495 95.0335 111.354 95.2207 111.19C95.8524 110.511 96.414 110.159 96.9054 110.159C96.999 110.159 97.0692 110.183 97.1627 110.206C97.1861 110.276 97.1861 110.347 97.1861 110.44C97.1861 110.769 96.9756 111.073 96.5544 111.354L96.4842 111.425C95.4312 112.339 94.2847 113.042 93.0212 113.581C92.015 114.003 90.9855 114.214 89.9325 114.214C89.4646 114.214 88.9966 114.167 88.5286 114.097C88.2946 114.026 87.9905 113.862 87.6395 113.651C87.1247 113.323 86.7035 113.159 86.4227 113.159H86.3759C85.9314 113.417 85.4868 113.886 85.0656 114.565C84.8784 114.823 84.7146 115.058 84.5742 115.222C83.8021 116.136 82.9129 116.979 81.9068 117.8C80.9007 118.62 79.7541 119.042 78.514 119.042C78.046 119.019 77.6014 118.901 77.2037 118.69C76.0337 117.94 75.4488 116.956 75.4488 115.761C75.4488 115.526 75.519 114.987 75.6593 114.12C75.8231 113.253 76.2209 112.198 76.8995 111.003C76.9697 110.839 77.0399 110.675 77.1101 110.511C77.461 109.503 78.0226 108.8 78.7948 108.425H79.0522C80.0583 108.425 80.5965 108.964 80.6433 110.065C80.4327 111.167 80.0349 112.222 79.4733 113.229C79.1224 113.909 78.8182 114.612 78.5608 115.315C78.4906 115.503 78.4204 115.761 78.3502 116.112C78.3034 116.3 78.28 116.487 78.28 116.651C78.28 116.792 78.3034 116.956 78.3502 117.167C78.3736 117.378 78.5608 117.495 78.8884 117.519C79.4967 117.448 80.0583 117.19 80.5497 116.792C80.5497 116.769 80.5497 116.769 80.5731 116.769C81.626 115.972 82.5854 115.058 83.4511 114.003C83.6617 113.745 83.8957 113.487 84.1297 113.253L84.4573 112.878C84.9486 112.433 85.2996 111.964 85.557 111.472C85.674 111.097 85.7442 110.675 85.791 110.183V109.995C85.791 108.8 86.3292 108.003 87.4055 107.581Z" fill="#E2CEC7"/>
<path d="M97.5137 114.542C97.3031 115.058 97.1394 115.667 97.0458 116.37C97.0224 116.464 97.0224 116.581 97.0224 116.675C97.0224 117.237 97.2563 117.659 97.7009 117.987C98.0285 118.081 98.3795 118.151 98.7071 118.151C99.3154 118.151 99.9238 117.964 100.532 117.612C100.556 117.589 100.579 117.589 100.602 117.589C103.457 116.183 105.867 114.19 107.809 111.636C107.926 111.472 108.067 111.308 108.207 111.144C108.535 110.651 108.909 110.253 109.33 109.925C109.47 109.854 109.587 109.808 109.704 109.808C109.868 109.808 110.032 109.925 110.149 110.136V110.229C110.149 110.558 110.009 110.862 109.751 111.167C109.681 111.237 109.634 111.284 109.611 111.354C108.932 112.386 108.16 113.347 107.341 114.261C107.201 114.401 107.06 114.542 106.943 114.683C106.546 115.151 106.101 115.597 105.656 115.995C105.142 116.44 104.604 116.886 104.065 117.308C102.708 118.386 101.07 119.183 99.1516 119.675C98.7305 119.792 98.3093 119.839 97.9115 119.839C96.5544 119.839 95.4078 119.159 94.4953 117.823C94.0507 116.909 93.8401 115.995 93.8401 115.081C93.8401 114.073 94.2379 112.808 95.0101 111.308C95.8056 109.831 97.116 108.683 98.9176 107.886C99.7834 107.487 100.836 107.253 102.053 107.183H102.264C103.363 107.183 104.159 107.675 104.604 108.636C104.65 108.894 104.697 109.151 104.697 109.386C104.697 110.159 104.416 110.886 103.855 111.542C103.176 112.409 102.24 113.183 101.024 113.862C100.134 114.378 99.2686 114.636 98.4263 114.636C98.1221 114.636 97.8179 114.612 97.5137 114.542ZM97.8881 113.604C99.8536 113.44 101.468 112.597 102.708 111.073C103.106 110.604 103.317 110.112 103.317 109.62C103.317 109.362 103.27 109.128 103.176 108.87C102.989 108.823 102.802 108.776 102.615 108.776C102.147 108.776 101.702 108.964 101.258 109.339C99.6664 110.394 98.5433 111.8 97.8881 113.604Z" fill="#E2CEC7"/>
<path d="M109.353 109.503C108.839 109.503 108.347 109.433 107.856 109.315C106.943 108.847 106.475 108.261 106.475 107.534C106.475 107.136 106.616 106.69 106.897 106.222C107.809 105.167 108.979 104.604 110.383 104.534H110.477C111.693 104.534 112.395 105.12 112.536 106.315C112.512 106.737 112.419 107.136 112.255 107.534L112.161 107.815C112.699 107.698 113.261 107.628 113.846 107.628H114.01C114.337 107.628 114.642 107.675 114.969 107.745C115.952 108.167 116.467 108.776 116.467 109.573C116.467 109.878 116.303 110.44 115.975 111.284C115.671 112.104 115.156 112.972 114.478 113.886C114.431 113.956 114.384 114.026 114.337 114.097C114.08 114.495 113.823 114.894 113.565 115.315C113.542 115.362 113.495 115.409 113.472 115.479C113.308 115.714 113.144 115.995 112.98 116.323C112.816 116.651 112.699 116.979 112.629 117.284C112.606 117.354 112.606 117.425 112.606 117.495C112.606 117.729 112.676 117.917 112.84 118.081C112.98 118.222 113.144 118.269 113.355 118.269C113.425 118.269 113.565 118.269 113.776 118.222C113.963 118.175 114.22 118.058 114.525 117.87C114.829 117.683 115.063 117.519 115.25 117.378C115.273 117.354 115.32 117.331 115.344 117.308C117.379 115.737 119.204 113.956 120.819 111.94C120.889 111.847 120.983 111.706 121.1 111.542C121.685 110.558 122.293 110.065 122.901 110.065C122.995 110.206 123.042 110.347 123.042 110.487C123.042 110.698 122.948 110.909 122.761 111.144C122.738 111.167 122.738 111.167 122.738 111.19C122.153 112.081 121.497 112.925 120.772 113.722C120.538 113.979 120.304 114.237 120.047 114.519C118.502 116.628 116.63 118.198 114.408 119.206C113.963 119.347 113.518 119.417 113.097 119.417C112.629 119.417 112.068 119.3 111.389 119.065C110.711 118.831 110.266 118.198 110.032 117.19V116.839C110.032 115.972 110.219 115.151 110.617 114.378C110.968 113.651 111.413 112.948 111.951 112.245C112.863 111.19 113.425 110.042 113.659 108.847C113.027 108.847 112.302 108.964 111.53 109.198C111.202 109.456 110.921 109.831 110.711 110.276C110.617 110.464 110.523 110.651 110.406 110.815C110.196 111.12 109.985 111.425 109.775 111.776C109.026 113.019 108.16 114.073 107.201 114.987C106.943 115.151 106.663 115.245 106.335 115.245H106.265C106.031 115.222 105.89 115.081 105.89 114.847C105.89 114.753 105.914 114.659 105.937 114.565C106.241 113.886 106.663 113.253 107.201 112.62C107.411 112.362 107.622 112.104 107.809 111.847C107.926 111.683 108.043 111.519 108.16 111.354C108.628 110.769 109.026 110.136 109.353 109.503ZM110.757 106.409C110.617 106.479 110.406 106.597 110.102 106.784C109.798 106.972 109.517 107.183 109.307 107.417C109.143 107.581 109.073 107.722 109.073 107.886C109.073 107.933 109.073 107.979 109.096 108.026C109.283 108.144 109.47 108.19 109.658 108.19C109.845 108.19 110.032 108.144 110.219 108.026C110.57 107.581 110.757 107.089 110.757 106.55V106.409Z" fill="#E2CEC7"/>
<path d="M127.628 98.5342C126.294 98.5342 124.984 98.5576 123.65 98.6279C122.106 98.6982 120.561 98.7217 119.017 98.7217C118.643 98.6982 118.151 98.5811 117.566 98.3467C117.215 98.2061 117.028 98.0186 117.028 97.8076C117.028 97.6436 117.122 97.4561 117.286 97.2686C117.8 97.0107 118.409 96.8701 119.134 96.8701C119.368 96.8701 119.602 96.8936 119.859 96.917C120.047 96.9404 120.21 96.9404 120.327 96.9404H126.13C126.341 96.9404 126.575 96.9404 126.832 96.9639C127.09 96.9873 127.347 97.0107 127.581 97.0107C127.955 97.0107 128.33 96.9639 128.657 96.8701C129.055 96.6123 129.383 96.2139 129.64 95.6748C129.71 95.5107 129.804 95.3701 129.874 95.2529C130.763 93.9404 131.723 92.6983 132.752 91.5029C133.244 90.7764 133.828 90.4248 134.46 90.4248C134.788 90.4248 135.139 90.5186 135.49 90.7061C135.654 90.9639 135.747 91.2451 135.747 91.5264C135.747 91.8779 135.607 92.2529 135.303 92.6279C134.905 93.2842 134.46 93.9404 134.016 94.5732C133.431 95.3936 132.893 96.2607 132.401 97.1279C134.835 97.1279 137.292 97.3154 139.795 97.667C139.865 97.667 139.982 97.6904 140.146 97.7139C140.287 97.7607 140.45 97.8076 140.638 97.8779C140.825 97.9482 141.012 98.0186 141.176 98.0889C141.339 98.1592 141.48 98.2529 141.597 98.3467C141.69 98.417 141.737 98.5107 141.737 98.6045C141.737 98.6279 141.737 98.6514 141.737 98.7217C141.737 98.792 141.644 98.8623 141.48 98.9795C141.246 99.0732 140.965 99.1201 140.661 99.1201C140.45 99.1201 140.216 99.0967 139.959 99.0498C139.702 99.0264 139.491 99.0029 139.327 99.0029C138.368 98.9795 137.409 98.9326 136.449 98.8623C135.49 98.7686 134.507 98.7217 133.524 98.7217C133.361 98.7217 133.173 98.6982 132.939 98.6748C132.682 98.6279 132.471 98.6045 132.237 98.6045C131.957 98.6045 131.723 98.6514 131.489 98.7217C131.184 98.9092 130.95 99.1904 130.787 99.5654C130.74 99.6592 130.693 99.7529 130.623 99.8467L128.985 102.472C126.668 105.94 124.797 109.62 123.369 113.534C123.346 113.628 123.299 113.745 123.252 113.862C122.831 114.8 122.621 115.667 122.621 116.511C122.621 116.933 122.691 117.331 122.784 117.729C122.901 117.847 123.042 117.917 123.205 117.917C123.393 117.917 123.697 117.8 124.095 117.589C124.492 117.378 124.867 117.144 125.171 116.886C125.218 116.862 125.265 116.839 125.288 116.815C127.277 115.292 128.962 113.511 130.389 111.472C130.412 111.448 130.436 111.401 130.459 111.378C130.623 111.12 130.88 110.815 131.208 110.487C131.372 110.323 131.489 110.253 131.629 110.253C131.769 110.253 131.886 110.347 131.98 110.558V110.675C131.98 110.909 131.91 111.144 131.723 111.354C131.699 111.378 131.676 111.425 131.652 111.472C131.184 112.198 130.693 112.925 130.202 113.628C128.728 115.714 126.949 117.425 124.82 118.784C124.118 119.253 123.393 119.511 122.644 119.511C122.129 119.511 121.614 119.394 121.076 119.159C120.117 118.503 119.649 117.612 119.649 116.417C119.649 116.417 119.649 116.089 119.649 115.479C119.649 114.87 119.813 114.073 120.14 113.065C121.334 109.456 122.972 106.058 125.031 102.847C125.101 102.753 125.148 102.659 125.194 102.565C125.475 102.097 125.779 101.628 126.107 101.159C126.739 100.315 127.23 99.4482 127.628 98.5342Z" fill="#E2CEC7"/>
<path d="M136.59 103.339H136.8C137.689 103.339 138.181 103.784 138.251 104.698C137.9 105.847 137.175 106.62 136.028 106.995H135.841C134.975 106.995 134.507 106.55 134.484 105.636C134.788 104.487 135.49 103.714 136.59 103.339ZM133.22 107.839C133.407 107.792 133.595 107.769 133.735 107.769C134.179 107.769 134.484 107.933 134.694 108.237C134.835 108.425 134.881 108.636 134.881 108.87C134.881 109.151 134.811 109.433 134.624 109.761C134.273 110.347 133.899 110.909 133.501 111.448C132.518 112.761 131.723 114.19 131.138 115.761C131.021 116.089 130.927 116.511 130.857 117.05C130.857 117.12 130.833 117.19 130.833 117.261C130.833 117.683 131.021 117.964 131.348 118.128H131.418C132.237 118.128 132.986 117.823 133.665 117.214H133.688C135.607 115.737 137.338 114.073 138.859 112.198C138.929 112.081 139.046 111.94 139.187 111.776C139.772 110.862 140.404 110.323 141.082 110.159C141.293 110.206 141.386 110.3 141.386 110.44C141.386 110.487 141.363 110.558 141.316 110.675C141.293 110.792 141.222 110.933 141.105 111.073C140.544 111.8 139.959 112.526 139.351 113.229C137.97 114.917 136.426 116.44 134.718 117.8C133.805 118.573 132.776 119.042 131.629 119.206C129.687 119.112 128.681 118.058 128.634 116.042C128.821 113.722 129.664 111.659 131.161 109.854C131.231 109.761 131.301 109.667 131.372 109.573C131.84 108.753 132.448 108.19 133.22 107.839Z" fill="#E2CEC7"/>
<path d="M146.043 115.409C147.985 114.472 149.669 113.183 151.097 111.565C151.12 111.542 151.12 111.519 151.144 111.495C151.331 111.284 151.588 111.073 151.916 110.839C152.056 110.745 152.15 110.698 152.267 110.698C152.407 110.698 152.524 110.815 152.594 111.026C152.594 111.331 152.43 111.636 152.126 111.917C152.103 111.94 152.056 111.987 152.033 112.034C151.331 112.831 150.582 113.581 149.786 114.261C149.061 114.847 148.312 115.315 147.517 115.69C147.119 115.901 146.721 116.136 146.323 116.37C146.019 116.581 145.738 116.886 145.528 117.284C145.364 117.589 145.153 117.847 144.919 118.058C144.054 118.784 142.86 119.347 141.316 119.698C140.918 119.792 140.544 119.839 140.193 119.839C139.21 119.839 138.391 119.464 137.783 118.69C137.713 118.479 137.666 118.292 137.666 118.104C137.666 117.542 138.04 117.12 138.742 116.839C139.14 116.722 139.678 116.628 140.357 116.581H140.521C141.971 116.581 142.884 116.159 143.282 115.315C143.188 114.753 142.767 114.472 142.041 114.448C141.971 114.425 141.901 114.425 141.831 114.401C140.404 114.261 139.538 113.534 139.234 112.222C139.304 110.979 139.912 109.972 141.082 109.151C142.229 108.331 143.352 107.792 144.452 107.534C144.826 107.417 145.177 107.347 145.528 107.347C146.136 107.347 146.721 107.534 147.259 107.909C147.564 108.237 147.727 108.589 147.727 108.94C147.727 109.245 147.61 109.55 147.4 109.878C147.142 110.276 146.885 110.464 146.628 110.464C146.394 110.464 146.183 110.323 145.949 110.065C144.428 110.651 143.211 111.612 142.299 112.972C143.071 113.019 143.867 113.229 144.662 113.581C145.458 113.956 145.926 114.565 146.043 115.409ZM141.644 117.284C141.503 117.261 141.339 117.261 141.199 117.261C140.404 117.261 139.702 117.519 139.117 118.034C140.076 118.034 140.918 117.823 141.644 117.378V117.284Z" fill="#E2CEC7"/>
<path d="M157.508 103.339H157.719C158.608 103.339 159.099 103.784 159.169 104.698C158.818 105.847 158.093 106.62 156.946 106.995H156.759C155.893 106.995 155.425 106.55 155.402 105.636C155.706 104.487 156.408 103.714 157.508 103.339ZM154.139 107.839C154.326 107.792 154.513 107.769 154.653 107.769C155.098 107.769 155.402 107.933 155.613 108.237C155.753 108.425 155.8 108.636 155.8 108.87C155.8 109.151 155.73 109.433 155.542 109.761C155.191 110.347 154.817 110.909 154.419 111.448C153.437 112.761 152.641 114.19 152.056 115.761C151.939 116.089 151.845 116.511 151.775 117.05C151.775 117.12 151.752 117.19 151.752 117.261C151.752 117.683 151.939 117.964 152.267 118.128H152.337C153.156 118.128 153.905 117.823 154.583 117.214H154.607C156.525 115.737 158.257 114.073 159.778 112.198C159.848 112.081 159.965 111.94 160.105 111.776C160.69 110.862 161.322 110.323 162.001 110.159C162.211 110.206 162.305 110.3 162.305 110.44C162.305 110.487 162.281 110.558 162.235 110.675C162.211 110.792 162.141 110.933 162.024 111.073C161.462 111.8 160.877 112.526 160.269 113.229C158.889 114.917 157.344 116.44 155.636 117.8C154.724 118.573 153.694 119.042 152.547 119.206C150.605 119.112 149.599 118.058 149.552 116.042C149.74 113.722 150.582 111.659 152.079 109.854C152.15 109.761 152.22 109.667 152.29 109.573C152.758 108.753 153.366 108.19 154.139 107.839Z" fill="#E2CEC7"/>
<path d="M168.997 109.69C166.119 111.472 163.545 113.651 161.322 116.253C161.135 116.464 160.924 116.745 160.667 117.073C159.895 118.292 158.982 119.065 157.953 119.417H157.906C157.063 119.417 156.642 119.042 156.642 118.269C156.642 118.245 156.642 118.034 156.666 117.612C156.689 117.214 156.829 116.722 157.134 116.159C158.046 114.378 159.146 112.714 160.433 111.19C160.456 111.167 160.456 111.167 160.456 111.144C161.182 110.089 162.047 109.222 163.1 108.542C163.475 108.331 163.943 108.237 164.434 108.237C164.504 108.237 164.691 108.237 165.019 108.261C165.347 108.284 165.557 108.612 165.674 109.222C165.651 109.597 165.534 109.948 165.3 110.276C165.23 110.37 165.183 110.464 165.159 110.534C165.23 110.487 165.276 110.44 165.347 110.37C166.048 109.831 166.797 109.362 167.593 108.964C168.084 108.729 168.576 108.542 169.09 108.378C169.441 108.284 169.769 108.237 170.073 108.237C171.173 108.237 171.758 108.917 171.875 110.253C171.664 111.612 171.196 112.925 170.471 114.167C170.213 114.683 169.956 115.198 169.745 115.69C169.722 115.761 169.699 115.831 169.652 115.925C169.278 116.581 169.09 117.167 169.09 117.683C169.09 117.94 169.137 118.198 169.231 118.433C169.324 118.456 169.395 118.456 169.488 118.456C170.073 118.456 170.681 118.175 171.29 117.612L171.43 117.519C173.092 116.206 174.612 114.683 175.946 112.972L176.508 112.315C176.578 112.222 176.672 112.104 176.788 111.94C177.327 111.05 177.888 110.581 178.52 110.511C178.684 110.675 178.754 110.839 178.754 111.003C178.754 111.19 178.66 111.401 178.45 111.636L178.426 111.659C177.982 112.362 177.467 113.042 176.905 113.698C176.718 113.909 176.531 114.144 176.344 114.378C174.706 116.769 172.6 118.573 170.026 119.769C169.652 119.909 169.254 119.956 168.856 119.956H168.622C167.008 119.675 166.142 118.878 166.025 117.565C166.002 117.308 166.002 117.073 166.002 116.839C166.002 115.761 166.212 114.729 166.657 113.722C166.984 112.995 167.382 112.292 167.85 111.636C168.295 111.026 168.669 110.37 168.997 109.69Z" fill="#E2CEC7"/>
<path d="M185.914 112.761C185.329 113.347 184.744 113.979 184.159 114.612C183.2 115.714 182.147 116.745 181.047 117.729C180.228 118.55 179.245 119.136 178.146 119.464H178.005C176.344 119.464 175.338 118.597 175.01 116.886C174.987 116.651 174.987 116.417 174.987 116.183C174.987 114.354 175.642 112.737 176.952 111.354C179.105 109.034 181.749 107.886 184.884 107.886C185.376 107.956 185.82 108.097 186.218 108.308C186.499 108.448 186.803 108.565 187.131 108.659H187.201C187.365 108.659 187.529 108.589 187.669 108.472C187.786 108.401 187.879 108.354 187.973 108.308C188.16 108.261 188.324 108.237 188.511 108.237C189.12 108.237 189.588 108.519 189.962 109.104C190.173 109.644 190.266 110.183 190.266 110.745C190.266 111.097 190.243 111.448 190.149 111.823C189.798 113.534 189.237 115.151 188.511 116.722C188.394 116.979 188.277 117.261 188.16 117.542C191.436 116.159 194.338 114.214 196.865 111.729L196.888 111.706C197.543 111.073 198.175 110.417 198.76 109.761C198.783 109.737 198.783 109.714 198.807 109.69C198.994 109.386 199.251 109.245 199.555 109.245H199.672C199.906 109.362 200 109.526 200 109.737C200 109.878 199.93 110.089 199.789 110.394C199.649 110.698 199.485 110.956 199.275 111.167C197.964 112.737 196.467 114.097 194.805 115.292C193.285 116.417 191.647 117.401 189.939 118.269C189.681 118.386 189.377 118.526 189.026 118.644C188.277 118.878 187.669 119.206 187.178 119.628C186.827 120.026 186.546 120.519 186.288 121.081C186.171 121.315 186.054 121.55 185.937 121.761C185.189 123.05 184.393 124.292 183.551 125.511C181.024 129.284 177.935 132.519 174.308 135.214C173.77 135.612 173.208 135.964 172.624 136.315C171.196 137.206 169.535 137.769 167.616 137.979C167.429 138.003 167.242 138.003 167.055 138.003C165.417 138.003 164.223 137.183 163.475 135.542C163.287 134.956 163.194 134.394 163.194 133.854C163.194 132.612 163.498 131.464 164.083 130.409C164.668 129.354 165.393 128.417 166.259 127.573C169.512 124.714 173.208 122.675 177.397 121.479C177.888 121.315 178.45 121.151 179.058 121.011C180.298 120.753 181.351 120.354 182.24 119.792C182.685 119.37 183.013 118.808 183.27 118.128C183.364 117.94 183.434 117.776 183.504 117.636C183.761 117.144 184.019 116.628 184.276 116.136C184.861 115.034 185.423 113.909 185.914 112.761ZM185.446 110.792C183.878 111.214 182.311 111.987 180.79 113.136C179.269 114.261 178.403 115.69 178.146 117.448C179.573 116.769 180.79 115.808 181.866 114.519C182.123 114.214 182.381 113.956 182.638 113.698C182.919 113.417 183.2 113.159 183.481 112.878C184.229 112.245 184.884 111.542 185.446 110.792ZM181.234 121.667C180.088 121.878 178.941 122.229 177.795 122.698C177.49 122.792 177.21 122.886 176.929 123.003C173.068 124.081 169.769 126.073 167.055 128.979C165.955 130.292 165.393 131.792 165.323 133.479V133.737C165.323 134.37 165.51 134.909 165.908 135.401C166.165 135.542 166.446 135.636 166.727 135.636C166.961 135.636 167.218 135.565 167.476 135.448C168.739 135.003 169.886 134.347 170.939 133.503C174.051 131.159 176.718 128.394 178.965 125.229C179.105 125.019 179.245 124.831 179.386 124.644C180.111 123.706 180.743 122.722 181.234 121.667Z" fill="#E2CEC7"/>
<path d="M57.9597 102.504C57.8532 102.504 57.7361 102.483 57.6083 102.44C57.4166 102.419 57.2675 102.291 57.161 102.056L57.1291 101.864C57.0865 101.523 57.0652 101.277 57.0652 101.128V82.504C57.0652 82.2907 57.0865 81.9707 57.1291 81.544C57.1504 81.3947 57.2143 81.2773 57.3208 81.192C57.4486 81.0853 57.5976 81.0213 57.768 81H58.4709C58.9394 81.0213 59.6529 81.032 60.6113 81.032L62.2725 81.064C62.8263 81.1067 63.2203 81.128 63.4546 81.128C63.7954 81.1493 64.1361 81.2347 64.4769 81.384C65.6909 81.96 66.5534 82.856 67.0646 84.072C67.1711 84.3067 67.2669 84.68 67.3521 85.192C67.4586 86.024 67.5012 86.7387 67.4799 87.336C67.4799 88.104 67.3628 88.872 67.1285 89.64C67.0433 89.9173 66.8516 90.312 66.5535 90.824L66.3298 91.176C66.2446 91.3253 66.202 91.4747 66.202 91.624C66.202 91.816 66.2766 91.9973 66.4257 92.168C66.6386 92.488 66.809 92.776 66.9368 93.032C67.2563 93.6933 67.416 94.3973 67.416 95.144C67.416 96.2107 67.4054 97.0107 67.3841 97.544C67.3841 98.248 67.2882 98.856 67.0965 99.368C66.7345 100.349 66.0636 101.16 65.0839 101.8C64.5514 102.12 64.019 102.323 63.4865 102.408C63.231 102.472 62.9754 102.504 62.7198 102.504H57.9597ZM61.0266 101.448C61.197 101.427 61.2822 101.32 61.2822 101.128L61.1544 101.064V101.288C61.1331 101.309 61.1012 101.331 61.0586 101.352C61.016 101.373 61.0053 101.405 61.0266 101.448ZM61.4739 101.384L61.3461 101.416L61.2822 101.512C61.3035 101.512 61.3141 101.523 61.3141 101.544C61.3354 101.544 61.3567 101.555 61.378 101.576L61.4739 101.384ZM62.3045 102.12C62.3258 102.099 62.3577 102.077 62.4003 102.056C62.4642 102.035 62.5068 101.992 62.5281 101.928C62.4642 101.949 62.3897 101.96 62.3045 101.96V102.12ZM62.0809 101.544C62.1874 101.437 62.1874 101.341 62.0809 101.256L61.9211 101.544H62.0809ZM62.592 101.416C62.6985 101.416 62.7731 101.405 62.8157 101.384C62.8369 101.384 62.8476 101.373 62.8476 101.352L62.8795 101.192L62.9115 101C62.7837 101.043 62.7092 101.064 62.6879 101.064L62.8157 101.32L62.5601 101.352L62.592 101.416ZM62.2725 100.808C62.2725 100.637 62.3258 100.563 62.4323 100.584C62.4323 100.648 62.4429 100.701 62.4642 100.744L62.5281 100.776L62.5601 100.68C62.5601 100.637 62.5494 100.616 62.5281 100.616L62.4323 100.584L62.3684 100.456C62.2193 100.541 62.1341 100.616 62.1128 100.68L62.2725 100.808ZM62.5601 99.688C63.0925 99.688 63.593 99.4747 64.0616 99.048C64.4449 98.664 64.6366 98.1733 64.6366 97.576V96.776C64.6366 96.584 64.6366 96.36 64.6366 96.104C64.6579 95.8267 64.6579 95.5067 64.6366 95.144C64.6366 94.4613 64.3172 93.8747 63.6782 93.384C63.4865 93.2347 63.3055 93.16 63.1351 93.16C62.9434 93.1173 62.6559 93.0747 62.2725 93.032H60.5155C60.1534 93.0533 59.9404 93.2453 59.8765 93.608C59.8339 93.8213 59.8126 93.9707 59.8126 94.056V98.76C59.8126 98.8667 59.8339 99.0267 59.8765 99.24C59.9404 99.496 60.0789 99.6347 60.2918 99.656L60.6432 99.688H62.5601ZM66.4576 99.272C66.5002 99.2507 66.5641 99.24 66.6493 99.24L66.6173 99.112L66.4576 99.208V99.272ZM65.4673 97.672C65.5311 97.7573 65.595 97.7787 65.6589 97.736C65.7228 97.6933 65.7761 97.672 65.8187 97.672C65.84 97.672 65.8613 97.6827 65.8826 97.704C65.9252 97.7253 65.9571 97.7147 65.9784 97.672C65.9358 97.5867 65.8932 97.4587 65.8506 97.288C65.7867 97.224 65.7441 97.2027 65.7228 97.224L65.5311 97.512C65.5524 97.5333 65.5737 97.5547 65.595 97.576C65.6163 97.5973 65.6163 97.6187 65.595 97.64C65.5737 97.6613 65.5311 97.672 65.4673 97.672ZM66.5535 97.896C66.5747 97.8533 66.6067 97.8 66.6493 97.736C66.7132 97.6507 66.7451 97.5653 66.7451 97.48L66.3937 97.384C66.3937 97.5547 66.3831 97.672 66.3618 97.736L66.4576 97.896L66.234 97.992C66.3405 98.056 66.4044 98.1093 66.4257 98.152L66.6812 98.184L66.5535 97.896ZM66.3298 97.512L66.2659 97.256C66.2446 97.256 66.2233 97.2453 66.202 97.224C66.1807 97.1813 66.1488 97.1707 66.1062 97.192C66.0849 97.2133 66.0742 97.256 66.0742 97.32C66.0742 97.3627 66.0849 97.4053 66.1062 97.448C66.1275 97.4907 66.1488 97.5333 66.1701 97.576L66.3298 97.512ZM58.407 89.256L58.1514 89.096L58.0555 89.256H58.407ZM58.5028 88.712L58.3431 88.616C58.3005 88.5307 58.2579 88.4667 58.2153 88.424L58.0555 88.52L58.1833 88.552C58.1833 88.5733 58.194 88.616 58.2153 88.68C58.2366 88.744 58.2792 88.7867 58.3431 88.808L58.5028 88.712ZM59.1098 89.352C59.1311 89.352 59.163 89.3307 59.2056 89.288C59.2056 89.2667 59.1843 89.2347 59.1417 89.192C59.0991 89.2347 59.0778 89.256 59.0778 89.256C59.0778 89.256 59.0565 89.2773 59.014 89.32C59.0353 89.32 59.0565 89.3307 59.0778 89.352C59.0991 89.352 59.1098 89.352 59.1098 89.352ZM66.7132 96.36L66.6493 96.264L66.5215 96.424L66.3298 96.392C66.3298 96.456 66.3724 96.488 66.4576 96.488L66.6493 96.52L66.7132 96.36ZM62.5281 90.184C62.6133 90.184 62.7624 90.1627 62.9754 90.12C63.4439 90.0133 63.838 89.768 64.1574 89.384C64.4769 89 64.6366 88.5307 64.6366 87.976V86.088C64.6366 85.704 64.5834 85.3947 64.4769 85.16C64.2 84.4773 63.7208 84.072 63.0393 83.944C62.6133 83.8587 62.2725 83.816 62.017 83.816H60.4516C60.1321 83.8373 59.9404 84.0187 59.8765 84.36C59.8339 84.5307 59.8126 84.6693 59.8126 84.776V89.256C59.8126 89.448 59.8446 89.6293 59.9085 89.8C59.9724 89.992 60.0895 90.0987 60.2599 90.12C60.4729 90.1627 60.622 90.184 60.7071 90.184H62.5281ZM63.838 83.208C63.8806 83.144 63.8912 83.0907 63.8699 83.048C63.8699 82.984 63.838 82.9307 63.7741 82.888L63.6463 83.016L63.838 83.208Z" fill="black"/>
<path d="M81.4081 102.792C81.0673 102.792 80.8224 102.632 80.6733 102.312C80.5881 102.141 80.5348 102.013 80.5135 101.928C80.3645 101.48 80.0343 100.477 79.5232 98.92C79.0546 97.5547 78.7139 96.5307 78.5009 95.848C78.3731 95.4 78.0749 95.0693 77.6064 94.856C77.3295 94.7493 77.0739 94.696 76.8396 94.696C76.7119 94.696 76.616 94.7067 76.5521 94.728C76.3391 94.792 76.1688 94.8773 76.041 94.984C75.9132 95.1973 75.8493 95.464 75.8493 95.784V101.544C75.8493 101.693 75.828 101.917 75.7854 102.216C75.7641 102.429 75.615 102.568 75.3381 102.632C75.2103 102.675 75.0932 102.696 74.9867 102.696C74.4756 102.696 74.0922 102.685 73.8366 102.664C73.7301 102.664 73.6556 102.653 73.613 102.632C73.4426 102.589 73.3148 102.536 73.2296 102.472C73.1657 102.387 73.1231 102.259 73.1018 102.088C73.0805 101.981 73.0699 101.811 73.0699 101.576V82.28C73.0699 82.1093 73.0805 81.9813 73.1018 81.896C73.1231 81.5973 73.2829 81.416 73.581 81.352C73.6662 81.3307 73.7727 81.32 73.9005 81.32H78.4689C79.7042 81.3627 80.7691 81.7467 81.6636 82.472C82.473 83.1333 82.9948 84.008 83.229 85.096C83.2929 85.3947 83.3462 85.8427 83.3888 86.44C83.4101 86.6747 83.4207 87.0373 83.4207 87.528V88.584C83.4207 89.3947 83.3994 90.0027 83.3568 90.408C83.2929 91.3253 82.9735 92.136 82.3984 92.84C82.1215 93.1813 81.8234 93.4693 81.5039 93.704C81.4613 93.768 81.4081 93.8213 81.3442 93.864C81.1525 94.0347 81.0566 94.2587 81.0566 94.536C81.0566 94.664 81.0673 94.76 81.0886 94.824L81.1844 95.176L82.2706 98.344L82.7179 99.72L83.2929 101.48C83.4207 101.864 83.474 102.152 83.4527 102.344C83.4527 102.429 83.442 102.483 83.4207 102.504C83.3355 102.696 83.1439 102.792 82.8457 102.792C82.5262 102.813 82.2493 102.813 82.0151 102.792C81.7808 102.792 81.5784 102.792 81.4081 102.792ZM74.7311 101.96C74.7098 101.96 74.6779 101.939 74.6353 101.896L74.6033 101.704C74.5182 101.64 74.433 101.608 74.3478 101.608C74.3052 101.608 74.22 101.565 74.0922 101.48C74.1135 101.416 74.1241 101.277 74.1241 101.064L74.3158 101.288H74.4117V101.096L74.4436 101.064L74.6992 101.096C74.6779 101.16 74.6672 101.267 74.6672 101.416C74.6672 101.437 74.6459 101.469 74.6033 101.512L74.795 101.768C74.795 101.811 74.7737 101.875 74.7311 101.96ZM74.6672 102.248C74.7098 102.227 74.7418 102.227 74.7631 102.248C74.8057 102.248 74.8483 102.248 74.8909 102.248C74.9122 102.227 74.9867 102.184 75.1145 102.12C75.1571 102.141 75.189 102.173 75.2103 102.216C75.2316 102.237 75.2636 102.237 75.3062 102.216V101.928C75.2849 101.949 75.2529 101.96 75.2103 101.96C75.189 101.96 75.1677 101.971 75.1465 101.992L74.9867 101.896C74.9867 101.832 74.9974 101.789 75.0187 101.768H75.1465C75.1465 101.661 75.1571 101.587 75.1784 101.544L75.2742 101.288C75.1677 101.288 75.1145 101.224 75.1145 101.096H74.9548V100.968L74.795 101L74.6992 101.096C74.6992 101.053 74.6885 100.989 74.6672 100.904C74.6672 100.819 74.6779 100.744 74.6992 100.68L74.795 100.744C74.795 100.744 74.8057 100.765 74.827 100.808C74.8483 100.829 74.8696 100.829 74.8909 100.808C74.8909 100.744 74.9015 100.701 74.9228 100.68C74.9654 100.68 75.0187 100.701 75.0826 100.744C75.1464 100.787 75.1997 100.787 75.2423 100.744C75.2423 100.723 75.2103 100.691 75.1465 100.648C75.1039 100.584 75.0932 100.531 75.1145 100.488L75.2103 100.52C75.2103 100.392 75.221 100.296 75.2423 100.232L75.0187 100.136C74.9335 100.179 74.8802 100.2 74.8589 100.2C74.8589 100.179 74.8589 100.147 74.8589 100.104C74.8802 100.04 74.8802 99.9867 74.8589 99.944C74.795 100.008 74.7631 100.051 74.7631 100.072C74.7631 100.093 74.795 100.136 74.8589 100.2L75.0506 100.36L74.795 100.52L74.6353 100.328C74.5288 100.328 74.4543 100.339 74.4117 100.36L74.3158 100.168C74.2519 100.189 74.2413 100.243 74.2839 100.328C74.3265 100.477 74.3158 100.605 74.2519 100.712C74.2093 100.776 74.1561 100.797 74.0922 100.776V100.552L73.9964 100.52C73.9751 100.563 73.9644 100.616 73.9644 100.68C73.9644 100.744 74.007 100.84 74.0922 100.968L73.9644 101.256C74.007 101.341 74.0283 101.373 74.0283 101.352C73.9857 101.501 73.8792 101.597 73.7088 101.64L73.8366 101.864C73.794 101.928 73.794 101.971 73.8366 101.992L73.9964 101.928C74.188 102.035 74.3052 102.141 74.3478 102.248V102.184C74.3478 102.163 74.3371 102.12 74.3158 102.056C74.3158 101.971 74.3584 101.907 74.4436 101.864L74.4756 102.056C74.4969 102.077 74.4969 102.12 74.4756 102.184C74.4543 102.227 74.4649 102.259 74.5075 102.28L74.6672 102.248ZM75.434 101.128L75.3381 101.032L75.2423 101.192C75.2423 101.192 75.2423 101.203 75.2423 101.224C75.2423 101.224 75.2529 101.224 75.2742 101.224L75.434 101.128ZM75.2103 99.816C75.189 99.7307 75.1677 99.6773 75.1465 99.656C75.1252 99.6133 75.0826 99.592 75.0187 99.592C75.04 99.6347 75.1039 99.7093 75.2103 99.816ZM74.7631 99.112C74.7844 99.0267 74.795 98.9307 74.795 98.824L74.7311 98.792L74.6033 99.08C74.6672 99.08 74.7205 99.0907 74.7631 99.112ZM75.3062 99.368H75.1784C75.2849 99.4747 75.3914 99.5387 75.4979 99.56L75.3062 99.368ZM74.9548 99.048C75.0826 98.9627 75.1784 98.9093 75.2423 98.888L75.1145 98.824C75.1145 98.7813 75.1252 98.7493 75.1465 98.728H75.1784C75.2423 98.728 75.2849 98.7173 75.3062 98.696C75.3488 98.6747 75.3914 98.6533 75.434 98.632C75.2423 98.6107 75.1358 98.6427 75.1145 98.728H75.0187C75.0187 98.7493 74.9974 98.792 74.9548 98.856C74.9335 98.8987 74.9335 98.9627 74.9548 99.048ZM79.9385 97.704C79.832 97.6187 79.7468 97.6293 79.6829 97.736L79.7788 97.832L79.9385 97.704ZM81.472 92.36C81.3868 92.2533 81.3122 92.2533 81.2483 92.36H81.472ZM80.9928 91.816C81.0779 91.8373 81.1418 91.7947 81.1844 91.688L81.0566 91.592C81.014 91.72 80.9928 91.7947 80.9928 91.816ZM81.1844 91.368C81.2483 91.4107 81.3229 91.4107 81.4081 91.368C81.3016 91.304 81.227 91.304 81.1844 91.368ZM76.9674 92.008C77.0952 91.9867 77.255 91.976 77.4466 91.976C77.6596 91.976 77.83 91.9653 77.9578 91.944H78.5328C78.7884 91.944 79.0546 91.8907 79.3315 91.784C79.9492 91.5707 80.3432 91.1227 80.5135 90.44L80.5774 89.704L80.6733 88.072C80.6733 87.3253 80.6626 86.76 80.6413 86.376L80.5774 85.8C80.3858 84.9893 79.8959 84.4773 79.1079 84.264C78.9588 84.2 78.6926 84.1467 78.3092 84.104H77.9897C77.8406 84.104 77.7342 84.0933 77.6703 84.072C77.649 84.0507 77.6064 84.0507 77.5425 84.072C77.4999 84.072 77.4679 84.072 77.4466 84.072L76.9355 84.104C76.8077 84.1253 76.6267 84.136 76.3924 84.136C76.1155 84.136 75.9451 84.2747 75.8812 84.552C75.8599 84.616 75.8493 84.7013 75.8493 84.808V91.272C75.8493 91.5707 75.9558 91.784 76.1688 91.912C76.4243 92.0187 76.6906 92.0507 76.9674 92.008ZM75.402 82.632C75.4659 82.6107 75.5192 82.5893 75.5618 82.568C75.6257 82.5467 75.6789 82.5253 75.7215 82.504L75.6895 82.312L75.5937 82.44H75.402V82.632ZM77.2869 83.144C77.2656 83.08 77.2443 83.0373 77.223 83.016C77.223 82.9733 77.2124 82.9413 77.1911 82.92H77.0952L77.2869 83.144ZM76.7757 82.6C76.797 82.472 76.7651 82.3973 76.6799 82.376C76.6586 82.376 76.6267 82.3973 76.5841 82.44C76.6267 82.4613 76.6906 82.5147 76.7757 82.6ZM82.3345 87.144C82.228 87.1013 82.1535 87.08 82.1109 87.08C82.0683 87.08 82.0044 87.112 81.9192 87.176L82.1748 87.208C82.1961 87.2293 82.2174 87.24 82.2387 87.24C82.2813 87.24 82.3132 87.2507 82.3345 87.272V87.144ZM81.6636 86.856C81.7062 86.856 81.7701 86.8347 81.8553 86.792L81.6317 86.568C81.6317 86.6533 81.6317 86.7173 81.6317 86.76C81.653 86.8027 81.6636 86.8347 81.6636 86.856ZM78.1175 82.632C78.2453 82.504 78.256 82.408 78.1495 82.344L78.0856 82.44C78.0856 82.5253 78.0962 82.5893 78.1175 82.632ZM82.4304 86.664L82.4623 86.568C82.3345 86.568 82.2387 86.5573 82.1748 86.536L82.2706 86.28L82.1428 86.184C82.1003 86.2267 82.079 86.2587 82.079 86.28L81.8553 86.376C81.8979 86.4187 81.9618 86.4613 82.047 86.504L82.1748 86.696L82.4304 86.664ZM82.8776 86.792L82.5901 86.696V86.856L82.8776 86.792ZM81.6956 85.544C81.7808 85.544 81.8553 85.5333 81.9192 85.512L81.8234 85.384C81.7382 85.384 81.6956 85.4373 81.6956 85.544ZM81.8553 85.096L81.7595 85.032C81.6317 85.096 81.5465 85.1493 81.5039 85.192C81.4826 85.2133 81.472 85.2667 81.472 85.352L81.8553 85.096ZM80.5135 83.688C80.471 83.5173 80.4496 83.4213 80.4496 83.4C80.4496 83.4853 80.471 83.5813 80.5135 83.688ZM81.472 84.328C81.5359 84.264 81.5252 84.2107 81.44 84.168C81.44 84.168 81.4294 84.1893 81.4081 84.232C81.3868 84.2747 81.4081 84.3067 81.472 84.328ZM81.1525 83.784C81.1099 83.7413 81.0886 83.7093 81.0886 83.688C81.0034 83.7307 80.9608 83.784 80.9608 83.848L81.1525 83.784Z" fill="black"/>
<path d="M97.4604 102.6C97.2262 102.6 97.0345 102.536 96.8854 102.408C96.7363 102.28 96.6405 102.109 96.5979 101.896L96.1826 99.912L96.1187 99.72C95.9909 99.3787 95.7566 99.208 95.4158 99.208H92.3809C92.0188 99.208 91.7739 99.3893 91.6461 99.752C91.6035 99.9227 91.5609 100.136 91.5183 100.392L91.2308 101.8C91.2308 101.864 91.2201 101.917 91.1988 101.96C91.1349 102.173 91.0391 102.323 90.9113 102.408C90.8048 102.493 90.6451 102.547 90.4321 102.568L89.7612 102.6L89.1223 102.568C88.8667 102.568 88.6644 102.504 88.5153 102.376C88.4514 102.269 88.4194 102.088 88.4194 101.832L88.6111 100.776L89.1862 97.896L90.0807 93.384L90.8474 89.416C91.0178 88.584 91.2521 87.336 91.5502 85.672L92.285 81.928C92.285 81.8213 92.317 81.7253 92.3809 81.64C92.4874 81.3413 92.6897 81.1707 92.9879 81.128C93.0518 81.1067 93.1369 81.096 93.2434 81.096H94.5852C94.8195 81.096 95.0112 81.16 95.1603 81.288C95.3306 81.416 95.4371 81.5867 95.4797 81.8C95.6714 82.7173 95.7886 83.3467 95.8311 83.688C96.2571 85.736 96.534 87.1333 96.6618 87.88L97.6202 92.808L98.3869 96.776L99.3453 101.544C99.3879 101.757 99.4092 101.907 99.4092 101.992C99.3879 102.312 99.1856 102.504 98.8022 102.568C98.7383 102.589 98.6851 102.6 98.6425 102.6C98.5999 102.579 98.5573 102.568 98.5147 102.568C98.0461 102.568 97.6947 102.579 97.4604 102.6ZM90.2404 101.096C90.2191 100.989 90.1552 100.925 90.0487 100.904C90.0061 100.947 89.9742 100.989 89.9529 101.032C89.9529 101.075 89.9742 101.128 90.0168 101.192L90.2404 101.096ZM91.0071 100.072C91.0284 100.072 91.0497 100.083 91.071 100.104C91.0923 100.104 91.1136 100.093 91.1349 100.072C91.071 99.9653 90.9858 99.944 90.8793 100.008L90.8474 100.104L91.0071 100.072ZM90.5599 99.592C90.6025 99.5493 90.6664 99.5067 90.7516 99.464C90.7729 99.4427 90.7942 99.4107 90.8155 99.368C90.8368 99.3253 90.8687 99.304 90.9113 99.304C90.9326 99.304 90.9433 99.2933 90.9433 99.272L91.071 99.016L90.6877 99.144L90.7196 99.272L90.5279 99.56C90.5492 99.56 90.5599 99.5707 90.5599 99.592ZM90.5918 97.544C90.5918 97.544 90.496 97.48 90.3043 97.352L90.2404 97.416V97.512C90.2617 97.512 90.3043 97.5333 90.3682 97.576C90.4321 97.6187 90.5066 97.608 90.5918 97.544ZM91.6461 98.792C91.7526 98.856 91.8271 98.8347 91.8697 98.728L91.6461 98.632V98.792ZM90.5599 97.256C90.5599 97.256 90.5812 97.2347 90.6238 97.192L90.5279 97.096L90.3043 97.224L90.5599 97.256ZM91.7419 98.248C91.7419 98.1627 91.71 98.056 91.6461 97.928L91.5822 98.152H91.4544V98.216L91.71 98.28L91.7419 98.248ZM91.9975 98.632C92.0827 98.632 92.1359 98.6213 92.1572 98.6C92.1785 98.5787 92.1892 98.5253 92.1892 98.44H91.9975V98.632ZM91.4544 97.928C91.5822 97.8853 91.6567 97.864 91.678 97.864C91.6141 97.8 91.5502 97.7467 91.4863 97.704C91.4225 97.6613 91.3692 97.6187 91.3266 97.576V97.608C91.3266 97.6507 91.3479 97.704 91.3905 97.768C91.4331 97.832 91.4544 97.8853 91.4544 97.928ZM92.2211 98.184C92.1998 98.1413 92.1892 98.0773 92.1892 97.992H92.1253C92.0827 98.0773 92.0614 98.152 92.0614 98.216C92.0401 98.216 91.9868 98.2373 91.9017 98.28C91.9443 98.3013 92.0081 98.3333 92.0933 98.376C92.1998 98.3973 92.285 98.3867 92.3489 98.344L92.2211 98.184ZM92.1253 97.864C92.1466 97.864 92.1572 97.864 92.1572 97.864C92.1785 97.8427 92.1998 97.832 92.2211 97.832L92.1892 97.64L92.0294 97.544L91.8378 97.576C91.8378 97.576 91.7526 97.4907 91.5822 97.32L91.6141 97.64C91.6354 97.64 91.678 97.6507 91.7419 97.672C91.8058 97.672 91.8591 97.6933 91.9017 97.736C91.9443 97.7573 91.9762 97.7787 91.9975 97.8C92.0401 97.8213 92.0827 97.8427 92.1253 97.864ZM90.7196 96.008H90.496L90.6557 96.2L90.7196 96.008ZM92.2531 97.224L92.0614 97.32C92.0614 97.3413 92.0933 97.416 92.1572 97.544L92.2531 97.224ZM92.2211 96.968V96.744L91.9336 96.552L91.8058 96.808C91.8058 96.808 91.8378 96.84 91.9017 96.904L92.0614 96.84L92.0933 97.064L92.2211 96.968ZM91.71 96.328C91.7313 96.2427 91.8058 96.2213 91.9336 96.264L91.8058 96.072C91.7419 96.1147 91.6461 96.1253 91.5183 96.104C91.4118 96.0613 91.3266 96.0613 91.2627 96.104C91.3053 96.168 91.3692 96.2 91.4544 96.2C91.5609 96.2 91.6354 96.2107 91.678 96.232L91.71 96.328C91.6887 96.328 91.6567 96.328 91.6141 96.328C91.5715 96.328 91.5502 96.36 91.5502 96.424L91.6141 96.552L91.71 96.328ZM93.6587 98.76C93.68 98.76 93.712 98.7387 93.7546 98.696C93.7759 98.7173 93.8291 98.728 93.9143 98.728L94.0421 98.632L94.106 98.696C94.1486 98.6533 94.1699 98.6213 94.1699 98.6C94.1273 98.5573 94.1166 98.5147 94.1379 98.472C94.1592 98.408 94.1699 98.3653 94.1699 98.344L93.7226 98.088L93.6907 98.024L93.7865 97.864L93.6268 97.768C93.712 97.576 93.8185 97.4587 93.9463 97.416C93.9037 97.3093 93.8504 97.2667 93.7865 97.288C93.7226 97.288 93.68 97.288 93.6587 97.288L93.5629 97.032C93.4777 97.032 93.4245 97.064 93.4032 97.128C93.3819 97.192 93.3712 97.2347 93.3712 97.256C93.4351 97.2773 93.5416 97.288 93.6907 97.288C93.6907 97.4587 93.6481 97.576 93.5629 97.64L93.4671 97.672C93.4671 97.6507 93.4564 97.6293 93.4351 97.608C93.4138 97.5867 93.3925 97.5653 93.3712 97.544L93.6268 97.416L93.499 97.384C93.4351 97.384 93.3712 97.4053 93.3073 97.448C93.2434 97.4693 93.1902 97.48 93.1476 97.48C93.1263 97.48 93.1156 97.4907 93.1156 97.512C93.1156 97.5333 93.105 97.5547 93.0837 97.576C93.105 97.5973 93.1476 97.6293 93.2115 97.672C93.2967 97.6933 93.3499 97.736 93.3712 97.8C93.3712 97.9493 93.2754 98.0667 93.0837 98.152C93.1902 98.1947 93.2434 98.2373 93.2434 98.28C93.2647 98.3013 93.2647 98.3653 93.2434 98.472C93.2434 98.472 93.2008 98.4293 93.1156 98.344L92.9879 98.28L92.892 98.088C92.8707 98.0453 92.8601 97.992 92.8601 97.928L92.924 97.704L92.7962 97.64C92.7749 97.5973 92.7536 97.5333 92.7323 97.448C92.711 97.3413 92.679 97.2667 92.6364 97.224H92.4767C92.5193 97.2667 92.5406 97.3307 92.5406 97.416C92.5619 97.5013 92.5938 97.5653 92.6364 97.608L92.6045 97.672L92.3489 97.608L92.317 97.8C92.4448 97.7573 92.5193 97.736 92.5406 97.736V97.992L92.6364 98.248C92.7003 98.248 92.7429 98.2587 92.7642 98.28V98.504H93.0198L93.3073 98.76H93.6587ZM97.3646 101.832C97.4498 101.875 97.4924 101.843 97.4924 101.736L97.3327 101.64C97.3327 101.725 97.3433 101.789 97.3646 101.832ZM92.5406 97C92.6045 97.064 92.6577 97.096 92.7003 97.096C92.7642 97.096 92.8494 97.0533 92.9559 96.968C92.7642 96.968 92.6258 96.9787 92.5406 97ZM91.2627 95.656C91.3479 95.72 91.4118 95.752 91.4544 95.752C91.497 95.752 91.5502 95.72 91.6141 95.656L91.3905 95.624L91.2627 95.656ZM98.1633 101.704L97.9716 101.736L98.0355 101.928L98.2591 101.96L98.1633 101.704ZM91.4863 94.952L91.4544 94.92L91.3905 95.048C91.3905 95.0907 91.3692 95.1547 91.3266 95.24C91.3479 95.24 91.4225 95.2613 91.5502 95.304L91.4863 94.952ZM94.7769 98.76C94.7982 98.7387 94.8195 98.728 94.8408 98.728C94.8834 98.728 94.9153 98.7173 94.9366 98.696C94.9579 98.696 94.9792 98.7067 95.0005 98.728C95.0218 98.7493 95.0431 98.7493 95.0644 98.728C95.0431 98.6 95.0005 98.4827 94.9366 98.376H94.9047C94.926 98.3333 94.9686 98.3227 95.0325 98.344H95.1283L95.0005 98.184L94.8088 98.216L94.7769 98.088C94.7343 98.1307 94.6811 98.184 94.6172 98.248C94.5746 98.2907 94.5533 98.344 94.5533 98.408C94.5959 98.4507 94.6278 98.472 94.6491 98.472C94.6065 98.5573 94.5852 98.6213 94.5852 98.664L94.7769 98.76ZM94.2657 98.184C94.3722 98.184 94.4681 98.152 94.5533 98.088V97.96C94.5746 97.9387 94.5959 97.928 94.6172 97.928C94.6598 97.928 94.6917 97.9173 94.713 97.896L94.5852 97.672L94.713 97.512C94.6704 97.4693 94.6278 97.416 94.5852 97.352C94.5639 97.288 94.5213 97.224 94.4574 97.16L94.2977 97.576L94.3935 97.736L94.2977 97.832L94.1699 97.672L93.9463 97.768L93.8824 98.088C93.9463 98.024 93.9782 97.992 93.9782 97.992L94.0421 97.896C94.106 97.9173 94.1273 97.9707 94.106 98.056C94.106 98.12 94.1166 98.1627 94.1379 98.184H94.2657ZM98.6744 101.768C98.6318 101.683 98.5573 101.651 98.4508 101.672L98.6105 101.896L98.6744 101.768ZM95.5117 98.568C95.5543 98.632 95.5862 98.6747 95.6075 98.696C95.6288 98.696 95.6608 98.664 95.7034 98.6L95.5117 98.568ZM91.3905 94.312C91.3692 94.2693 91.316 94.2053 91.2308 94.12C91.2521 94.184 91.2627 94.2587 91.2627 94.344L91.3905 94.312ZM95.32 98.024L95.2242 97.928C95.1177 97.992 95.0964 98.0667 95.1603 98.152L95.32 98.024ZM95.1283 97.736L95.0005 97.576L94.9047 97.704L95.0964 97.8L95.1283 97.736ZM95.895 98.536C95.9802 98.536 96.0548 98.504 96.1187 98.44L96.3103 98.344L96.1187 98.216C96.0761 98.28 96.0761 98.3653 96.1187 98.472C96.0761 98.4507 96.0122 98.44 95.927 98.44C95.8844 98.44 95.8737 98.472 95.895 98.536ZM94.8088 97.352C94.9366 97.352 95.0325 97.3413 95.0964 97.32L95.1283 97.192C95.0218 97.0853 94.9047 97.0747 94.7769 97.16C94.7769 97.2453 94.7875 97.3093 94.8088 97.352ZM97.3327 99.912C97.3753 99.912 97.4178 99.9013 97.4604 99.88C97.5243 99.8587 97.5882 99.8587 97.6521 99.88C97.6947 99.9013 97.7373 99.8907 97.7799 99.848C97.8012 99.848 97.8119 99.8267 97.8119 99.784L97.6841 99.656L97.5563 99.752L97.4924 99.688L97.2688 99.88L97.3327 99.912ZM97.2688 99.4L97.4285 99.112L97.3966 99.048L97.2688 99.016V99.048C97.2688 99.0907 97.2368 99.144 97.1729 99.208C97.1303 99.272 97.1303 99.336 97.1729 99.4H97.2688ZM96.3423 98.472C96.4914 98.4933 96.5979 98.4613 96.6618 98.376C96.6405 98.3547 96.6192 98.3227 96.5979 98.28C96.5766 98.216 96.5233 98.184 96.4381 98.184L96.3423 98.472ZM95.8631 97.512C95.8205 97.448 95.7672 97.4267 95.7034 97.448C95.6608 97.4693 95.6288 97.48 95.6075 97.48V97.512C95.5649 97.6187 95.5969 97.672 95.7034 97.672L95.8631 97.512ZM91.8697 93.416C91.8271 93.4373 91.7739 93.448 91.71 93.448V93.576L91.8697 93.608V93.416ZM97.109 98.856C97.1729 98.8133 97.1942 98.7493 97.1729 98.664C97.1729 98.5787 97.1729 98.5147 97.1729 98.472L97.109 98.28C97.0664 98.3227 97.0451 98.3547 97.0451 98.376C97.0451 98.4187 97.0558 98.472 97.0771 98.536C97.0984 98.6 97.0771 98.6427 97.0132 98.664C96.9919 98.664 96.9493 98.664 96.8854 98.664C96.8215 98.6427 96.747 98.6427 96.6618 98.664C96.7044 98.6853 96.747 98.7067 96.7896 98.728C96.8322 98.7493 96.8747 98.7707 96.9173 98.792C96.9173 98.792 96.928 98.8133 96.9493 98.856C96.9919 98.8987 97.0451 98.8987 97.109 98.856ZM96.3103 97.704L96.2465 97.576L96.0548 97.672C96.0335 97.7573 96.0441 97.864 96.0867 97.992L96.3103 97.704ZM95.7992 97.288C95.8418 97.2027 95.895 97.128 95.9589 97.064C95.8737 97.0427 95.8205 97.0213 95.7992 97V97.288ZM97.6841 98.76V98.472H97.6521C97.6521 98.536 97.6415 98.5787 97.6202 98.6C97.5563 98.664 97.5137 98.7173 97.4924 98.76H97.6841ZM97.2368 98.024C97.2794 97.9813 97.2901 97.9493 97.2688 97.928H97.141C97.141 97.9493 97.1197 97.9813 97.0771 98.024C97.0558 98.0453 97.0558 98.0773 97.0771 98.12L97.2368 98.184V98.024ZM92.4448 93.128C92.4661 93.0427 92.5193 92.9467 92.6045 92.84C92.4554 92.8187 92.2318 92.7653 91.9336 92.68L91.8697 93C91.9336 92.936 91.9868 92.904 92.0294 92.904L92.0933 92.936L92.3489 92.872L92.317 93V93.096C92.3383 93.1173 92.3809 93.128 92.4448 93.128ZM91.7739 92.072C91.71 91.944 91.6141 91.8907 91.4863 91.912L91.3905 92.072C91.5183 92.1147 91.6035 92.136 91.6461 92.136L91.7739 92.072ZM92.0294 92.072L91.9017 91.976C91.8591 92.0187 91.8378 92.0613 91.8378 92.104C91.8378 92.1467 91.8697 92.1893 91.9336 92.232L92.0294 92.072ZM97.5243 97.896C97.5243 97.896 97.6202 97.832 97.8119 97.704V97.64C97.7906 97.64 97.716 97.6187 97.5882 97.576L97.5243 97.896ZM92.2211 92.552C92.285 92.552 92.3489 92.52 92.4128 92.456C92.498 92.3707 92.5619 92.3173 92.6045 92.296L92.5406 92.168L92.4128 91.88C92.3489 91.944 92.317 91.9867 92.317 92.008C92.2957 92.0507 92.285 92.0827 92.285 92.104C92.3063 92.1253 92.317 92.1467 92.317 92.168H92.5406C92.5193 92.1893 92.4661 92.2107 92.3809 92.232C92.2957 92.2533 92.2318 92.2853 92.1892 92.328C92.1679 92.4133 92.1785 92.488 92.2211 92.552ZM92.0933 91.624C92.0507 91.5813 92.0294 91.5493 92.0294 91.528C91.9017 91.528 91.8165 91.5493 91.7739 91.592C91.8378 91.6133 91.9123 91.6667 91.9975 91.752L92.0933 91.624ZM97.6841 97.16C97.7054 97.1813 97.7373 97.192 97.7799 97.192C97.8225 97.192 97.8545 97.1813 97.8757 97.16C97.8332 97.096 97.7799 97.032 97.716 96.968C97.6734 96.904 97.6415 96.84 97.6202 96.776C97.5563 96.776 97.5137 96.7867 97.4924 96.808C97.4711 96.8507 97.4604 96.904 97.4604 96.968C97.5669 97.0747 97.6415 97.1387 97.6841 97.16ZM91.6461 90.984C91.6887 91.0267 91.7313 91.048 91.7739 91.048C91.8165 91.048 91.891 91.0267 91.9975 90.984L91.9017 90.888L91.6461 90.984ZM97.5243 96.68C97.503 96.5947 97.4604 96.488 97.3966 96.36L97.2368 96.456C97.2368 96.52 97.2475 96.552 97.2688 96.552C97.3114 96.552 97.3433 96.552 97.3646 96.552L97.5243 96.68ZM93.4351 96.392C93.6481 96.4133 93.893 96.4133 94.1699 96.392C94.4681 96.3707 94.713 96.36 94.9047 96.36L94.9686 96.328C95.1603 96.2853 95.288 96.1893 95.3519 96.04C95.3945 95.912 95.3945 95.784 95.3519 95.656L94.6811 92.104C94.5959 91.6773 94.4468 91.016 94.2338 90.12C94.2125 89.9493 94.1805 89.8 94.1379 89.672C94.0954 89.544 94.0634 89.4373 94.0421 89.352H93.8504C93.7013 89.5653 93.6161 89.7787 93.5948 89.992L93.4671 90.536C93.1476 91.9867 92.8175 93.6933 92.4767 95.656C92.4767 95.6987 92.4661 95.752 92.4448 95.816C92.4448 95.88 92.4554 95.944 92.4767 96.008C92.5193 96.2213 92.6364 96.328 92.8281 96.328C93.0837 96.3707 93.286 96.392 93.4351 96.392ZM97.141 95.496C97.1623 95.432 97.1942 95.4 97.2368 95.4C97.3007 95.4 97.3327 95.3787 97.3327 95.336C97.2901 95.3147 97.2475 95.304 97.2049 95.304C97.1623 95.304 97.1197 95.3147 97.0771 95.336L97.141 95.496Z" fill="black"/>
<path d="M104.913 102.792C104.807 102.792 104.668 102.771 104.498 102.728C104.263 102.664 104.125 102.515 104.082 102.28L104.019 101.768V82.568C104.019 82.3547 104.029 82.184 104.051 82.056L104.082 81.8C104.146 81.5867 104.274 81.448 104.466 81.384C104.636 81.32 104.807 81.288 104.977 81.288H106.542C106.628 81.288 106.681 81.2987 106.702 81.32C107.064 81.3627 107.298 81.5227 107.405 81.8C107.448 81.864 107.49 81.96 107.533 82.088C107.959 83.3253 108.417 84.7227 108.906 86.28L109.737 88.776L111.143 93.128C111.207 93.3413 111.377 93.7467 111.654 94.344H111.814C111.856 94.2587 111.888 94.152 111.909 94.024C111.931 93.8747 111.941 93.7787 111.941 93.736C111.963 93.5867 111.973 93.3733 111.973 93.096V82.344C111.973 82.1093 111.984 81.9387 112.005 81.832C112.069 81.576 112.218 81.416 112.453 81.352L112.74 81.32C113.038 81.2987 113.294 81.2987 113.507 81.32C113.72 81.32 113.89 81.32 114.018 81.32C114.231 81.32 114.412 81.384 114.561 81.512C114.625 81.64 114.678 81.8213 114.721 82.056C114.742 82.3333 114.753 82.7493 114.753 83.304V101.544L114.721 102.216C114.636 102.557 114.465 102.728 114.21 102.728C114.039 102.771 113.922 102.792 113.858 102.792H112.101C111.633 102.792 111.313 102.568 111.143 102.12C110.972 101.651 110.823 101.224 110.695 100.84L110.025 98.76L109.45 96.936L109.002 95.528C108.747 94.8027 108.566 94.2587 108.459 93.896L107.501 91.016C107.416 90.7387 107.288 90.4827 107.117 90.248H106.958C106.915 90.3333 106.894 90.4507 106.894 90.6C106.83 90.9413 106.798 91.2827 106.798 91.624V101.832C106.798 102.003 106.787 102.131 106.766 102.216C106.723 102.536 106.574 102.707 106.319 102.728C106.148 102.771 106.031 102.792 105.967 102.792H104.913ZM112.133 102.312C112.133 102.227 112.08 102.216 111.973 102.28C112.016 102.365 112.069 102.376 112.133 102.312ZM111.846 101.64L111.782 101.544L111.654 101.768L111.75 101.832L111.846 101.64ZM112.229 101.704C112.357 101.704 112.453 101.693 112.516 101.672C112.516 101.587 112.527 101.523 112.548 101.48C112.548 101.395 112.559 101.331 112.58 101.288L112.325 101.352L112.485 101.608H112.229V101.704ZM112.165 101.064C112.208 101.021 112.218 100.968 112.197 100.904L112.069 100.872C112.069 100.851 112.069 100.84 112.069 100.84C112.091 100.819 112.091 100.797 112.069 100.776C111.878 100.797 111.782 100.861 111.782 100.968C111.824 101.053 111.878 101.075 111.941 101.032C111.941 100.989 111.952 100.957 111.973 100.936C111.995 100.893 112.037 100.872 112.101 100.872C112.101 100.936 112.112 100.989 112.133 101.032L112.165 101.064ZM111.654 100.168C111.697 100.083 111.718 100.008 111.718 99.944C111.718 99.88 111.707 99.8053 111.686 99.72C111.622 99.72 111.569 99.7307 111.526 99.752L111.622 99.944V100.04C111.622 100.04 111.611 100.061 111.59 100.104C111.59 100.125 111.611 100.147 111.654 100.168ZM111.846 100.264C111.867 100.285 111.888 100.296 111.909 100.296C111.931 100.296 111.952 100.285 111.973 100.264V100.104C111.888 100.125 111.846 100.179 111.846 100.264ZM113.092 98.824C113.134 98.7813 113.155 98.728 113.155 98.664C113.155 98.6 113.155 98.5573 113.155 98.536C113.092 98.536 113.049 98.5253 113.028 98.504V98.76L113.092 98.824ZM107.277 89.48C107.235 89.48 107.192 89.48 107.149 89.48C107.128 89.48 107.107 89.5013 107.085 89.544L107.213 89.64L107.277 89.48ZM108.076 89.544C107.991 89.5013 107.905 89.4373 107.82 89.352L107.724 89.512C107.81 89.5333 107.927 89.544 108.076 89.544ZM108.012 89.096C108.055 89.0533 108.108 89.0213 108.172 89C108.15 88.9787 108.108 88.9573 108.044 88.936C108.001 88.8933 107.969 88.84 107.948 88.776C107.948 88.7547 107.937 88.744 107.916 88.744C107.895 88.744 107.873 88.7333 107.852 88.712L107.692 88.808L107.82 88.84C107.842 88.8613 107.863 88.904 107.884 88.968C107.905 89.032 107.948 89.0747 108.012 89.096ZM108.683 89.64C108.725 89.6187 108.789 89.608 108.875 89.608L108.843 89.48C108.821 89.48 108.789 89.4907 108.747 89.512C108.704 89.5333 108.683 89.576 108.683 89.64ZM113.667 94.152C113.73 94.024 113.773 93.9493 113.794 93.928C113.709 93.9493 113.656 93.9707 113.635 93.992C113.635 94.0133 113.645 94.0667 113.667 94.152ZM105.233 84.392L105.328 84.168L105.041 83.912V83.752L104.913 83.688C104.892 83.6667 104.86 83.6453 104.817 83.624C104.796 83.6027 104.764 83.6027 104.721 83.624C104.658 83.7947 104.615 83.9013 104.594 83.944L104.753 84.072L104.913 83.976L105.009 84.04C104.902 84.1467 104.849 84.264 104.849 84.392L105.041 84.616L105.233 84.392ZM105.328 83.656L105.424 83.432L105.296 83.368L105.201 83.656H105.328ZM105.488 84.104C105.552 84.1253 105.659 84.1147 105.808 84.072V83.848L105.935 83.688L105.84 83.56L105.776 83.752H105.648C105.648 83.7947 105.637 83.8373 105.616 83.88C105.616 83.9013 105.605 83.9227 105.584 83.944C105.563 83.944 105.552 83.9333 105.552 83.912C105.552 83.8693 105.531 83.8587 105.488 83.88V84.104ZM104.977 83.24C104.998 83.1973 105.02 83.1547 105.041 83.112C105.083 83.048 105.126 82.984 105.169 82.92C105.105 82.92 105.041 82.92 104.977 82.92C104.913 82.92 104.87 82.9413 104.849 82.984L104.753 83.112L104.977 83.24ZM104.881 82.792C105.052 82.7067 105.179 82.632 105.264 82.568C105.328 82.632 105.382 82.6427 105.424 82.6C105.424 82.5787 105.403 82.5253 105.36 82.44C105.318 82.4613 105.264 82.472 105.201 82.472L105.073 82.376L104.913 82.568L104.881 82.792ZM106.351 82.728H106.255C106.106 82.728 106.031 82.792 106.031 82.92L106.095 82.984L106.351 82.728ZM106.99 82.984L106.926 82.92C106.883 82.92 106.809 82.952 106.702 83.016L106.798 83.08L106.99 82.984ZM113.539 83.432C113.56 83.3467 113.528 83.272 113.443 83.208L113.283 83.304C113.368 83.3893 113.422 83.4533 113.443 83.496L113.539 83.432Z" fill="black"/>
<path d="M121.198 102.792C121.134 102.792 120.995 102.771 120.783 102.728C120.548 102.707 120.41 102.557 120.367 102.28C120.346 102.216 120.335 102.088 120.335 101.896V82.216C120.335 81.9813 120.357 81.8 120.399 81.672C120.484 81.5013 120.591 81.4053 120.719 81.384C120.889 81.3413 121.038 81.32 121.166 81.32H125.638C126.874 81.3627 127.939 81.768 128.833 82.536C129.515 83.112 130.015 83.848 130.335 84.744C130.505 85.32 130.59 85.8747 130.59 86.408V97.832C130.59 99.112 130.154 100.221 129.28 101.16C128.535 101.971 127.609 102.493 126.501 102.728C126.16 102.771 125.905 102.792 125.734 102.792H121.198ZM123.115 101.704C123.242 101.661 123.264 101.597 123.179 101.512L123.019 101.64C123.04 101.661 123.051 101.683 123.051 101.704C123.072 101.704 123.093 101.704 123.115 101.704ZM126.82 100.936C126.82 100.915 126.831 100.904 126.852 100.904L126.693 100.68L126.597 100.776L126.82 100.936ZM127.747 101.544C127.832 101.501 127.885 101.469 127.907 101.448C127.949 101.427 127.949 101.395 127.907 101.352L127.811 101.448C127.79 101.448 127.758 101.437 127.715 101.416C127.694 101.395 127.672 101.405 127.651 101.448L127.747 101.544ZM127.396 100.968C127.459 100.968 127.513 100.957 127.555 100.936L127.683 100.776L127.523 100.744L127.427 100.872L127.396 100.968ZM127.779 101.128C127.822 101.085 127.832 101.053 127.811 101.032C127.811 100.989 127.79 100.947 127.747 100.904L127.715 101.032C127.758 101.075 127.779 101.107 127.779 101.128ZM128.418 100.648C128.524 100.627 128.599 100.563 128.641 100.456C128.599 100.456 128.567 100.445 128.546 100.424L128.418 100.648ZM129.153 99.784C129.131 99.72 129.099 99.6773 129.057 99.656C129.035 99.6347 129.004 99.624 128.961 99.624V99.816L129.153 99.784ZM128.929 99.336C128.972 99.2507 128.95 99.1973 128.865 99.176L128.769 99.272C128.854 99.2933 128.908 99.3147 128.929 99.336ZM129.217 99.528C129.217 99.5067 129.217 99.464 129.217 99.4C129.217 99.336 129.185 99.2933 129.121 99.272C129.078 99.4 129.11 99.4853 129.217 99.528ZM123.945 100.008C124.712 100.008 125.298 99.9973 125.702 99.976C126.32 99.976 126.842 99.7307 127.268 99.24C127.63 98.856 127.811 98.344 127.811 97.704V86.536C127.811 86.2587 127.79 86.056 127.747 85.928C127.662 85.288 127.332 84.7973 126.757 84.456C126.565 84.3493 126.245 84.2533 125.798 84.168C125.33 84.1253 124.978 84.104 124.744 84.104H123.69C123.349 84.104 123.157 84.296 123.115 84.68L123.083 85.416C123.104 85.7573 123.115 86.2587 123.115 86.92V99.464C123.115 99.6347 123.168 99.7733 123.274 99.88C123.423 99.9653 123.647 100.008 123.945 100.008ZM122.476 86.472C122.518 86.408 122.561 86.312 122.603 86.184H122.508C122.486 86.2053 122.465 86.2373 122.444 86.28C122.422 86.3013 122.401 86.344 122.38 86.408L122.476 86.472ZM122.124 85.256C122.124 85.2347 122.114 85.192 122.092 85.128C122.071 85.064 122.018 85.0213 121.933 85C121.89 85.1067 121.869 85.224 121.869 85.352L122.124 85.256ZM122.316 85.192C122.316 85.1707 122.316 85.1387 122.316 85.096C122.316 85.0533 122.273 85.032 122.188 85.032C122.188 85.0747 122.199 85.1173 122.22 85.16C122.241 85.1813 122.273 85.192 122.316 85.192ZM122.54 85.16C122.582 85.1387 122.635 85.128 122.699 85.128C122.742 85 122.721 84.8933 122.635 84.808C122.635 84.8933 122.625 84.936 122.603 84.936C122.54 84.9573 122.508 85 122.508 85.064C122.529 85.0853 122.54 85.1173 122.54 85.16ZM129.025 88.968C129.025 88.9467 129.014 88.936 128.993 88.936L128.865 89L128.961 89.128L129.025 88.968ZM129.76 89.416C129.76 89.352 129.749 89.32 129.728 89.32C129.728 89.2987 129.706 89.288 129.664 89.288C129.621 89.2453 129.6 89.224 129.6 89.224C129.6 89.2027 129.579 89.1707 129.536 89.128C129.515 89.1707 129.493 89.2133 129.472 89.256C129.451 89.2773 129.429 89.2987 129.408 89.32C129.429 89.3413 129.472 89.3733 129.536 89.416C129.6 89.4373 129.674 89.4373 129.76 89.416ZM129.696 89.032C129.738 89.0107 129.802 88.9573 129.887 88.872L129.76 88.84L129.664 89C129.664 89.0213 129.664 89.032 129.664 89.032C129.685 89.032 129.696 89.032 129.696 89.032ZM130.143 88.04C130.1 87.9547 130.068 87.912 130.047 87.912L129.919 88.008L129.76 88.04C129.951 88.168 130.047 88.232 130.047 88.232L130.143 88.04Z" fill="black"/>
<path d="M136.919 102.76C136.493 102.717 136.259 102.472 136.216 102.024L136.184 101.384V82.536L136.216 82.056C136.216 81.992 136.237 81.896 136.28 81.768C136.301 81.576 136.418 81.4373 136.631 81.352C136.802 81.3093 136.94 81.288 137.047 81.288C137.174 81.2667 137.366 81.256 137.622 81.256C137.877 81.256 138.069 81.2667 138.197 81.288C138.261 81.288 138.378 81.3093 138.548 81.352C138.761 81.3733 138.899 81.512 138.963 81.768V102.184C138.921 102.483 138.761 102.664 138.484 102.728L138.133 102.76H136.919ZM137.015 98.792C137.1 98.792 137.153 98.76 137.174 98.696C137.196 98.6107 137.217 98.5573 137.238 98.536C137.26 98.5147 137.291 98.504 137.334 98.504C137.398 98.4827 137.43 98.44 137.43 98.376C137.387 98.376 137.323 98.3547 137.238 98.312C137.196 98.2053 137.142 98.1307 137.078 98.088C137.036 98.024 136.961 97.992 136.855 97.992L136.791 98.12C136.855 98.1413 136.897 98.1627 136.919 98.184C136.961 98.2053 136.993 98.2267 137.015 98.248C137.015 98.248 137.036 98.2267 137.078 98.184L137.174 98.376C137.068 98.5253 137.015 98.664 137.015 98.792ZM137.749 99.048C137.792 99.0053 137.792 98.9627 137.749 98.92C137.728 98.8773 137.717 98.8453 137.717 98.824C137.696 98.8027 137.664 98.792 137.622 98.792C137.6 98.792 137.579 98.7813 137.558 98.76C137.536 98.888 137.579 98.984 137.685 99.048H137.749ZM137.334 90.536V90.472C137.291 90.4507 137.217 90.44 137.11 90.44V90.664L137.334 90.536ZM137.877 89.544L137.685 89.512C137.685 89.5973 137.739 89.6613 137.845 89.704L137.877 89.544ZM137.366 89.064C137.345 89.0427 137.313 89.0107 137.27 88.968C137.249 88.9253 137.217 88.9253 137.174 88.968C137.153 89.032 137.185 89.0853 137.27 89.128L137.366 89.064ZM137.813 88.296C137.771 88.2533 137.707 88.2213 137.622 88.2L137.717 88.52L137.813 88.296ZM138.516 88.2C138.559 88.1147 138.569 88.0613 138.548 88.04L138.42 88.072L138.516 88.2ZM138.356 82.376L138.165 82.184C138.058 82.2267 138.037 82.3013 138.101 82.408L138.356 82.376Z" fill="black"/>
<path d="M145.44 102.792C145.333 102.792 145.195 102.771 145.024 102.728C144.79 102.664 144.652 102.515 144.609 102.28L144.545 101.768V82.568C144.545 82.3547 144.556 82.184 144.577 82.056L144.609 81.8C144.673 81.5867 144.801 81.448 144.992 81.384C145.163 81.32 145.333 81.288 145.504 81.288H147.069C147.154 81.288 147.207 81.2987 147.229 81.32C147.591 81.3627 147.825 81.5227 147.931 81.8C147.974 81.864 148.017 81.96 148.059 82.088C148.485 83.3253 148.943 84.7227 149.433 86.28L150.264 88.776L151.669 93.128C151.733 93.3413 151.904 93.7467 152.18 94.344H152.34C152.383 94.2587 152.415 94.152 152.436 94.024C152.457 93.8747 152.468 93.7787 152.468 93.736C152.489 93.5867 152.5 93.3733 152.5 93.096V82.344C152.5 82.1093 152.511 81.9387 152.532 81.832C152.596 81.576 152.745 81.416 152.979 81.352L153.267 81.32C153.565 81.2987 153.82 81.2987 154.033 81.32C154.246 81.32 154.417 81.32 154.545 81.32C154.758 81.32 154.939 81.384 155.088 81.512C155.152 81.64 155.205 81.8213 155.247 82.056C155.269 82.3333 155.279 82.7493 155.279 83.304V101.544L155.247 102.216C155.162 102.557 154.992 102.728 154.736 102.728C154.566 102.771 154.449 102.792 154.385 102.792H152.628C152.159 102.792 151.84 102.568 151.669 102.12C151.499 101.651 151.35 101.224 151.222 100.84L150.551 98.76L149.976 96.936L149.529 95.528C149.273 94.8027 149.092 94.2587 148.986 93.896L148.027 91.016C147.942 90.7387 147.814 90.4827 147.644 90.248H147.484C147.442 90.3333 147.42 90.4507 147.42 90.6C147.356 90.9413 147.324 91.2827 147.324 91.624V101.832C147.324 102.003 147.314 102.131 147.293 102.216C147.25 102.536 147.101 102.707 146.845 102.728C146.675 102.771 146.558 102.792 146.494 102.792H145.44ZM152.66 102.312C152.66 102.227 152.606 102.216 152.5 102.28C152.543 102.365 152.596 102.376 152.66 102.312ZM152.372 101.64L152.308 101.544L152.18 101.768L152.276 101.832L152.372 101.64ZM152.755 101.704C152.883 101.704 152.979 101.693 153.043 101.672C153.043 101.587 153.054 101.523 153.075 101.48C153.075 101.395 153.086 101.331 153.107 101.288L152.851 101.352L153.011 101.608H152.755V101.704ZM152.692 101.064C152.734 101.021 152.745 100.968 152.724 100.904L152.596 100.872C152.596 100.851 152.596 100.84 152.596 100.84C152.617 100.819 152.617 100.797 152.596 100.776C152.404 100.797 152.308 100.861 152.308 100.968C152.351 101.053 152.404 101.075 152.468 101.032C152.468 100.989 152.479 100.957 152.5 100.936C152.521 100.893 152.564 100.872 152.628 100.872C152.628 100.936 152.638 100.989 152.66 101.032L152.692 101.064ZM152.18 100.168C152.223 100.083 152.244 100.008 152.244 99.944C152.244 99.88 152.234 99.8053 152.212 99.72C152.148 99.72 152.095 99.7307 152.053 99.752L152.148 99.944V100.04C152.148 100.04 152.138 100.061 152.117 100.104C152.117 100.125 152.138 100.147 152.18 100.168ZM152.372 100.264C152.393 100.285 152.415 100.296 152.436 100.296C152.457 100.296 152.479 100.285 152.5 100.264V100.104C152.415 100.125 152.372 100.179 152.372 100.264ZM153.618 98.824C153.661 98.7813 153.682 98.728 153.682 98.664C153.682 98.6 153.682 98.5573 153.682 98.536C153.618 98.536 153.575 98.5253 153.554 98.504V98.76L153.618 98.824ZM147.804 89.48C147.761 89.48 147.719 89.48 147.676 89.48C147.655 89.48 147.633 89.5013 147.612 89.544L147.74 89.64L147.804 89.48ZM148.602 89.544C148.517 89.5013 148.432 89.4373 148.347 89.352L148.251 89.512C148.336 89.5333 148.453 89.544 148.602 89.544ZM148.538 89.096C148.581 89.0533 148.634 89.0213 148.698 89C148.677 88.9787 148.634 88.9573 148.57 88.936C148.528 88.8933 148.496 88.84 148.475 88.776C148.475 88.7547 148.464 88.744 148.443 88.744C148.421 88.744 148.4 88.7333 148.379 88.712L148.219 88.808L148.347 88.84C148.368 88.8613 148.389 88.904 148.411 88.968C148.432 89.032 148.475 89.0747 148.538 89.096ZM149.209 89.64C149.252 89.6187 149.316 89.608 149.401 89.608L149.369 89.48C149.348 89.48 149.316 89.4907 149.273 89.512C149.231 89.5333 149.209 89.576 149.209 89.64ZM154.193 94.152C154.257 94.024 154.3 93.9493 154.321 93.928C154.236 93.9493 154.182 93.9707 154.161 93.992C154.161 94.0133 154.172 94.0667 154.193 94.152ZM145.759 84.392L145.855 84.168L145.567 83.912V83.752L145.44 83.688C145.418 83.6667 145.386 83.6453 145.344 83.624C145.322 83.6027 145.291 83.6027 145.248 83.624C145.184 83.7947 145.141 83.9013 145.12 83.944L145.28 84.072L145.44 83.976L145.535 84.04C145.429 84.1467 145.376 84.264 145.376 84.392L145.567 84.616L145.759 84.392ZM145.855 83.656L145.951 83.432L145.823 83.368L145.727 83.656H145.855ZM146.015 84.104C146.079 84.1253 146.185 84.1147 146.334 84.072V83.848L146.462 83.688L146.366 83.56L146.302 83.752H146.174C146.174 83.7947 146.164 83.8373 146.142 83.88C146.142 83.9013 146.132 83.9227 146.111 83.944C146.089 83.944 146.079 83.9333 146.079 83.912C146.079 83.8693 146.057 83.8587 146.015 83.88V84.104ZM145.504 83.24C145.525 83.1973 145.546 83.1547 145.567 83.112C145.61 83.048 145.653 82.984 145.695 82.92C145.631 82.92 145.567 82.92 145.504 82.92C145.44 82.92 145.397 82.9413 145.376 82.984L145.28 83.112L145.504 83.24ZM145.408 82.792C145.578 82.7067 145.706 82.632 145.791 82.568C145.855 82.632 145.908 82.6427 145.951 82.6C145.951 82.5787 145.929 82.5253 145.887 82.44C145.844 82.4613 145.791 82.472 145.727 82.472L145.599 82.376L145.44 82.568L145.408 82.792ZM146.877 82.728H146.781C146.632 82.728 146.558 82.792 146.558 82.92L146.622 82.984L146.877 82.728ZM147.516 82.984L147.452 82.92C147.41 82.92 147.335 82.952 147.229 83.016L147.324 83.08L147.516 82.984ZM154.065 83.432C154.087 83.3467 154.055 83.272 153.969 83.208L153.81 83.304C153.895 83.3893 153.948 83.4533 153.969 83.496L154.065 83.432Z" fill="black"/>
<path d="M165.062 102.792C164.295 102.749 163.582 102.557 162.921 102.216C161.92 101.683 161.207 100.936 160.781 99.976C160.589 99.5707 160.44 99.0693 160.334 98.472C160.291 98.216 160.27 97.8533 160.27 97.384V96.296L160.238 95.688V94.984L160.27 94.568V86.6C160.27 85.768 160.419 85.0107 160.717 84.328C161.377 82.92 162.4 82.0347 163.784 81.672C164.316 81.5227 164.796 81.4373 165.222 81.416C165.413 81.3947 165.679 81.384 166.02 81.384C166.915 81.4267 167.713 81.6293 168.416 81.992C169.247 82.4187 169.907 83.08 170.397 83.976C170.716 84.5947 170.887 85.2133 170.908 85.832L171.004 86.92V86.984C171.004 87.0907 170.961 87.1973 170.876 87.304C170.812 87.4107 170.727 87.4747 170.621 87.496C170.45 87.5387 170.312 87.56 170.205 87.56C169.971 87.5813 169.609 87.592 169.119 87.592C168.927 87.592 168.789 87.5707 168.704 87.528C168.555 87.464 168.459 87.3787 168.416 87.272L168.32 86.792C168.278 86.3653 168.225 86.0453 168.161 85.832C167.905 84.9573 167.362 84.4453 166.531 84.296C166.276 84.2107 165.978 84.168 165.637 84.168C165.296 84.168 164.987 84.2107 164.71 84.296C163.965 84.5093 163.464 84.9787 163.209 85.704C163.102 86.024 163.049 86.4187 163.049 86.888V97.512C163.049 97.9173 163.124 98.3013 163.273 98.664C163.486 99.1973 163.869 99.5813 164.423 99.816C164.87 99.9867 165.285 100.072 165.669 100.072C166.031 100.072 166.382 100.008 166.723 99.88C167.511 99.6027 168.001 99.048 168.193 98.216C168.214 98.0667 168.235 97.8853 168.257 97.672C168.278 97.4373 168.288 97.256 168.288 97.128C168.288 97.0213 168.278 96.904 168.257 96.776C168.257 96.6267 168.267 96.456 168.288 96.264V96.136C168.288 95.9653 168.278 95.8373 168.257 95.752C168.193 95.56 168.065 95.432 167.873 95.368L167.426 95.272C167.298 95.2293 167.181 95.208 167.074 95.208C166.712 95.1227 166.531 94.92 166.531 94.6V93.32C166.531 93.1493 166.542 93.032 166.563 92.968C166.627 92.6907 166.798 92.552 167.074 92.552H167.969C168.288 92.552 168.523 92.5413 168.672 92.52H168.895C169.108 92.5413 169.343 92.552 169.598 92.552C169.854 92.552 170.035 92.552 170.141 92.552L170.557 92.584L170.844 92.84C170.993 93.0107 171.068 93.2133 171.068 93.448C171.068 93.6187 171.068 93.8213 171.068 94.056C171.089 94.2907 171.089 94.5573 171.068 94.856C171.047 95.2613 171.036 95.848 171.036 96.616C171.036 97.1493 171.025 97.544 171.004 97.8C171.004 97.8853 170.993 98.088 170.972 98.408C170.951 98.7067 170.908 98.984 170.844 99.24C170.674 99.7947 170.376 100.36 169.95 100.936C169.417 101.555 168.81 102.024 168.129 102.344C167.703 102.557 167.224 102.696 166.691 102.76C166.265 102.803 165.946 102.824 165.733 102.824L165.062 102.792ZM161.707 100.456L161.771 100.296C161.771 100.317 161.803 100.328 161.867 100.328L161.899 100.52L161.707 100.456ZM163.433 101.992C163.539 101.992 163.603 101.949 163.624 101.864C163.667 101.864 163.709 101.843 163.752 101.8C163.816 101.736 163.88 101.715 163.944 101.736C163.944 101.715 163.954 101.704 163.976 101.704L163.848 101.64C163.848 101.576 163.858 101.523 163.88 101.48L163.624 101.384V101.32C163.624 101.277 163.635 101.235 163.656 101.192C163.699 101.128 163.731 101.075 163.752 101.032C163.646 101.075 163.528 101.149 163.401 101.256C163.294 101.341 163.209 101.405 163.145 101.448L162.985 101.224C163.049 101.203 163.081 101.16 163.081 101.096C163.081 101.032 163.081 101 163.081 101C163.081 100.979 163.102 100.947 163.145 100.904L163.401 101L163.56 100.872L163.433 100.616H163.145L163.113 100.648L162.985 100.808C162.836 100.829 162.708 100.808 162.602 100.744C162.474 100.68 162.304 100.648 162.091 100.648L162.219 100.808C162.197 100.808 162.165 100.829 162.123 100.872C162.144 100.957 162.187 101.043 162.25 101.128C162.272 101.107 162.314 101.096 162.378 101.096L162.538 101.064C162.623 101.341 162.868 101.544 163.273 101.672L163.305 101.8C163.305 101.907 163.347 101.971 163.433 101.992ZM163.976 102.088C163.997 102.045 164.008 101.992 164.008 101.928C163.944 101.928 163.89 101.949 163.848 101.992C163.827 102.013 163.816 102.056 163.816 102.12L163.976 102.088ZM161.963 100.648C162.006 100.605 162.027 100.563 162.027 100.52H162.123C162.293 100.52 162.41 100.467 162.474 100.36C162.474 100.253 162.442 100.2 162.378 100.2C162.336 100.243 162.293 100.307 162.25 100.392C162.165 100.307 162.112 100.253 162.091 100.232C162.091 100.189 162.112 100.125 162.155 100.04L162.41 99.88C162.432 99.88 162.453 99.88 162.474 99.88C162.517 99.88 162.549 99.8907 162.57 99.912L162.634 100.328L162.762 100.456H162.826L162.953 100.136V100.072L162.762 100.104V99.912L162.506 99.752L162.187 99.848V99.656L161.995 99.464C161.931 99.528 161.878 99.56 161.835 99.56C161.771 99.6667 161.718 99.7307 161.675 99.752C161.612 99.7947 161.558 99.848 161.516 99.912L161.548 99.976C161.569 99.9547 161.612 99.9227 161.675 99.88C161.761 99.8373 161.846 99.8373 161.931 99.88C161.931 99.944 161.899 99.9973 161.835 100.04C161.793 100.083 161.761 100.115 161.739 100.136V100.328H161.643V100.552L161.963 100.648ZM161.675 99.24L161.58 99.112C161.494 99.176 161.441 99.2293 161.42 99.272C161.42 99.2933 161.441 99.336 161.484 99.4L161.675 99.24ZM161.675 98.888L161.612 98.76H161.58C161.58 98.7813 161.569 98.824 161.548 98.888C161.548 98.9307 161.558 98.9627 161.58 98.984C161.58 98.984 161.58 98.9947 161.58 99.016C161.58 99.016 161.59 99.016 161.612 99.016L161.675 98.888ZM164.455 101.832C164.476 101.832 164.487 101.832 164.487 101.832C164.487 101.811 164.487 101.8 164.487 101.8C164.465 101.757 164.423 101.747 164.359 101.768C164.316 101.789 164.284 101.789 164.263 101.768C164.284 101.725 164.295 101.661 164.295 101.576L164.487 101.544C164.487 101.459 164.476 101.395 164.455 101.352C164.497 101.352 164.561 101.32 164.647 101.256C164.434 101.299 164.327 101.32 164.327 101.32C164.327 101.448 164.316 101.544 164.295 101.608H164.167C164.189 101.651 164.199 101.704 164.199 101.768C164.199 101.832 164.221 101.885 164.263 101.928L164.455 101.832ZM161.803 99.144C161.91 99.1653 161.974 99.1333 161.995 99.048C161.974 98.984 161.899 98.9307 161.771 98.888C161.771 98.9947 161.782 99.08 161.803 99.144ZM164.295 101.192C164.21 101.235 164.157 101.267 164.135 101.288C164.114 101.309 164.125 101.352 164.167 101.416L164.295 101.192ZM165.062 102.216C165.083 102.109 165.083 102.045 165.062 102.024C165.062 101.981 165.019 101.96 164.934 101.96L165.062 102.216ZM162.474 99.368L162.41 99.208C162.41 99.208 162.41 99.1867 162.41 99.144C162.432 99.1013 162.432 99.0693 162.41 99.048L162.282 99.176L162.091 99.24C162.112 99.304 162.144 99.3573 162.187 99.4C162.25 99.4427 162.293 99.4747 162.314 99.496L162.474 99.368ZM164.008 100.936C164.029 100.936 164.04 100.925 164.04 100.904L163.976 100.68C163.954 100.659 163.912 100.627 163.848 100.584C163.784 100.52 163.72 100.477 163.656 100.456C163.677 100.499 163.688 100.573 163.688 100.68L163.848 100.744C163.869 100.787 163.89 100.829 163.912 100.872C163.954 100.893 163.986 100.915 164.008 100.936ZM162.602 99.592C162.73 99.592 162.804 99.5813 162.826 99.56C162.847 99.5387 162.868 99.4533 162.889 99.304C162.868 99.368 162.815 99.4213 162.73 99.464C162.666 99.5067 162.623 99.5493 162.602 99.592ZM163.464 100.296C163.486 100.275 163.486 100.253 163.464 100.232C163.464 100.189 163.464 100.157 163.464 100.136C163.464 100.093 163.475 100.061 163.496 100.04C163.518 100.019 163.528 99.9867 163.528 99.944L163.496 99.912C163.454 99.912 163.39 99.9333 163.305 99.976C163.39 100.104 163.422 100.2 163.401 100.264L163.464 100.296ZM165.062 101.384C165.083 101.384 165.115 101.384 165.158 101.384C165.2 101.363 165.222 101.331 165.222 101.288L165.094 101.224C165.051 101.245 165.009 101.277 164.966 101.32C164.945 101.341 164.923 101.363 164.902 101.384C164.817 101.427 164.764 101.469 164.742 101.512L164.615 101.672L164.71 101.832L165.062 101.384ZM166.467 101.352L166.34 101.256L166.276 101.48L166.372 101.576L166.467 101.352ZM166.755 101C166.883 101.021 166.979 100.989 167.043 100.904C167 100.883 166.915 100.872 166.787 100.872L166.755 101ZM167.426 100.968C167.447 100.947 167.458 100.925 167.458 100.904C167.458 100.861 167.469 100.829 167.49 100.808C167.447 100.787 167.394 100.765 167.33 100.744C167.287 100.701 167.234 100.659 167.17 100.616L167.202 100.936L167.426 100.968ZM161.292 90.824L161.196 90.728L161.1 90.888C161.122 90.888 161.132 90.8987 161.132 90.92L161.292 90.824ZM162.059 91.144C162.038 91.08 161.984 91.048 161.899 91.048L161.707 91.144H162.059ZM162.346 91.592C162.453 91.5707 162.474 91.5067 162.41 91.4C162.389 91.4213 162.336 91.432 162.25 91.432L162.346 91.592ZM169.279 98.248C169.258 98.2267 169.236 98.1947 169.215 98.152C169.215 98.1093 169.194 98.0773 169.151 98.056L169.087 98.184L169.279 98.248ZM162.602 90.632L162.346 90.664L162.506 90.792L162.602 90.632ZM161.516 89.8C161.537 89.7787 161.548 89.7573 161.548 89.736C161.548 89.6933 161.558 89.6613 161.58 89.64L161.452 89.384C161.409 89.4053 161.377 89.448 161.356 89.512C161.335 89.5547 161.313 89.5973 161.292 89.64L161.388 89.736C161.409 89.736 161.42 89.7573 161.42 89.8C161.441 89.8213 161.473 89.8213 161.516 89.8ZM161.899 89.992C161.92 90.0133 161.942 90.0133 161.963 89.992C161.984 89.9707 161.995 89.9387 161.995 89.896L161.707 89.832L161.643 89.96C161.686 89.96 161.729 89.96 161.771 89.96C161.814 89.96 161.856 89.9707 161.899 89.992ZM161.707 89.704C161.793 89.7253 161.867 89.7147 161.931 89.672L161.835 89.576C161.793 89.5333 161.771 89.4907 161.771 89.448L161.707 89.48V89.704ZM161.356 88.904L161.292 88.776C161.228 88.8187 161.164 88.8613 161.1 88.904C161.058 88.9253 161.015 88.9467 160.973 88.968L161.005 89L161.356 88.904ZM162.442 89.608L162.346 89.544L162.25 89.672L162.346 89.704L162.442 89.608ZM161.739 88.968C161.782 88.968 161.825 88.9467 161.867 88.904C161.931 88.8613 161.974 88.8293 161.995 88.808L161.899 88.68L161.803 88.84C161.782 88.8613 161.75 88.8827 161.707 88.904C161.665 88.904 161.654 88.9253 161.675 88.968H161.739ZM161.42 88.648C161.484 88.6693 161.516 88.648 161.516 88.584L161.548 88.488L161.803 88.456C161.825 88.456 161.856 88.456 161.899 88.456C161.963 88.4347 162.006 88.392 162.027 88.328L161.931 88.2C161.888 88.2213 161.835 88.2427 161.771 88.264C161.707 88.2853 161.643 88.3173 161.58 88.36C161.558 88.3813 161.505 88.4133 161.42 88.456C161.356 88.4773 161.303 88.52 161.26 88.584C161.324 88.584 161.377 88.6053 161.42 88.648ZM162.506 88.776L162.378 88.616C162.357 88.616 162.325 88.6267 162.282 88.648C162.261 88.6693 162.24 88.6587 162.219 88.616L162.41 88.168H162.155C162.176 88.2107 162.187 88.264 162.187 88.328L162.027 88.584L162.123 88.776L162.442 88.808L162.506 88.776ZM161.26 87.112C161.218 87.1333 161.186 87.1653 161.164 87.208C161.143 87.2293 161.143 87.2613 161.164 87.304L161.26 87.112ZM161.548 87.496C161.569 87.496 161.58 87.4747 161.58 87.432C161.601 87.3893 161.612 87.3253 161.612 87.24L161.548 87.208C161.484 87.336 161.484 87.432 161.548 87.496ZM162.378 87.944L162.282 87.784L162.187 87.816L162.282 88.04L162.378 87.944ZM163.081 83.592C163.081 83.528 163.092 83.4853 163.113 83.464C163.113 83.4213 163.134 83.3787 163.177 83.336L163.081 83.272C163.039 83.3147 163.017 83.3467 163.017 83.368C162.975 83.368 162.932 83.3573 162.889 83.336C162.847 83.2933 162.804 83.304 162.762 83.368L162.921 83.496C162.943 83.5173 162.964 83.5493 162.985 83.592C163.007 83.6133 163.039 83.6133 163.081 83.592ZM165.254 83.4L165.094 83.336C165.094 83.3573 165.094 83.3893 165.094 83.432C165.094 83.4747 165.115 83.5067 165.158 83.528L165.254 83.4ZM164.391 82.536C164.412 82.5147 164.444 82.4827 164.487 82.44C164.529 82.376 164.551 82.312 164.551 82.248L164.391 82.216L164.231 82.408L164.391 82.536ZM165.062 82.344C165.041 82.3227 165.009 82.312 164.966 82.312L164.87 82.248C164.828 82.2907 164.785 82.3547 164.742 82.44L164.87 82.504L165.062 82.344ZM165.573 82.792C165.594 82.7067 165.562 82.6427 165.477 82.6C165.456 82.6 165.413 82.6107 165.349 82.632C165.307 82.6533 165.275 82.696 165.254 82.76C165.317 82.8027 165.371 82.824 165.413 82.824C165.456 82.824 165.509 82.8133 165.573 82.792Z" fill="black"/>
</g>
</g>
<defs>
<filter id="filter0_b_3_69459" x="-20" y="-20" width="260" height="260" filterUnits="userSpaceOnUse" color-interpolation-filters="sRGB">
<feFlood flood-opacity="0" result="BackgroundImageFix"/>
<feGaussianBlur in="BackgroundImageFix" stdDeviation="10"/>
<feComposite in2="SourceAlpha" operator="in" result="effect1_backgroundBlur_3_69459"/>
<feBlend mode="normal" in="SourceGraphic" in2="effect1_backgroundBlur_3_69459" result="shape"/>
</filter>
</defs>
</svg>
