<svg width="30" height="30" viewBox="0 0 30 30" fill="none" xmlns="http://www.w3.org/2000/svg">
<g id="instagram" clip-path="url(#clip0_1281_35002)">
<path id="Vector" d="M15 18.75C17.0711 18.75 18.75 17.0711 18.75 15C18.75 12.9289 17.0711 11.25 15 11.25C12.9289 11.25 11.25 12.9289 11.25 15C11.25 17.0711 12.9289 18.75 15 18.75Z" fill="black"/>
<path id="Vector_2" d="M20.1562 3.28125H9.84375C8.10327 3.28125 6.43407 3.97265 5.20336 5.20336C3.97265 6.43407 3.28125 8.10327 3.28125 9.84375V20.1562C3.28125 21.8967 3.97265 23.5659 5.20336 24.7966C6.43407 26.0273 8.10327 26.7188 9.84375 26.7188H20.1562C21.8967 26.7188 23.5659 26.0273 24.7966 24.7966C26.0273 23.5659 26.7188 21.8967 26.7188 20.1562V9.84375C26.7188 8.10327 26.0273 6.43407 24.7966 5.20336C23.5659 3.97265 21.8967 3.28125 20.1562 3.28125ZM15 20.625C13.8875 20.625 12.7999 20.2951 11.8749 19.677C10.9499 19.0589 10.2289 18.1804 9.80318 17.1526C9.37744 16.1248 9.26604 14.9938 9.48308 13.9026C9.70013 12.8115 10.2359 11.8092 11.0225 11.0225C11.8092 10.2359 12.8115 9.70013 13.9026 9.48308C14.9938 9.26604 16.1248 9.37744 17.1526 9.80318C18.1804 10.2289 19.0589 10.9499 19.677 11.8749C20.2951 12.7999 20.625 13.8875 20.625 15C20.625 16.4918 20.0324 17.9226 18.9775 18.9775C17.9226 20.0324 16.4918 20.625 15 20.625ZM21.0938 10.3125C20.8156 10.3125 20.5437 10.23 20.3125 10.0755C20.0812 9.92098 19.901 9.70136 19.7945 9.4444C19.6881 9.18744 19.6603 8.90469 19.7145 8.6319C19.7688 8.35912 19.9027 8.10855 20.0994 7.91188C20.296 7.71521 20.5466 7.58128 20.8194 7.52702C21.0922 7.47276 21.3749 7.50061 21.6319 7.60704C21.8889 7.71348 22.1085 7.89372 22.263 8.12498C22.4175 8.35624 22.5 8.62812 22.5 8.90625C22.5 9.27921 22.3518 9.6369 22.0881 9.90062C21.8244 10.1643 21.4667 10.3125 21.0938 10.3125Z" fill="black"/>
</g>
<defs>
<clipPath id="clip0_1281_35002">
<rect width="30" height="30" fill="white"/>
</clipPath>
</defs>
</svg>
