<svg width="18" height="13" viewBox="0 0 18 13" fill="none" xmlns="http://www.w3.org/2000/svg">
<g id="Group">
<path id="Vector" d="M4 12.75H0.25V0.25H4V12.75ZM17.75 12.75H14V6.0725C14 4.3325 13.38 3.46625 12.1512 3.46625C11.1775 3.46625 10.56 3.95125 10.25 4.9225C10.25 6.5 10.25 12.75 10.25 12.75H6.5C6.5 12.75 6.55 1.5 6.5 0.25H9.46L9.68875 2.75H9.76625C10.535 1.5 11.7638 0.652499 13.4487 0.652499C14.73 0.652499 15.7662 1.00875 16.5575 1.90375C17.3538 2.8 17.75 4.0025 17.75 5.69125V12.75Z" fill="black"/>
</g>
</svg>
