<svg width="16" height="21" viewBox="0 0 16 21" fill="none" xmlns="http://www.w3.org/2000/svg">
<g id="Group">
<path id="Vector" d="M8.60609 0.963867C3.31859 0.963867 0.652344 4.75512 0.652344 7.91637C0.652344 9.83262 1.37859 11.5339 2.93109 12.1676C3.18734 12.2726 3.41484 12.1726 3.48859 11.8914C3.53984 11.6951 3.66109 11.2001 3.71609 10.9951C3.79234 10.7189 3.76234 10.6201 3.55734 10.3764C3.10859 9.84887 2.82234 9.16137 2.82234 8.19262C2.82234 5.38012 4.92609 2.86262 8.30234 2.86262C11.2923 2.86262 12.9348 4.69137 12.9348 7.12762C12.9348 10.3376 11.5136 13.0451 9.40484 13.0451C8.23984 13.0451 7.36859 12.0826 7.64859 10.9014C7.98359 9.48887 8.63109 7.96762 8.63109 6.95137C8.63109 6.04012 8.14109 5.28137 7.13109 5.28137C5.94109 5.28137 4.98359 6.51137 4.98359 8.16137C4.98359 9.21262 5.34109 9.92262 5.34109 9.92262C5.34109 9.92262 4.12109 15.0839 3.90859 15.9876C3.48359 17.7876 3.84484 19.9951 3.87734 20.2189C3.89359 20.3489 4.06359 20.3826 4.13984 20.2826C4.24984 20.1389 5.66859 18.3864 6.14859 16.6389C6.28734 16.1439 6.93234 13.5826 6.93234 13.5826C7.32109 14.3189 8.44859 14.9676 9.65109 14.9676C13.2298 14.9676 15.6561 11.7076 15.6561 7.33887C15.6523 4.03887 12.8561 0.963867 8.60609 0.963867Z" fill="black"/>
</g>
</svg>
