<svg width="30" height="30" viewBox="0 0 30 30" fill="none" xmlns="http://www.w3.org/2000/svg">
<g id="youtube">
<path id="Vector" d="M29.3732 7.7792C29.0283 6.48838 28.0118 5.47195 26.721 5.12695C24.3812 4.5 15 4.5 15 4.5C15 4.5 5.61873 4.5 3.27896 5.12695C1.98838 5.47195 0.971719 6.48838 0.626777 7.7792C0 10.1187 0 15.0002 0 15.0002C0 15.0002 0 19.8815 0.626777 22.2208C0.971719 23.5116 1.98838 24.5283 3.27896 24.8733C5.61873 25.5 15 25.5 15 25.5C15 25.5 24.3812 25.5 26.721 24.8733C28.0118 24.5283 29.0283 23.5116 29.3732 22.2208C29.9999 19.8815 29.9999 15.0002 29.9999 15.0002C29.9999 15.0002 29.9999 10.1187 29.3732 7.7792ZM11.9998 19.5002V10.5001L19.7939 15.0002L11.9998 19.5002Z" fill="black"/>
</g>
</svg>
