<svg width="89" height="121" viewBox="0 0 89 121" fill="none" xmlns="http://www.w3.org/2000/svg">
<g filter="url(#filter0_d_1366_4399)">
<path fill-rule="evenodd" clip-rule="evenodd" d="M38.8775 85.1374L50.4658 85.0854L50.4219 86.0205L38.8462 86.0724L38.8775 85.1374Z" fill="black" fill-opacity="0.25"/>
<path fill-rule="evenodd" clip-rule="evenodd" d="M59.2551 65.4034L63.5067 77.513L62.7166 78L58.2017 65.1372L59.2551 65.4034Z" fill="black" fill-opacity="0.25"/>
<path fill-rule="evenodd" clip-rule="evenodd" d="M44.6885 62.7158V61.7483L59.2553 65.4039L59.6315 66.4623L44.6885 62.7158Z" fill="black" fill-opacity="0.25"/>
<path fill-rule="evenodd" clip-rule="evenodd" d="M50.3237 84.6568L63.2037 76.6443L63.7555 77.365L51.1326 85.1113L50.3237 84.6568Z" fill="black" fill-opacity="0.25"/>
<path fill-rule="evenodd" clip-rule="evenodd" d="M49.5376 86.6161L58.2789 65.1565L59.2509 65.4097L50.5409 86.5577L49.5376 86.6161Z" fill="black" fill-opacity="0.25"/>
<path fill-rule="evenodd" clip-rule="evenodd" d="M63.1972 76.6443L68.9966 84.214L68.5452 85.1358L62.4072 77.1377L63.1972 76.6443Z" fill="black" fill-opacity="0.25"/>
<path fill-rule="evenodd" clip-rule="evenodd" d="M62.498 95.4539L68.3674 83.3962L69.0008 84.2144L63.7083 95.0643L62.498 95.4539Z" fill="black" fill-opacity="0.25"/>
<path fill-rule="evenodd" clip-rule="evenodd" d="M51.4175 98.1102L64.2536 93.9417L63.708 95.065L51.5554 98.9868L51.4175 98.1102Z" fill="black" fill-opacity="0.25"/>
<path fill-rule="evenodd" clip-rule="evenodd" d="M50.3227 85.1106L52.4422 98.7006L51.558 98.9928L49.4824 85.9092L50.3227 85.1106Z" fill="black" fill-opacity="0.25"/>
<path fill-rule="evenodd" clip-rule="evenodd" d="M44.3188 90.7644L50.0296 85.3899L50.763 86L44.3188 91.9328V90.7644Z" fill="black" fill-opacity="0.25"/>
<path fill-rule="evenodd" clip-rule="evenodd" d="M56.3214 65.6299L55.4561 65.4156L62.8304 37.7031L63.2004 39.8199L56.3214 65.6299Z" fill="black" fill-opacity="0.25"/>
<path fill-rule="evenodd" clip-rule="evenodd" d="M62.6127 42.0284L59.3457 22.218L60.5622 23.9127L63.1834 39.8338L62.6127 42.0284Z" fill="black" fill-opacity="0.25"/>
<path fill-rule="evenodd" clip-rule="evenodd" d="M48.0239 43.5416L57.2795 20.3028L56.389 20.0691L48.2434 40.5418L48.0239 43.5416Z" fill="black" fill-opacity="0.25"/>
<path fill-rule="evenodd" clip-rule="evenodd" d="M46.7305 63.2366L48.248 40.4653L49.3453 37.6863L47.6209 63.4508L46.7305 63.2366Z" fill="black" fill-opacity="0.25"/>
<path fill-rule="evenodd" clip-rule="evenodd" d="M58.0912 20.5029L56.3731 20.0808L55.978 21.1132L57.8279 21.5807L58.0912 20.5029Z" fill="black" fill-opacity="0.25"/>
<path fill-rule="evenodd" clip-rule="evenodd" d="M44.7778 100.032L50.3399 98.4089L51.5627 98.9933L44.7778 101V100.032Z" fill="black" fill-opacity="0.25"/>
<path fill-rule="evenodd" clip-rule="evenodd" d="M47.2607 97.324L51.4182 98.1096L51.5562 98.9862L47.6433 98.2655L47.2607 97.324Z" fill="black" fill-opacity="0.25"/>
<path fill-rule="evenodd" clip-rule="evenodd" d="M44.3188 94.9402L48.4799 97.7045L47.6402 98.2625L44.3188 96.0498V94.9402Z" fill="black" fill-opacity="0.25"/>
<path fill-rule="evenodd" clip-rule="evenodd" d="M54.737 73.8779L57.0634 77.605L56.8 78.8646L54.3105 74.9168L54.737 73.8779Z" fill="black" fill-opacity="0.25"/>
<path fill-rule="evenodd" clip-rule="evenodd" d="M57.0631 77.6044L56.1478 82.0247L55.1323 82.6608L56.3923 76.5269L57.0631 77.6044Z" fill="black" fill-opacity="0.25"/>
<path fill-rule="evenodd" clip-rule="evenodd" d="M51.8582 51.3665L56.9249 65.7811L55.8464 65.5149L51.7642 53.8468L51.8582 51.3665Z" fill="black" fill-opacity="0.25"/>
<path fill-rule="evenodd" clip-rule="evenodd" d="M53.1422 40.6062L52.5778 56.1506L51.7563 53.8196L52.2204 40.8724L53.1422 40.6062Z" fill="black" fill-opacity="0.25"/>
<path fill-rule="evenodd" clip-rule="evenodd" d="M52.0708 45.2687L58.0907 20.5041L57.2316 20.2898L52.215 40.9183L52.0708 45.2687Z" fill="black" fill-opacity="0.25"/>
<path fill-rule="evenodd" clip-rule="evenodd" d="M60.5638 23.8995L58.0869 20.5037L57.8047 21.575L60.8899 25.841L60.5638 23.8995Z" fill="black" fill-opacity="0.25"/>
<path fill-rule="evenodd" clip-rule="evenodd" d="M44.3188 90.3179H45.2654V96.3999H44.3188V90.3179Z" fill="black" fill-opacity="0.25"/>
<path fill-rule="evenodd" clip-rule="evenodd" d="M30.3189 65.4034L26.0674 77.513L26.8575 77.9935L31.3787 65.1372L30.3189 65.4034Z" fill="black" fill-opacity="0.25"/>
<path fill-rule="evenodd" clip-rule="evenodd" d="M44.8981 62.7158L44.8919 61.7483L30.3251 65.4039L29.9551 66.4623L44.8981 62.7158Z" fill="black" fill-opacity="0.25"/>
<path fill-rule="evenodd" clip-rule="evenodd" d="M39.2693 84.6557L26.3956 76.6367L25.8438 77.3639L38.4604 85.1102L39.2693 84.6557Z" fill="black" fill-opacity="0.25"/>
<path fill-rule="evenodd" clip-rule="evenodd" d="M40.0457 86.6161L31.2981 65.1565L30.3262 65.4097L39.0675 86.6161H40.0457Z" fill="black" fill-opacity="0.25"/>
<path fill-rule="evenodd" clip-rule="evenodd" d="M26.3902 76.6367L20.5845 84.2129L21.0296 85.1348L27.1739 77.1236L26.3902 76.6367Z" fill="black" fill-opacity="0.25"/>
<path fill-rule="evenodd" clip-rule="evenodd" d="M27.0872 95.4539L21.2115 83.3962L20.5845 84.2144L25.8769 95.0643L27.0872 95.4539Z" fill="black" fill-opacity="0.25"/>
<path fill-rule="evenodd" clip-rule="evenodd" d="M38.1594 98.1167L25.3296 93.9417L25.8751 95.065L38.034 98.9998L38.1594 98.1167Z" fill="black" fill-opacity="0.25"/>
<path fill-rule="evenodd" clip-rule="evenodd" d="M39.262 85.1106L37.1362 98.7136L38.0141 98.9928L40.1023 85.9028L39.262 85.1106Z" fill="black" fill-opacity="0.25"/>
<path fill-rule="evenodd" clip-rule="evenodd" d="M45.261 90.7627L39.5503 85.3882L38.8169 85.9983L45.261 91.9311V90.7627Z" fill="black" fill-opacity="0.25"/>
<path fill-rule="evenodd" clip-rule="evenodd" d="M33.2637 65.6299L34.1291 65.4156L26.7485 37.7031L26.3848 39.8199L33.2637 65.6299Z" fill="black" fill-opacity="0.25"/>
<path fill-rule="evenodd" clip-rule="evenodd" d="M26.9729 42.0284L30.2399 22.218L29.0234 23.9127L26.396 39.8338L26.9729 42.0284Z" fill="black" fill-opacity="0.25"/>
<path fill-rule="evenodd" clip-rule="evenodd" d="M41.5636 43.5416L32.3081 20.3028L33.1985 20.0691L41.3442 40.5418L41.5636 43.5416Z" fill="black" fill-opacity="0.25"/>
<path fill-rule="evenodd" clip-rule="evenodd" d="M42.8595 63.2366L41.3357 40.4653L40.2446 37.6863L41.9691 63.4508L42.8595 63.2366Z" fill="black" fill-opacity="0.25"/>
<path fill-rule="evenodd" clip-rule="evenodd" d="M31.4932 20.5029L33.2113 20.0808L33.6064 21.1132L31.7565 21.5807L31.4932 20.5029Z" fill="black" fill-opacity="0.25"/>
<path fill-rule="evenodd" clip-rule="evenodd" d="M44.8087 100.032L39.2403 98.4089L38.0112 98.9933L44.8087 101V100.032Z" fill="black" fill-opacity="0.25"/>
<path fill-rule="evenodd" clip-rule="evenodd" d="M42.3255 97.324L38.1617 98.1161L38.0112 98.9927L41.943 98.2655L42.3255 97.324Z" fill="black" fill-opacity="0.25"/>
<path fill-rule="evenodd" clip-rule="evenodd" d="M45.2666 94.9402L41.1055 97.7045L41.9452 98.2625L45.2666 96.0498V94.9402Z" fill="black" fill-opacity="0.25"/>
<path fill-rule="evenodd" clip-rule="evenodd" d="M34.8503 73.8779L32.5176 77.6699L32.7621 78.8646L35.2767 74.9168L34.8503 73.8779Z" fill="black" fill-opacity="0.25"/>
<path fill-rule="evenodd" clip-rule="evenodd" d="M32.5176 77.6678L33.4391 82.0232L34.4546 82.6594L33.2009 76.5579L32.5176 77.6678Z" fill="black" fill-opacity="0.25"/>
<path fill-rule="evenodd" clip-rule="evenodd" d="M37.7269 51.3665L32.6602 65.7811L33.7387 65.5149L37.8147 53.8468L37.7269 51.3665Z" fill="black" fill-opacity="0.25"/>
<path fill-rule="evenodd" clip-rule="evenodd" d="M36.4443 40.6062L37.0087 56.1506L37.8302 53.8196L37.3599 40.8724L36.4443 40.6062Z" fill="black" fill-opacity="0.25"/>
<path fill-rule="evenodd" clip-rule="evenodd" d="M37.513 45.2687L31.4932 20.5041L32.3522 20.2898L37.3688 40.9183L37.513 45.2687Z" fill="black" fill-opacity="0.25"/>
<path fill-rule="evenodd" clip-rule="evenodd" d="M29.017 23.8995L31.4939 20.5037L31.7761 21.575L28.6909 25.841L29.017 23.8995Z" fill="black" fill-opacity="0.25"/>
</g>
<defs>
<filter id="filter0_d_1366_4399" x="0.584473" y="0.0690918" width="88.4165" height="120.931" filterUnits="userSpaceOnUse" color-interpolation-filters="sRGB">
<feFlood flood-opacity="0" result="BackgroundImageFix"/>
<feColorMatrix in="SourceAlpha" type="matrix" values="0 0 0 0 0 0 0 0 0 0 0 0 0 0 0 0 0 0 127 0" result="hardAlpha"/>
<feOffset/>
<feGaussianBlur stdDeviation="10"/>
<feComposite in2="hardAlpha" operator="out"/>
<feColorMatrix type="matrix" values="0 0 0 0 0 0 0 0 0 0 0 0 0 0 0 0 0 0 0.1 0"/>
<feBlend mode="normal" in2="BackgroundImageFix" result="effect1_dropShadow_1366_4399"/>
<feBlend mode="normal" in="SourceGraphic" in2="effect1_dropShadow_1366_4399" result="shape"/>
</filter>
</defs>
</svg>
