<svg width="62" height="72" viewBox="0 0 62 72" fill="none" xmlns="http://www.w3.org/2000/svg">
<ellipse cx="31.54" cy="35.7113" rx="25.46" ry="23.2887" fill="black" fill-opacity="0.25"/>
<g filter="url(#filter0_d_1366_4503)">
<path fill-rule="evenodd" clip-rule="evenodd" d="M28.2713 45.6491L33.431 45.6287L33.4114 45.9964L28.2573 46.0169L28.2713 45.6491Z" fill="white"/>
<path fill-rule="evenodd" clip-rule="evenodd" d="M37.3446 37.8869L39.2376 42.65L38.8858 42.8416L36.8755 37.7822L37.3446 37.8869Z" fill="white"/>
<path fill-rule="evenodd" clip-rule="evenodd" d="M30.8584 36.8298V36.4492L37.3443 37.8871L37.5118 38.3034L30.8584 36.8298Z" fill="white"/>
<path fill-rule="evenodd" clip-rule="evenodd" d="M33.3677 45.4599L39.1025 42.3083L39.3482 42.5918L33.7278 45.6387L33.3677 45.4599Z" fill="white"/>
<path fill-rule="evenodd" clip-rule="evenodd" d="M33.0176 46.2308L36.9097 37.79L37.3425 37.8896L33.4643 46.2078L33.0176 46.2308Z" fill="white"/>
<path fill-rule="evenodd" clip-rule="evenodd" d="M39.0998 42.3083L41.682 45.2857L41.481 45.6483L38.748 42.5024L39.0998 42.3083Z" fill="white"/>
<path fill-rule="evenodd" clip-rule="evenodd" d="M38.7881 49.7068L41.4014 44.9641L41.6834 45.2859L39.327 49.5535L38.7881 49.7068Z" fill="white"/>
<path fill-rule="evenodd" clip-rule="evenodd" d="M33.8545 50.7517L39.5698 49.1121L39.3269 49.5539L33.9159 51.0965L33.8545 50.7517Z" fill="white"/>
<path fill-rule="evenodd" clip-rule="evenodd" d="M33.3673 45.6384L34.311 50.9838L33.9173 51.0987L32.9932 45.9526L33.3673 45.6384Z" fill="white"/>
<path fill-rule="evenodd" clip-rule="evenodd" d="M30.6938 47.8623L33.2366 45.7483L33.5631 45.9883L30.6938 48.3218V47.8623Z" fill="white"/>
<path fill-rule="evenodd" clip-rule="evenodd" d="M36.0381 37.9762L35.6528 37.8919L38.9363 26.9917L39.101 27.8243L36.0381 37.9762Z" fill="white"/>
<path fill-rule="evenodd" clip-rule="evenodd" d="M38.8394 28.6929L37.3848 20.9009L37.9264 21.5675L39.0935 27.8297L38.8394 28.6929Z" fill="white"/>
<path fill-rule="evenodd" clip-rule="evenodd" d="M32.3438 29.2881L36.4648 20.1476L36.0683 20.0557L32.4415 28.1082L32.3438 29.2881Z" fill="white"/>
<path fill-rule="evenodd" clip-rule="evenodd" d="M31.7676 37.0346L32.4433 28.0779L32.9319 26.9849L32.164 37.1189L31.7676 37.0346Z" fill="white"/>
<path fill-rule="evenodd" clip-rule="evenodd" d="M36.8262 20.2263L36.0612 20.0603L35.8853 20.4664L36.7089 20.6503L36.8262 20.2263Z" fill="white"/>
<path fill-rule="evenodd" clip-rule="evenodd" d="M30.8984 51.5076L33.375 50.8691L33.9194 51.099L30.8984 51.8882V51.5076Z" fill="white"/>
<path fill-rule="evenodd" clip-rule="evenodd" d="M32.0039 50.4424L33.855 50.7514L33.9165 51.0962L32.1742 50.8127L32.0039 50.4424Z" fill="white"/>
<path fill-rule="evenodd" clip-rule="evenodd" d="M30.6938 49.5049L32.5466 50.5922L32.1727 50.8117L30.6938 49.9413V49.5049Z" fill="white"/>
<path fill-rule="evenodd" clip-rule="evenodd" d="M35.3324 41.2202L36.3683 42.6862L36.251 43.1816L35.1426 41.6288L35.3324 41.2202Z" fill="white"/>
<path fill-rule="evenodd" clip-rule="evenodd" d="M36.3685 42.686L35.961 44.4247L35.5088 44.6749L36.0698 42.2622L36.3685 42.686Z" fill="white"/>
<path fill-rule="evenodd" clip-rule="evenodd" d="M34.0512 32.3657L36.3071 38.0355L35.8269 37.9307L34.0093 33.3413L34.0512 32.3657Z" fill="white"/>
<path fill-rule="evenodd" clip-rule="evenodd" d="M34.6224 28.1335L34.3711 34.2477L34.0054 33.3308L34.212 28.2383L34.6224 28.1335Z" fill="white"/>
<path fill-rule="evenodd" clip-rule="evenodd" d="M34.1455 29.9673L36.8259 20.2266L36.4434 20.1423L34.2097 28.2562L34.1455 29.9673Z" fill="white"/>
<path fill-rule="evenodd" clip-rule="evenodd" d="M37.9272 21.5623L36.8244 20.2266L36.6987 20.648L38.0724 22.3259L37.9272 21.5623Z" fill="white"/>
<path fill-rule="evenodd" clip-rule="evenodd" d="M30.6938 47.6865H31.1153V50.0788H30.6938V47.6865Z" fill="white"/>
<path fill-rule="evenodd" clip-rule="evenodd" d="M24.4604 37.8869L22.5674 42.65L22.9192 42.839L24.9322 37.7822L24.4604 37.8869Z" fill="white"/>
<path fill-rule="evenodd" clip-rule="evenodd" d="M30.9518 36.8298L30.949 36.4492L24.4631 37.8871L24.2983 38.3034L30.9518 36.8298Z" fill="white"/>
<path fill-rule="evenodd" clip-rule="evenodd" d="M28.4455 45.4595L22.7135 42.3054L22.4678 42.5915L28.0854 45.6383L28.4455 45.4595Z" fill="white"/>
<path fill-rule="evenodd" clip-rule="evenodd" d="M28.7915 46.2308L24.8966 37.79L24.4639 37.8896L28.356 46.2308H28.7915Z" fill="white"/>
<path fill-rule="evenodd" clip-rule="evenodd" d="M22.711 42.3054L20.126 45.2854L20.3242 45.648L23.0599 42.4969L22.711 42.3054Z" fill="white"/>
<path fill-rule="evenodd" clip-rule="evenodd" d="M23.0213 49.7068L20.4052 44.9641L20.126 45.2859L22.4825 49.5535L23.0213 49.7068Z" fill="white"/>
<path fill-rule="evenodd" clip-rule="evenodd" d="M27.9513 50.7542L22.2388 49.1121L22.4817 49.5539L27.8954 51.1016L27.9513 50.7542Z" fill="white"/>
<path fill-rule="evenodd" clip-rule="evenodd" d="M28.4426 45.6384L27.4961 50.9889L27.887 51.0987L28.8167 45.95L28.4426 45.6384Z" fill="white"/>
<path fill-rule="evenodd" clip-rule="evenodd" d="M31.1134 47.8618L28.5707 45.7478L28.2441 45.9878L31.1134 48.3213V47.8618Z" fill="white"/>
<path fill-rule="evenodd" clip-rule="evenodd" d="M25.7719 37.9762L26.1572 37.8919L22.8709 26.9917L22.709 27.8243L25.7719 37.9762Z" fill="white"/>
<path fill-rule="evenodd" clip-rule="evenodd" d="M22.9707 28.6929L24.4254 20.9009L23.8837 21.5675L22.7139 27.8297L22.9707 28.6929Z" fill="white"/>
<path fill-rule="evenodd" clip-rule="evenodd" d="M29.4673 29.2881L25.3462 20.1476L25.7427 20.0557L29.3695 28.1082L29.4673 29.2881Z" fill="white"/>
<path fill-rule="evenodd" clip-rule="evenodd" d="M30.0442 37.0346L29.3657 28.0779L28.8799 26.9849L29.6477 37.1189L30.0442 37.0346Z" fill="white"/>
<path fill-rule="evenodd" clip-rule="evenodd" d="M24.9834 20.2263L25.7484 20.0603L25.9243 20.4664L25.1007 20.6503L24.9834 20.2263Z" fill="white"/>
<path fill-rule="evenodd" clip-rule="evenodd" d="M30.9123 51.5076L28.433 50.8691L27.8857 51.099L30.9123 51.8882V51.5076Z" fill="white"/>
<path fill-rule="evenodd" clip-rule="evenodd" d="M29.8067 50.4424L27.9528 50.754L27.8857 51.0987L29.6364 50.8127L29.8067 50.4424Z" fill="white"/>
<path fill-rule="evenodd" clip-rule="evenodd" d="M31.1159 49.5049L29.2632 50.5922L29.6371 50.8117L31.1159 49.9413V49.5049Z" fill="white"/>
<path fill-rule="evenodd" clip-rule="evenodd" d="M26.4781 41.2202L25.4395 42.7117L25.5483 43.1816L26.668 41.6288L26.4781 41.2202Z" fill="white"/>
<path fill-rule="evenodd" clip-rule="evenodd" d="M25.4395 42.711L25.8497 44.4241L26.3019 44.6743L25.7437 42.2744L25.4395 42.711Z" fill="white"/>
<path fill-rule="evenodd" clip-rule="evenodd" d="M27.7589 32.3657L25.5029 38.0355L25.9832 37.9307L27.798 33.3413L27.7589 32.3657Z" fill="white"/>
<path fill-rule="evenodd" clip-rule="evenodd" d="M27.188 28.1335L27.4393 34.2477L27.805 33.3308L27.5956 28.2383L27.188 28.1335Z" fill="white"/>
<path fill-rule="evenodd" clip-rule="evenodd" d="M27.6638 29.9673L24.9834 20.2266L25.3659 20.1423L27.5995 28.2562L27.6638 29.9673Z" fill="white"/>
<path fill-rule="evenodd" clip-rule="evenodd" d="M23.881 21.5623L24.9839 20.2266L25.1095 20.648L23.7358 22.3259L23.881 21.5623Z" fill="white"/>
</g>
<defs>
<filter id="filter0_d_1366_4503" x="0.125977" y="0.0556641" width="61.5576" height="71.8325" filterUnits="userSpaceOnUse" color-interpolation-filters="sRGB">
<feFlood flood-opacity="0" result="BackgroundImageFix"/>
<feColorMatrix in="SourceAlpha" type="matrix" values="0 0 0 0 0 0 0 0 0 0 0 0 0 0 0 0 0 0 127 0" result="hardAlpha"/>
<feOffset/>
<feGaussianBlur stdDeviation="10"/>
<feComposite in2="hardAlpha" operator="out"/>
<feColorMatrix type="matrix" values="0 0 0 0 0 0 0 0 0 0 0 0 0 0 0 0 0 0 0.1 0"/>
<feBlend mode="normal" in2="BackgroundImageFix" result="effect1_dropShadow_1366_4503"/>
<feBlend mode="normal" in="SourceGraphic" in2="effect1_dropShadow_1366_4503" result="shape"/>
</filter>
</defs>
</svg>
