<svg width="56" height="64" viewBox="0 0 56 64" fill="none" xmlns="http://www.w3.org/2000/svg">
<g id="Group 18">
<circle id="Ellipse 206" cx="28.3078" cy="31.6503" r="17.2277" fill="black" fill-opacity="0.25"/>
<g id="Group" filter="url(#filter0_d_1361_3857)">
<path id="Vector" fill-rule="evenodd" clip-rule="evenodd" d="M26.0959 39.0017L29.5872 38.9866L29.574 39.2586L26.0864 39.2737L26.0959 39.0017Z" fill="white"/>
<path id="Vector_2" fill-rule="evenodd" clip-rule="evenodd" d="M32.2354 33.2598L33.5163 36.7833L33.2782 36.925L31.918 33.1824L32.2354 33.2598Z" fill="white"/>
<path id="Vector_3" fill-rule="evenodd" clip-rule="evenodd" d="M27.8467 32.4778V32.1963L32.2354 33.2599L32.3488 33.5679L27.8467 32.4778Z" fill="white"/>
<path id="Vector_4" fill-rule="evenodd" clip-rule="evenodd" d="M29.5444 38.8619L33.425 36.5305L33.5912 36.7402L29.7881 38.9941L29.5444 38.8619Z" fill="white"/>
<path id="Vector_5" fill-rule="evenodd" clip-rule="evenodd" d="M29.3076 39.432L31.9412 33.188L32.2341 33.2617L29.6099 39.415L29.3076 39.432Z" fill="white"/>
<path id="Vector_6" fill-rule="evenodd" clip-rule="evenodd" d="M33.4231 36.5305L35.1704 38.733L35.0343 39.0013L33.1851 36.6741L33.4231 36.5305Z" fill="white"/>
<path id="Vector_7" fill-rule="evenodd" clip-rule="evenodd" d="M33.2124 42.0035L34.9808 38.4951L35.1716 38.7332L33.577 41.8901L33.2124 42.0035Z" fill="white"/>
<path id="Vector_8" fill-rule="evenodd" clip-rule="evenodd" d="M29.874 42.7764L33.7413 41.5635L33.577 41.8903L29.9156 43.0314L29.874 42.7764Z" fill="white"/>
<path id="Vector_9" fill-rule="evenodd" clip-rule="evenodd" d="M29.5442 38.9939L30.1827 42.9481L29.9164 43.0331L29.291 39.2263L29.5442 38.9939Z" fill="white"/>
<path id="Vector_10" fill-rule="evenodd" clip-rule="evenodd" d="M27.7354 40.639L29.4559 39.0752L29.6769 39.2527L27.7354 40.9789V40.639Z" fill="white"/>
<path id="Vector_11" fill-rule="evenodd" clip-rule="evenodd" d="M31.3515 33.3257L31.0908 33.2633L33.3126 25.2L33.4241 25.8159L31.3515 33.3257Z" fill="white"/>
<path id="Vector_12" fill-rule="evenodd" clip-rule="evenodd" d="M33.247 26.4585L32.2627 20.6943L32.6292 21.1874L33.4189 25.8199L33.247 26.4585Z" fill="white"/>
<path id="Vector_13" fill-rule="evenodd" clip-rule="evenodd" d="M28.8516 26.8988L31.6401 20.1371L31.3718 20.0691L28.9177 26.0259L28.8516 26.8988Z" fill="white"/>
<path id="Vector_14" fill-rule="evenodd" clip-rule="evenodd" d="M28.4619 32.6293L28.9191 26.0037L29.2497 25.1951L28.7302 32.6917L28.4619 32.6293Z" fill="white"/>
<path id="Vector_15" fill-rule="evenodd" clip-rule="evenodd" d="M31.8847 20.1953L31.3671 20.0725L31.248 20.3729L31.8054 20.5089L31.8847 20.1953Z" fill="white"/>
<path id="Vector_16" fill-rule="evenodd" clip-rule="evenodd" d="M27.8735 43.3356L29.5493 42.8633L29.9177 43.0333L27.8735 43.6171V43.3356Z" fill="white"/>
<path id="Vector_17" fill-rule="evenodd" clip-rule="evenodd" d="M28.6216 42.5476L29.8742 42.7762L29.9157 43.0313L28.7368 42.8216L28.6216 42.5476Z" fill="white"/>
<path id="Vector_18" fill-rule="evenodd" clip-rule="evenodd" d="M27.7354 41.854L28.989 42.6583L28.736 42.8207L27.7354 42.1769V41.854Z" fill="white"/>
<path id="Vector_19" fill-rule="evenodd" clip-rule="evenodd" d="M30.8741 35.7256L31.575 36.81L31.4956 37.1765L30.7456 36.0279L30.8741 35.7256Z" fill="white"/>
<path id="Vector_20" fill-rule="evenodd" clip-rule="evenodd" d="M31.5749 36.8099L31.2991 38.096L30.9932 38.2811L31.3728 36.4963L31.5749 36.8099Z" fill="white"/>
<path id="Vector_21" fill-rule="evenodd" clip-rule="evenodd" d="M30.0069 29.1755L31.5334 33.3697L31.2084 33.2922L29.9785 29.8972L30.0069 29.1755Z" fill="white"/>
<path id="Vector_22" fill-rule="evenodd" clip-rule="evenodd" d="M30.3936 26.0447L30.2236 30.5676L29.9761 29.8893L30.1159 26.1221L30.3936 26.0447Z" fill="white"/>
<path id="Vector_23" fill-rule="evenodd" clip-rule="evenodd" d="M30.0708 27.4013L31.8845 20.1956L31.6257 20.1333L30.1143 26.1355L30.0708 27.4013Z" fill="white"/>
<path id="Vector_24" fill-rule="evenodd" clip-rule="evenodd" d="M32.6296 21.1836L31.8834 20.1956L31.7983 20.5073L32.7279 21.7485L32.6296 21.1836Z" fill="white"/>
<path id="Vector_25" fill-rule="evenodd" clip-rule="evenodd" d="M27.7354 40.509H28.0205V42.2787H27.7354V40.509Z" fill="white"/>
<path id="Vector_26" fill-rule="evenodd" clip-rule="evenodd" d="M23.5172 33.2598L22.2363 36.7833L22.4744 36.9231L23.8365 33.1824L23.5172 33.2598Z" fill="white"/>
<path id="Vector_27" fill-rule="evenodd" clip-rule="evenodd" d="M27.9098 32.4778L27.9079 32.1963L23.5192 33.2599L23.4077 33.5679L27.9098 32.4778Z" fill="white"/>
<path id="Vector_28" fill-rule="evenodd" clip-rule="evenodd" d="M26.2139 38.8616L22.3352 36.5283L22.1689 36.7399L25.9701 38.9938L26.2139 38.8616Z" fill="white"/>
<path id="Vector_29" fill-rule="evenodd" clip-rule="evenodd" d="M26.4479 39.432L23.8124 33.188L23.5195 33.2617L26.1532 39.432H26.4479Z" fill="white"/>
<path id="Vector_30" fill-rule="evenodd" clip-rule="evenodd" d="M22.3336 36.5283L20.5845 38.7327L20.7186 39.001L22.5698 36.67L22.3336 36.5283Z" fill="white"/>
<path id="Vector_31" fill-rule="evenodd" clip-rule="evenodd" d="M22.5436 42.0035L20.7734 38.4951L20.5845 38.7332L22.179 41.8901L22.5436 42.0035Z" fill="white"/>
<path id="Vector_32" fill-rule="evenodd" clip-rule="evenodd" d="M25.8796 42.7783L22.0142 41.5635L22.1785 41.8903L25.8418 43.0352L25.8796 42.7783Z" fill="white"/>
<path id="Vector_33" fill-rule="evenodd" clip-rule="evenodd" d="M26.2117 38.9939L25.5713 42.9519L25.8358 43.0331L26.4649 39.2244L26.2117 38.9939Z" fill="white"/>
<path id="Vector_34" fill-rule="evenodd" clip-rule="evenodd" d="M28.0192 40.6385L26.2986 39.0747L26.0776 39.2522L28.0192 40.9785V40.6385Z" fill="white"/>
<path id="Vector_35" fill-rule="evenodd" clip-rule="evenodd" d="M24.4046 33.3257L24.6653 33.2633L22.4416 25.2L22.332 25.8159L24.4046 33.3257Z" fill="white"/>
<path id="Vector_36" fill-rule="evenodd" clip-rule="evenodd" d="M22.5093 26.4585L23.4936 20.6943L23.1271 21.1874L22.3354 25.8199L22.5093 26.4585Z" fill="white"/>
<path id="Vector_37" fill-rule="evenodd" clip-rule="evenodd" d="M26.9053 26.8988L24.1167 20.1371L24.385 20.0691L26.8391 26.0259L26.9053 26.8988Z" fill="white"/>
<path id="Vector_38" fill-rule="evenodd" clip-rule="evenodd" d="M27.2956 32.6293L26.8365 26.0037L26.5078 25.1951L27.0274 32.6917L27.2956 32.6293Z" fill="white"/>
<path id="Vector_39" fill-rule="evenodd" clip-rule="evenodd" d="M23.8711 20.1953L24.3888 20.0725L24.5078 20.3729L23.9504 20.5089L23.8711 20.1953Z" fill="white"/>
<path id="Vector_40" fill-rule="evenodd" clip-rule="evenodd" d="M27.8829 43.3356L26.2053 42.8633L25.835 43.0333L27.8829 43.6171V43.3356Z" fill="white"/>
<path id="Vector_41" fill-rule="evenodd" clip-rule="evenodd" d="M27.1348 42.5476L25.8803 42.7781L25.835 43.0331L27.0195 42.8216L27.1348 42.5476Z" fill="white"/>
<path id="Vector_42" fill-rule="evenodd" clip-rule="evenodd" d="M28.0208 41.854L26.7671 42.6583L27.0201 42.8207L28.0208 42.1769V41.854Z" fill="white"/>
<path id="Vector_43" fill-rule="evenodd" clip-rule="evenodd" d="M24.8825 35.7256L24.1797 36.8289L24.2534 37.1765L25.011 36.0279L24.8825 35.7256Z" fill="white"/>
<path id="Vector_44" fill-rule="evenodd" clip-rule="evenodd" d="M24.1797 36.8283L24.4573 38.0956L24.7633 38.2807L24.3855 36.5054L24.1797 36.8283Z" fill="white"/>
<path id="Vector_45" fill-rule="evenodd" clip-rule="evenodd" d="M25.7492 29.1755L24.2227 33.3697L24.5476 33.2922L25.7756 29.8972L25.7492 29.1755Z" fill="white"/>
<path id="Vector_46" fill-rule="evenodd" clip-rule="evenodd" d="M25.3628 26.0447L25.5328 30.5676L25.7803 29.8893L25.6386 26.1221L25.3628 26.0447Z" fill="white"/>
<path id="Vector_47" fill-rule="evenodd" clip-rule="evenodd" d="M25.6848 27.4013L23.8711 20.1956L24.1299 20.1333L25.6413 26.1355L25.6848 27.4013Z" fill="white"/>
<path id="Vector_48" fill-rule="evenodd" clip-rule="evenodd" d="M23.1251 21.1836L23.8714 20.1956L23.9564 20.5073L23.0269 21.7485L23.1251 21.1836Z" fill="white"/>
</g>
</g>
<defs>
<filter id="filter0_d_1361_3857" x="0.584473" y="0.0690918" width="54.5869" height="63.5481" filterUnits="userSpaceOnUse" color-interpolation-filters="sRGB">
<feFlood flood-opacity="0" result="BackgroundImageFix"/>
<feColorMatrix in="SourceAlpha" type="matrix" values="0 0 0 0 0 0 0 0 0 0 0 0 0 0 0 0 0 0 127 0" result="hardAlpha"/>
<feOffset/>
<feGaussianBlur stdDeviation="10"/>
<feComposite in2="hardAlpha" operator="out"/>
<feColorMatrix type="matrix" values="0 0 0 0 0 0 0 0 0 0 0 0 0 0 0 0 0 0 0.1 0"/>
<feBlend mode="normal" in2="BackgroundImageFix" result="effect1_dropShadow_1361_3857"/>
<feBlend mode="normal" in="SourceGraphic" in2="effect1_dropShadow_1361_3857" result="shape"/>
</filter>
</defs>
</svg>
