<svg width="61" height="53" viewBox="0 0 61 53" fill="none" xmlns="http://www.w3.org/2000/svg">
<g id="Group 16">
<g id="Vector" filter="url(#filter0_d_1361_3917)">
<path d="M40.9208 28.2703C40.9133 28.3674 40.8789 28.4605 40.8213 28.539C40.7636 28.6175 40.6852 28.6782 40.5948 28.7144C40.5044 28.7506 40.4057 28.7607 40.3098 28.7436C40.214 28.7265 40.1248 28.6828 40.0525 28.6176L37.7083 26.2734L32.3252 30.8751C32.1875 31.0182 32.0223 31.132 31.8395 31.2098C31.6568 31.2876 31.4602 31.3277 31.2616 31.3277C31.063 31.3277 30.8664 31.2876 30.6836 31.2098C30.5009 31.132 30.3357 31.0182 30.198 30.8751L26.9421 27.185L21.1683 32.2643C21.1235 32.3188 21.0672 32.3627 21.0033 32.3929C20.9395 32.423 20.8698 32.4387 20.7993 32.4387C20.7287 32.4387 20.659 32.423 20.5952 32.3929C20.5314 32.3627 20.4751 32.3188 20.4303 32.2643L20.1698 32.0038C20.1225 31.9591 20.0848 31.9053 20.0591 31.8456C20.0333 31.7859 20.02 31.7215 20.02 31.6565C20.02 31.5915 20.0333 31.5271 20.0591 31.4674C20.0848 31.4077 20.1225 31.3538 20.1698 31.3092L25.9002 23.5384C26.0379 23.3953 26.2031 23.2815 26.3858 23.2037C26.5686 23.1259 26.7652 23.0858 26.9638 23.0858C27.1624 23.0858 27.359 23.1259 27.5417 23.2037C27.7245 23.2815 27.8897 23.3953 28.0274 23.5384L31.2833 26.7943L34.5826 22.9741L32.4554 21.0205C32.3933 20.9438 32.3525 20.852 32.337 20.7545C32.3214 20.657 32.3318 20.5571 32.3669 20.4649C32.4021 20.3726 32.4608 20.2911 32.5373 20.2287C32.6138 20.1662 32.7053 20.1249 32.8027 20.1089H39.9223C40.191 20.1311 40.4406 20.2566 40.6187 20.4589C40.7968 20.6613 40.8895 20.9249 40.8773 21.1942L40.9208 28.2703Z" fill="black" fill-opacity="0.25" shape-rendering="crispEdges"/>
</g>
</g>
<defs>
<filter id="filter0_d_1361_3917" x="0.0200195" y="0.108887" width="60.9009" height="52.3298" filterUnits="userSpaceOnUse" color-interpolation-filters="sRGB">
<feFlood flood-opacity="0" result="BackgroundImageFix"/>
<feColorMatrix in="SourceAlpha" type="matrix" values="0 0 0 0 0 0 0 0 0 0 0 0 0 0 0 0 0 0 127 0" result="hardAlpha"/>
<feOffset/>
<feGaussianBlur stdDeviation="10"/>
<feComposite in2="hardAlpha" operator="out"/>
<feColorMatrix type="matrix" values="0 0 0 0 0 0 0 0 0 0 0 0 0 0 0 0 0 0 0.1 0"/>
<feBlend mode="normal" in2="BackgroundImageFix" result="effect1_dropShadow_1361_3917"/>
<feBlend mode="normal" in="SourceGraphic" in2="effect1_dropShadow_1361_3917" result="shape"/>
</filter>
</defs>
</svg>
