<svg width="25" height="24" viewBox="0 0 25 24" fill="none" xmlns="http://www.w3.org/2000/svg">
<g id="Icons/search_24px">
<path id="Vector (Stroke)" fill-rule="evenodd" clip-rule="evenodd" d="M10.131 1.44774C5.86481 1.44774 2.40641 5.00776 2.40641 9.39926C2.40641 13.7908 5.86481 17.3508 10.131 17.3508C14.3971 17.3508 17.8555 13.7908 17.8555 9.39926C17.8555 5.00776 14.3971 1.44774 10.131 1.44774ZM1 9.39926C1 4.20819 5.08807 0 10.131 0C15.1739 0 19.2619 4.20819 19.2619 9.39926C19.2619 11.8487 18.3517 14.0794 16.8604 15.7523L19.7934 18.7636C20.0684 19.0459 20.0689 19.5043 19.7947 19.7873C19.5204 20.0704 19.0752 20.071 18.8002 19.7887L15.8323 16.7415C14.27 18.0287 12.2878 18.7985 10.131 18.7985C5.08807 18.7985 1 14.5903 1 9.39926Z" fill="#050505"/>
</g>
</svg>
