<svg width="77" height="78" viewBox="0 0 77 78" fill="none" xmlns="http://www.w3.org/2000/svg">
<g id="Vector" filter="url(#filter0_d_1430_2974)">
<path d="M21 28.821L21 49.2376C21.0023 51.1708 21.7713 53.0241 23.1382 54.3911C24.5052 55.758 26.3585 56.527 28.2917 56.5293L48.7083 56.5293C50.6415 56.527 52.4948 55.758 53.8618 54.3911C55.2287 53.0241 55.9977 51.1708 56 49.2376L56 28.821C55.9977 26.8878 55.2287 25.0345 53.8618 23.6675C52.4948 22.3006 50.6415 21.5316 48.7083 21.5293L28.2917 21.5293C26.3585 21.5316 24.5052 22.3006 23.1382 23.6675C21.7713 25.0345 21.0023 26.8878 21 28.821ZM42.1969 30.7066L47.4265 35.9362C47.8328 36.3424 48.1551 36.8248 48.375 37.3556C48.5949 37.8865 48.7081 38.4554 48.7081 39.03C48.7081 39.6046 48.5949 40.1736 48.375 40.7044C48.1551 41.2353 47.8328 41.7176 47.4265 42.1239L42.1969 47.352L42.1604 47.387C42.024 47.526 41.8611 47.6363 41.6813 47.7113C41.5016 47.7863 41.3086 47.8245 41.1138 47.8238C40.919 47.823 40.7264 47.7832 40.5472 47.7067C40.3681 47.6303 40.2061 47.5187 40.0708 47.3786C39.9354 47.2385 39.8296 47.0727 39.7594 46.891C39.6892 46.7094 39.6561 46.5154 39.662 46.3208C39.668 46.1261 39.7129 45.9346 39.7941 45.7575C39.8753 45.5805 39.9911 45.4215 40.1348 45.2899L44.9371 40.4876L29.75 40.4978C29.3632 40.4978 28.9923 40.3442 28.7188 40.0707C28.4453 39.7972 28.2917 39.4263 28.2917 39.0395C28.2917 38.6527 28.4453 38.2818 28.7188 38.0083C28.9923 37.7348 29.3632 37.5812 29.75 37.5812L44.9356 37.571L40.1348 32.7687C39.9955 32.6341 39.8844 32.4732 39.808 32.2953C39.7315 32.1174 39.6913 31.926 39.6896 31.7324C39.688 31.5387 39.7248 31.3467 39.7982 31.1675C39.8715 30.9883 39.9798 30.8254 40.1167 30.6885C40.2536 30.5516 40.4165 30.4433 40.5957 30.37C40.7749 30.2966 40.9669 30.2598 41.1606 30.2614C41.3542 30.2631 41.5456 30.3033 41.7235 30.3798C41.9014 30.4562 42.0623 30.5673 42.1969 30.7066Z" fill="black"/>
<path d="M20.5 28.8204L20.5 28.821L20.5 49.2376L20.5 49.2382C20.5025 51.3038 21.3241 53.284 22.7847 54.7446C24.2453 56.2052 26.2255 57.0268 28.2911 57.0293L28.2917 57.0293L48.7083 57.0293L48.7089 57.0293C50.7745 57.0268 52.7547 56.2052 54.2153 54.7446C55.6759 53.284 56.4975 51.3038 56.5 49.2382L56.5 49.2376L56.5 28.821L56.5 28.8204C56.4975 26.7548 55.6759 24.7746 54.2153 23.314C52.7547 21.8534 50.7745 21.0318 48.7089 21.0293L48.7083 21.0293L28.2917 21.0293L28.2911 21.0293C26.2255 21.0318 24.2453 21.8534 22.7847 23.314C21.3241 24.7746 20.5025 26.7548 20.5 28.8204ZM41.8372 31.0539L41.8372 31.054L41.8433 31.0601L47.0729 36.2897L47.0729 36.2898C47.4328 36.6496 47.7183 37.0768 47.9131 37.547C48.1079 38.0172 48.2081 38.5211 48.2081 39.03C48.2081 39.539 48.1079 40.0429 47.9131 40.5131C47.7183 40.9832 47.4328 41.4104 47.073 41.7703C47.0729 41.7703 47.0729 41.7703 47.0729 41.7703L41.847 46.9948L41.8141 47.0263L41.8088 47.0315L41.8036 47.0368C41.7139 47.1281 41.6069 47.2006 41.4888 47.2499C41.3706 47.2991 41.2438 47.3243 41.1158 47.3238C40.9878 47.3232 40.8612 47.2971 40.7435 47.2469C40.6258 47.1966 40.5193 47.1233 40.4304 47.0312C40.3415 46.9392 40.2719 46.8302 40.2258 46.7108L39.7594 46.891L40.2258 46.7108C40.1796 46.5914 40.1579 46.464 40.1618 46.3361C40.1657 46.2081 40.1952 46.0823 40.2486 45.9659C40.3019 45.8496 40.3781 45.7451 40.4725 45.6587L40.4806 45.6512L40.4883 45.6435L45.2906 40.8412L46.145 39.9868L44.9367 39.9876L29.75 39.9978C29.7499 39.9978 29.7498 39.9978 29.7497 39.9978C29.4957 39.9978 29.252 39.8968 29.0724 39.7172C28.8926 39.5374 28.7917 39.2937 28.7917 39.0395C28.7917 38.7853 28.8926 38.5416 29.0724 38.3619C29.2521 38.1821 29.4958 38.0812 29.75 38.0812L29.7503 38.0812L44.936 38.071L46.1417 38.0702L45.2892 37.2175L40.4884 32.4152L40.4885 32.4151L40.4821 32.409C40.3906 32.3206 40.3176 32.2149 40.2674 32.098C40.2172 31.981 40.1907 31.8553 40.1896 31.728C40.1885 31.6008 40.2128 31.4746 40.2609 31.3568C40.3091 31.239 40.3803 31.132 40.4703 31.0421C40.5602 30.9521 40.6672 30.8809 40.785 30.8327C40.9028 30.7846 41.029 30.7603 41.1562 30.7614C41.2835 30.7625 41.4092 30.789 41.5262 30.8392C41.6431 30.8894 41.7488 30.9624 41.8372 31.0539Z" stroke="#ADDDD0"/>
</g>
<defs>
<filter id="filter0_d_1430_2974" x="0" y="0.529297" width="77" height="77" filterUnits="userSpaceOnUse" color-interpolation-filters="sRGB">
<feFlood flood-opacity="0" result="BackgroundImageFix"/>
<feColorMatrix in="SourceAlpha" type="matrix" values="0 0 0 0 0 0 0 0 0 0 0 0 0 0 0 0 0 0 127 0" result="hardAlpha"/>
<feOffset/>
<feGaussianBlur stdDeviation="10"/>
<feComposite in2="hardAlpha" operator="out"/>
<feColorMatrix type="matrix" values="0 0 0 0 0 0 0 0 0 0 0 0 0 0 0 0 0 0 0.1 0"/>
<feBlend mode="normal" in2="BackgroundImageFix" result="effect1_dropShadow_1430_2974"/>
<feBlend mode="normal" in="SourceGraphic" in2="effect1_dropShadow_1430_2974" result="shape"/>
</filter>
</defs>
</svg>
