<svg width="200" height="200" viewBox="0 0 200 200" fill="none" xmlns="http://www.w3.org/2000/svg">
<g id="paperrabbitlogo 1" clip-path="url(#clip0_1281_34876)">
<g id="Layer_x0020_1">
<g id="_105553126584480">
<path id="Vector" d="M52.9936 187.738V189.477H52.7109V184.455H54.0371C54.4175 184.509 54.7436 184.662 55.0045 184.933C55.3306 185.259 55.4828 185.64 55.4828 186.096C55.4828 186.542 55.3306 186.933 55.0045 187.26C54.6893 187.575 54.298 187.738 53.8523 187.738H52.9936ZM52.9936 184.738V187.444H53.8523C54.2219 187.444 54.5371 187.314 54.8089 187.053C55.0697 186.781 55.2002 186.466 55.2002 186.096C55.2002 185.716 55.0697 185.39 54.8089 185.129C54.5371 184.868 54.2219 184.738 53.8523 184.738H52.9936Z" fill="#373535"/>
<path id="1" d="M59.386 184.455V184.738H57.1576V186.825H59.386V187.107H57.1576V189.194H59.386V189.477H56.875V184.455H59.386Z" fill="#373535"/>
<path id="2" d="M61.2123 184.738V187.444H62.0602C62.4298 187.444 62.7559 187.314 63.0167 187.053C63.2885 186.781 63.4189 186.466 63.4189 186.096C63.4189 185.716 63.2885 185.39 63.0167 185.129C62.7559 184.868 62.4298 184.738 62.0602 184.738H61.2123ZM62.1471 187.738H61.2123V189.477H60.9297V184.455H62.245C62.6254 184.509 62.9515 184.662 63.2233 184.933C63.5385 185.259 63.7016 185.64 63.7016 186.096C63.7016 186.542 63.5385 186.933 63.2233 187.249C63.0059 187.477 62.745 187.618 62.4515 187.684L63.6146 189.477H63.2668L62.1471 187.738Z" fill="#373535"/>
<path id="3" d="M66.4364 186.694C66.0777 186.575 65.7951 186.411 65.5885 186.205C65.382 185.998 65.2842 185.748 65.2842 185.455C65.2842 185.161 65.382 184.911 65.5885 184.705C65.7951 184.498 66.0451 184.39 66.3386 184.39C66.632 184.39 66.8929 184.498 67.0995 184.705C67.2082 184.814 67.2951 184.944 67.3386 185.085L67.0777 185.172C67.0451 185.074 66.9799 184.977 66.8929 184.901C66.7408 184.748 66.5668 184.661 66.3386 184.661C66.1212 184.661 65.9472 184.748 65.7951 184.901C65.6429 185.042 65.5668 185.238 65.5668 185.455C65.5668 185.661 65.6429 185.857 65.7951 186.009C65.9255 186.14 66.1212 186.27 66.382 186.39C66.7842 186.52 67.1212 186.716 67.4038 186.998C67.6865 187.281 67.8278 187.64 67.8278 188.042C67.8278 188.455 67.6865 188.803 67.393 189.096C67.0995 189.39 66.7516 189.531 66.3386 189.531C65.9255 189.531 65.5776 189.39 65.2842 189.096C65.0559 188.868 64.9146 188.596 64.8711 188.281L65.132 188.194C65.1646 188.466 65.2842 188.694 65.4798 188.901C65.7298 189.14 66.0125 189.259 66.3386 189.259C66.6755 189.259 66.9582 189.14 67.2082 188.901C67.4364 188.662 67.556 188.379 67.556 188.042C67.556 187.716 67.4364 187.433 67.2082 187.194C66.9908 186.977 66.7408 186.825 66.4364 186.694Z" fill="#373535"/>
<path id="4" d="M69.4623 187.738V189.477H69.1797V184.455H70.495C70.8754 184.509 71.2015 184.662 71.4733 184.933C71.7885 185.259 71.9516 185.64 71.9516 186.096C71.9516 186.542 71.7885 186.933 71.4733 187.26C71.1472 187.575 70.7667 187.738 70.3102 187.738H69.4623ZM69.4623 184.738V187.444H70.3102C70.6798 187.444 71.0059 187.314 71.2667 187.053C71.5385 186.781 71.6689 186.466 71.6689 186.096C71.6689 185.716 71.5385 185.39 71.2667 185.129C71.0059 184.868 70.6798 184.738 70.3102 184.738H69.4623Z" fill="#373535"/>
<path id="5" d="M75.8391 184.455V184.738H73.6107V186.825H75.8391V187.107H73.6107V189.194H75.8391V189.477H73.3281V184.455H75.8391Z" fill="#373535"/>
<path id="6" d="M81.3402 188.672L81.5468 188.879C81.0576 189.314 80.4815 189.531 79.8184 189.531C79.1118 189.531 78.4923 189.292 77.9922 188.781C77.5031 188.281 77.2422 187.683 77.2422 186.966C77.2422 186.248 77.5031 185.651 77.9922 185.151C78.4923 184.64 79.1118 184.39 79.8184 184.39C80.4815 184.39 81.0576 184.618 81.5468 185.064L81.3402 185.259C80.8945 184.879 80.3945 184.683 79.8184 184.683C79.1879 184.683 78.6553 184.911 78.2096 185.346C77.7531 185.792 77.5357 186.335 77.5357 186.966C77.5357 187.596 77.7531 188.14 78.2096 188.586C78.6553 189.031 79.1879 189.249 79.8184 189.249C80.3945 189.249 80.8945 189.064 81.3402 188.672Z" fill="#373535"/>
<path id="7" d="M84.1872 184.738V189.477H83.8937V184.738H82.6328V184.455H85.459V184.738H84.1872Z" fill="#373535"/>
<path id="8" d="M87.0365 184.455V189.477H86.7539V184.455H87.0365Z" fill="#373535"/>
<path id="9" d="M91.7002 184.455H92.0046L90.2002 189.477H90.0154L88.2109 184.455H88.5153L90.1023 188.966L91.7002 184.455Z" fill="#373535"/>
<path id="10" d="M95.6555 184.455V184.738H93.4272V186.825H95.6555V187.107H93.4272V189.194H95.6555V189.477H93.1445V184.455H95.6555Z" fill="#373535"/>
<path id="Vector_2" d="M53.2297 187.977V189.716H52.4688V184.216H54.0232H54.0558C54.2732 184.248 54.4797 184.303 54.6645 184.4C54.8493 184.487 55.0232 184.607 55.1754 184.759C55.3493 184.944 55.4906 185.15 55.5885 185.368C55.6754 185.596 55.7189 185.835 55.7189 186.085C55.7189 186.346 55.6754 186.585 55.5885 186.814C55.4906 187.031 55.3493 187.237 55.1754 187.422C54.9906 187.607 54.7841 187.748 54.5667 187.835C54.3384 187.933 54.0993 187.977 53.8493 187.977H53.2297ZM53.2297 184.977V187.205H53.8493C54.0014 187.205 54.1427 187.183 54.2732 187.129C54.4036 187.074 54.5232 186.987 54.6319 186.879C54.7406 186.77 54.8276 186.651 54.8819 186.52C54.9363 186.39 54.958 186.248 54.958 186.085C54.958 185.933 54.9363 185.792 54.8819 185.661C54.8276 185.531 54.7406 185.411 54.6319 185.303C54.5232 185.194 54.4036 185.107 54.2732 185.063C54.1427 185.009 54.0014 184.977 53.8493 184.977H53.2297ZM59.6104 184.455V184.977H57.382V186.585H59.6104V187.346H57.382V188.955H59.6104V189.716H56.6211V184.216H59.6104V184.455ZM61.4475 184.977V187.205H62.0562C62.2084 187.205 62.3497 187.183 62.4801 187.129C62.6106 187.074 62.7301 186.987 62.8497 186.879C62.9584 186.77 63.0345 186.651 63.0888 186.52C63.1432 186.39 63.1758 186.248 63.1758 186.085C63.1758 185.933 63.1432 185.792 63.0888 185.661C63.0345 185.531 62.9584 185.411 62.8497 185.303C62.7301 185.194 62.6106 185.107 62.4801 185.063C62.3497 185.009 62.2084 184.977 62.0562 184.977H61.4475ZM62.0127 187.977H61.4475V189.716H60.6757V184.216H62.241H62.2736C62.491 184.248 62.6867 184.303 62.8714 184.4C63.0671 184.487 63.2301 184.607 63.3823 184.759C63.5671 184.944 63.7084 185.15 63.7954 185.368C63.8932 185.596 63.9367 185.835 63.9367 186.085C63.9367 186.346 63.8932 186.585 63.7954 186.814C63.7084 187.031 63.5671 187.237 63.3823 187.422C63.2628 187.542 63.1215 187.651 62.9801 187.738C62.9258 187.77 62.8714 187.792 62.8171 187.814L64.0454 189.716H63.1323L62.0127 187.977ZM66.3499 186.911C66.1651 186.857 65.9912 186.781 65.839 186.694C65.6759 186.596 65.5346 186.487 65.415 186.379C65.2955 186.248 65.1976 186.107 65.1324 185.955C65.0672 185.792 65.0346 185.629 65.0346 185.455C65.0346 185.27 65.0672 185.107 65.1324 184.955C65.1976 184.803 65.2955 184.661 65.415 184.531C65.5455 184.411 65.6868 184.313 65.839 184.248C66.002 184.183 66.1651 184.15 66.339 184.15C66.5238 184.15 66.6868 184.183 66.839 184.248C66.9912 184.313 67.1325 184.411 67.263 184.531C67.3282 184.596 67.3934 184.672 67.4478 184.748C67.4912 184.835 67.5347 184.911 67.5673 184.998L67.6325 185.216L66.9369 185.487L66.8499 185.259C66.839 185.227 66.8282 185.194 66.8064 185.161C66.7847 185.129 66.7629 185.096 66.7303 185.063C66.676 185.009 66.6108 184.966 66.5564 184.944C66.4912 184.922 66.4151 184.911 66.339 184.911C66.2629 184.911 66.1977 184.922 66.1325 184.944C66.0673 184.966 66.0129 185.009 65.9585 185.063C65.9042 185.118 65.8607 185.172 65.839 185.237C65.8172 185.303 65.7955 185.368 65.7955 185.455C65.7955 185.531 65.8172 185.596 65.839 185.661C65.8607 185.727 65.9042 185.781 65.9585 185.835C66.0129 185.89 66.089 185.955 66.1759 186.009C66.2629 186.064 66.3607 186.118 66.4694 186.161C66.676 186.237 66.8825 186.324 67.0564 186.433C67.2412 186.542 67.4151 186.672 67.5673 186.824C67.7304 186.987 67.8608 187.183 67.9369 187.379C68.0239 187.585 68.0673 187.814 68.0673 188.042C68.0673 188.281 68.0239 188.498 67.9369 188.705C67.8608 188.911 67.7304 189.096 67.5673 189.27C67.3934 189.433 67.2086 189.564 67.0021 189.651C66.7955 189.738 66.5781 189.781 66.339 189.781C66.1107 189.781 65.8825 189.738 65.6759 189.651C65.4803 189.564 65.2846 189.433 65.1216 189.27C64.9911 189.129 64.8824 188.988 64.7954 188.835C64.7194 188.672 64.665 188.498 64.6324 188.325L64.6107 188.129L65.3498 187.857L65.3716 188.161C65.3824 188.27 65.415 188.379 65.4585 188.466C65.502 188.564 65.5672 188.651 65.6542 188.727V188.738C65.752 188.825 65.8607 188.901 65.9694 188.944C66.0781 188.998 66.2086 189.02 66.339 189.02C66.4803 189.02 66.5999 188.998 66.7195 188.944C66.8282 188.901 66.9369 188.825 67.0347 188.738C67.1325 188.64 67.1977 188.531 67.2412 188.422C67.2956 188.303 67.3173 188.183 67.3173 188.042C67.3173 187.911 67.2956 187.792 67.2412 187.672C67.1977 187.564 67.1216 187.455 67.0347 187.357C66.9369 187.27 66.839 187.183 66.7195 187.107C66.6108 187.042 66.4803 186.977 66.3499 186.911ZM69.6979 187.977V189.716H68.9261V184.216H70.4914H70.524C70.7414 184.248 70.9371 184.303 71.1218 184.4C71.3175 184.487 71.4806 184.607 71.6327 184.759C71.8175 184.944 71.9588 185.15 72.0458 185.368C72.1436 185.596 72.1871 185.835 72.1871 186.085C72.1871 186.346 72.1436 186.585 72.0458 186.814C71.9588 187.031 71.8175 187.237 71.6327 187.422C71.448 187.607 71.2523 187.748 71.024 187.835C70.8066 187.933 70.5675 187.977 70.3066 187.977H69.6979ZM69.6979 184.977V187.205H70.3066C70.4588 187.205 70.6001 187.183 70.7305 187.129C70.861 187.074 70.9805 186.987 71.1001 186.879C71.2088 186.77 71.2849 186.651 71.3392 186.52C71.3936 186.39 71.4262 186.248 71.4262 186.085C71.4262 185.933 71.3936 185.792 71.3392 185.661C71.2849 185.531 71.2088 185.411 71.1001 185.303C70.9805 185.194 70.861 185.107 70.7305 185.063C70.611 185.009 70.4588 184.977 70.3066 184.977H69.6979ZM76.0786 184.455V184.977H73.8502V186.585H76.0786V187.346H73.8502V188.955H76.0786V189.716H73.0893V184.216H76.0786V184.455ZM81.4919 188.498L81.905 188.868L81.7093 189.042C81.4484 189.292 81.155 189.477 80.8397 189.596C80.5245 189.716 80.1766 189.781 79.8179 189.781C79.4375 189.781 79.0679 189.705 78.7418 189.575C78.4048 189.433 78.1005 189.227 77.8287 188.955C77.5569 188.683 77.3504 188.379 77.2091 188.042C77.0787 187.716 77.0026 187.346 77.0026 186.966C77.0026 186.585 77.0787 186.216 77.2091 185.89C77.3504 185.553 77.5569 185.248 77.8287 184.977C78.1005 184.705 78.4048 184.498 78.7418 184.357C79.0679 184.216 79.4375 184.15 79.8179 184.15C80.1766 184.15 80.5245 184.216 80.8397 184.335C81.155 184.455 81.4484 184.64 81.7093 184.89L81.905 185.063L81.3397 185.574L81.1767 185.433C80.981 185.259 80.7745 185.129 80.5462 185.053C80.3288 184.966 80.0788 184.922 79.8179 184.922C79.5353 184.922 79.2744 184.966 79.0353 185.074C78.7961 185.172 78.5787 185.324 78.3722 185.52C78.1765 185.716 78.0244 185.944 77.9265 186.183C77.8178 186.422 77.7744 186.683 77.7744 186.966C77.7744 187.531 77.97 188.02 78.3722 188.411C78.5787 188.618 78.7961 188.759 79.0353 188.857C79.2744 188.966 79.5353 189.009 79.8179 189.009C80.0788 189.009 80.3288 188.966 80.5462 188.879C80.7745 188.803 80.981 188.672 81.1767 188.498L81.3289 188.357L81.4919 188.498ZM84.4268 184.977V189.716H83.6659V184.977H82.3941V184.216H85.6987V184.977H84.4268ZM87.2748 184.455V189.716H86.5139V184.216H87.2748V184.455ZM91.699 184.216H92.3403L90.3619 189.716H89.851L87.8727 184.216H88.6879L90.1119 188.248L91.5359 184.216H91.699ZM95.8948 184.455V184.977H93.6664V186.585H95.8948V187.346H93.6664V188.955H95.8948V189.716H92.9055V184.216H95.8948V184.455Z" fill="#373535"/>
<path id="Vector_3" d="M99.3295 184.455V189.477H99.0469V184.455H99.3295Z" fill="#373535"/>
<path id="1_2" d="M101.253 184.455L104.601 189.14V184.455H104.884V189.477H104.449L101.177 184.912V189.477H100.895V184.455H101.253Z" fill="#373535"/>
<path id="2_2" d="M107.776 186.694C107.418 186.575 107.135 186.411 106.928 186.205C106.722 185.998 106.613 185.748 106.613 185.455C106.613 185.161 106.722 184.911 106.928 184.705C107.135 184.498 107.385 184.39 107.678 184.39C107.972 184.39 108.222 184.498 108.439 184.705C108.548 184.814 108.624 184.944 108.668 185.085L108.418 185.172C108.374 185.074 108.309 184.977 108.233 184.901C108.081 184.748 107.896 184.661 107.678 184.661C107.461 184.661 107.276 184.748 107.124 184.901C106.972 185.042 106.907 185.238 106.907 185.455C106.907 185.661 106.972 185.857 107.124 186.009C107.265 186.14 107.461 186.27 107.722 186.39C108.113 186.52 108.461 186.716 108.733 186.998C109.015 187.281 109.168 187.64 109.168 188.042C109.168 188.455 109.015 188.803 108.733 189.096C108.439 189.39 108.091 189.531 107.678 189.531C107.265 189.531 106.917 189.39 106.624 189.096C106.396 188.868 106.254 188.596 106.211 188.281L106.472 188.194C106.504 188.466 106.613 188.694 106.82 188.901C107.059 189.14 107.341 189.259 107.678 189.259C108.015 189.259 108.298 189.14 108.537 188.901C108.776 188.662 108.896 188.379 108.896 188.042C108.896 187.716 108.776 187.433 108.537 187.194C108.331 186.977 108.07 186.825 107.776 186.694Z" fill="#373535"/>
<path id="3_2" d="M110.829 184.455V189.477H110.547V184.455H110.829Z" fill="#373535"/>
<path id="4_2" d="M113.341 184.455C114.156 184.455 114.798 184.683 115.254 185.151C115.765 185.651 116.004 186.249 116.004 186.966C116.004 187.683 115.765 188.281 115.254 188.781C114.798 189.249 114.156 189.466 113.341 189.477H112.406V184.455H113.341ZM112.689 184.749V189.184H113.33C114.048 189.184 114.624 188.988 115.037 188.586C115.482 188.14 115.711 187.597 115.711 186.966C115.711 186.336 115.482 185.792 115.037 185.346C114.624 184.955 114.048 184.749 113.33 184.749H112.689Z" fill="#373535"/>
<path id="5_2" d="M119.886 184.455V184.738H117.658V186.825H119.886V187.107H117.658V189.194H119.886V189.477H117.375V184.455H119.886Z" fill="#373535"/>
<path id="Vector_4" d="M99.5695 184.455V189.716H98.8086V184.216H99.5695V184.455ZM101.45 184.313L104.352 188.39V184.216H105.124V189.716H104.32L101.417 185.65V189.716H100.657V184.216H101.374L101.45 184.313ZM101.222 184.813L101.135 184.694V184.846L101.222 184.813ZM104.646 189.194L104.548 189.227L104.57 189.238H104.646V189.194ZM107.689 186.911C107.494 186.857 107.331 186.781 107.179 186.694C107.016 186.596 106.874 186.487 106.755 186.379C106.635 186.248 106.537 186.107 106.472 185.955C106.407 185.792 106.374 185.629 106.374 185.455C106.374 185.27 106.407 185.107 106.472 184.955C106.537 184.803 106.624 184.661 106.755 184.531C106.885 184.411 107.026 184.313 107.179 184.248C107.331 184.183 107.505 184.15 107.679 184.15C107.853 184.15 108.026 184.183 108.179 184.248C108.331 184.313 108.472 184.411 108.603 184.531C108.668 184.596 108.733 184.672 108.776 184.748C108.831 184.835 108.874 184.911 108.896 184.998L108.972 185.216L108.276 185.487L108.189 185.259C108.179 185.227 108.157 185.194 108.146 185.161C108.124 185.129 108.092 185.096 108.059 185.063C108.005 185.009 107.95 184.966 107.885 184.944C107.831 184.922 107.755 184.911 107.679 184.911C107.603 184.911 107.537 184.922 107.472 184.944C107.407 184.966 107.352 185.009 107.298 185.063C107.244 185.118 107.2 185.172 107.179 185.237C107.146 185.303 107.135 185.368 107.135 185.455C107.135 185.531 107.146 185.596 107.179 185.661C107.2 185.727 107.244 185.781 107.298 185.835C107.352 185.89 107.429 185.955 107.505 186.009C107.592 186.064 107.689 186.118 107.809 186.161C108.016 186.237 108.211 186.324 108.396 186.433C108.581 186.542 108.755 186.672 108.907 186.824C109.07 186.987 109.19 187.183 109.276 187.379C109.363 187.585 109.407 187.814 109.407 188.042C109.407 188.281 109.363 188.498 109.276 188.705C109.19 188.911 109.07 189.096 108.896 189.27C108.733 189.433 108.548 189.564 108.342 189.651C108.135 189.738 107.918 189.781 107.679 189.781C107.439 189.781 107.222 189.738 107.016 189.651C106.809 189.564 106.624 189.433 106.461 189.27C106.32 189.129 106.211 188.988 106.135 188.835C106.048 188.672 105.994 188.498 105.972 188.325L105.939 188.129L106.679 187.857L106.711 188.161C106.722 188.27 106.755 188.379 106.798 188.466C106.842 188.564 106.907 188.651 106.994 188.727V188.738C107.092 188.825 107.189 188.901 107.309 188.944C107.418 188.998 107.548 189.02 107.679 189.02C107.82 189.02 107.939 188.998 108.059 188.944C108.168 188.901 108.276 188.825 108.363 188.738C108.461 188.64 108.537 188.531 108.581 188.422C108.635 188.303 108.657 188.183 108.657 188.042C108.657 187.911 108.635 187.792 108.581 187.672C108.537 187.564 108.461 187.455 108.363 187.357C108.276 187.27 108.168 187.183 108.059 187.107C107.95 187.042 107.82 186.977 107.689 186.911ZM111.07 184.455V189.716H110.298V184.216H111.07V184.455ZM113.331 184.216C113.777 184.216 114.168 184.281 114.516 184.4C114.875 184.531 115.179 184.727 115.429 184.977C115.701 185.248 115.907 185.553 116.049 185.89C116.179 186.216 116.255 186.585 116.255 186.966C116.255 187.346 116.179 187.716 116.049 188.042C115.907 188.379 115.701 188.683 115.429 188.955C115.179 189.205 114.875 189.401 114.516 189.531C114.168 189.651 113.777 189.716 113.342 189.716H112.168V184.216H113.331ZM112.929 184.987V188.944H113.331C113.983 188.944 114.505 188.77 114.875 188.411C115.07 188.216 115.222 187.988 115.32 187.748C115.418 187.509 115.472 187.248 115.472 186.966C115.472 186.683 115.418 186.422 115.32 186.172C115.222 185.944 115.07 185.716 114.875 185.52C114.69 185.346 114.472 185.216 114.222 185.118C113.962 185.031 113.668 184.987 113.331 184.987H112.929ZM120.125 184.455V184.977H117.896V186.585H120.125V187.346H117.896V188.955H120.125V189.716H117.136V184.216H120.125V184.455Z" fill="#373535"/>
<path id="Vector_5" d="M124.678 187.444L122.961 184.455H123.276L124.82 187.129L126.374 184.455H126.689L124.961 187.444V189.477H124.678V187.444Z" fill="#373535"/>
<path id="1_3" d="M130.354 184.379C131.06 184.379 131.68 184.629 132.18 185.14C132.68 185.64 132.93 186.249 132.93 186.955C132.93 187.673 132.68 188.281 132.18 188.781C131.68 189.292 131.06 189.531 130.354 189.531C129.647 189.531 129.027 189.292 128.527 188.781C128.027 188.281 127.777 187.673 127.777 186.955C127.777 186.249 128.027 185.64 128.527 185.14C129.027 184.629 129.647 184.379 130.354 184.379ZM130.354 184.662C129.723 184.662 129.18 184.89 128.734 185.346C128.288 185.792 128.06 186.325 128.06 186.955C128.06 187.596 128.288 188.129 128.734 188.575C129.18 189.031 129.723 189.249 130.354 189.249C130.984 189.249 131.517 189.031 131.973 188.575C132.419 188.129 132.647 187.596 132.647 186.955C132.647 186.325 132.419 185.792 131.973 185.346C131.517 184.89 130.984 184.662 130.354 184.662Z" fill="#373535"/>
<path id="2_3" d="M137.286 184.455H137.569V188.064C137.525 188.444 137.362 188.771 137.09 189.042C136.775 189.357 136.384 189.521 135.938 189.521C135.482 189.521 135.101 189.357 134.775 189.042C134.46 188.716 134.297 188.336 134.297 187.879V184.455H134.58V187.879C134.58 188.26 134.71 188.575 134.971 188.836C135.243 189.107 135.558 189.238 135.938 189.238C136.308 189.238 136.634 189.107 136.895 188.836C137.156 188.575 137.286 188.26 137.286 187.879V184.455Z" fill="#373535"/>
<path id="Vector_6" d="M124.441 187.51L122.539 184.217H123.42L124.822 186.652L126.235 184.217H127.105L125.202 187.51V189.717H124.441V187.51ZM130.355 184.141C130.735 184.141 131.105 184.206 131.431 184.347C131.768 184.488 132.072 184.695 132.344 184.967C132.616 185.238 132.833 185.543 132.963 185.88C133.105 186.217 133.17 186.576 133.17 186.956C133.17 187.347 133.105 187.706 132.963 188.043C132.822 188.38 132.616 188.684 132.344 188.956C132.072 189.228 131.768 189.434 131.431 189.576C131.105 189.706 130.735 189.782 130.355 189.782C129.963 189.782 129.605 189.706 129.268 189.576C128.942 189.434 128.637 189.228 128.365 188.956C128.083 188.684 127.887 188.38 127.746 188.043C127.605 187.706 127.539 187.347 127.539 186.956C127.539 186.576 127.605 186.217 127.746 185.88C127.887 185.543 128.083 185.238 128.365 184.967C128.637 184.695 128.942 184.488 129.279 184.347C129.605 184.206 129.963 184.141 130.355 184.141ZM130.355 184.912C130.072 184.912 129.811 184.956 129.572 185.054C129.333 185.162 129.105 185.304 128.909 185.51C128.702 185.706 128.55 185.934 128.452 186.173C128.355 186.412 128.3 186.673 128.3 186.956C128.3 187.239 128.355 187.51 128.452 187.749C128.55 187.989 128.702 188.206 128.909 188.413C129.105 188.608 129.322 188.76 129.572 188.858C129.811 188.956 130.072 189.01 130.355 189.01C130.637 189.01 130.898 188.967 131.137 188.858C131.387 188.76 131.605 188.608 131.8 188.413C132.007 188.206 132.159 187.989 132.257 187.749C132.355 187.51 132.409 187.249 132.409 186.956C132.409 186.673 132.355 186.412 132.257 186.173C132.159 185.934 132.007 185.717 131.8 185.51C131.605 185.304 131.387 185.162 131.137 185.054C130.898 184.956 130.637 184.912 130.355 184.912ZM137.29 184.217H137.822V188.065L137.812 188.097C137.79 188.315 137.725 188.51 137.638 188.706C137.54 188.891 137.42 189.054 137.268 189.206C137.083 189.391 136.888 189.532 136.659 189.619C136.442 189.717 136.192 189.76 135.942 189.76C135.681 189.76 135.442 189.717 135.214 189.619C134.996 189.532 134.79 189.391 134.605 189.206C134.431 189.032 134.29 188.826 134.192 188.608C134.105 188.38 134.061 188.141 134.061 187.88V184.217H134.822V187.88C134.822 188.043 134.844 188.184 134.898 188.315C134.953 188.434 135.04 188.554 135.148 188.673C135.257 188.782 135.377 188.858 135.507 188.913C135.638 188.967 135.79 189 135.942 189C136.094 189 136.235 188.967 136.366 188.913C136.496 188.858 136.616 188.782 136.725 188.673C136.844 188.565 136.92 188.445 136.975 188.315C137.029 188.184 137.051 188.043 137.051 187.88V184.217H137.29Z" fill="#373535"/>
<path id="Vector_7" d="M141.009 188.956C141.085 188.956 141.15 188.988 141.205 189.043C141.259 189.097 141.292 189.162 141.292 189.238C141.292 189.314 141.259 189.38 141.205 189.445C141.15 189.499 141.085 189.521 141.009 189.521C140.933 189.521 140.868 189.499 140.814 189.445C140.748 189.38 140.727 189.314 140.727 189.238C140.727 189.162 140.748 189.097 140.814 189.043C140.868 188.988 140.933 188.956 141.009 188.956ZM141.15 183.76V187.923H140.857V183.76H141.15Z" fill="#373535"/>
<path id="Vector_8" d="M141.006 188.716C141.071 188.716 141.147 188.738 141.202 188.76C141.267 188.782 141.321 188.825 141.376 188.869C141.419 188.923 141.463 188.977 141.484 189.043C141.517 189.108 141.528 189.173 141.528 189.238C141.528 189.314 141.517 189.379 141.484 189.445C141.463 189.499 141.419 189.564 141.376 189.608C141.321 189.662 141.267 189.695 141.202 189.716C141.137 189.749 141.071 189.76 141.006 189.76C140.941 189.76 140.876 189.749 140.81 189.727C140.745 189.695 140.691 189.662 140.637 189.608C140.593 189.564 140.55 189.499 140.528 189.445C140.495 189.379 140.484 189.314 140.484 189.238C140.484 189.173 140.495 189.108 140.528 189.043C140.55 188.977 140.593 188.923 140.637 188.869C140.691 188.825 140.745 188.782 140.81 188.76C140.876 188.738 140.941 188.716 141.006 188.716ZM141.017 189.195H141.006H140.984L140.974 189.216L140.963 189.227V189.26L140.974 189.271L140.984 189.282H141.006H141.028L141.039 189.271L141.05 189.26V189.238V189.227L141.039 189.216L141.017 189.195ZM141.387 183.76V188.162H140.615V183.521H141.387V183.76Z" fill="#373535"/>
<path id="Vector_9" d="M52.7852 180.129H141.213V180.803H52.7852V180.129Z" fill="#373535"/>
<path id="Vector_10" fill-rule="evenodd" clip-rule="evenodd" d="M162.453 158.715V157.15H168.29V158.835H166.355V176.042H164.388V158.835H162.453V158.715ZM151.452 158.835H149.659V157.128H155.235V158.835H153.442V174.335H155.213V176.042H149.626V174.335H151.452V158.835ZM136.571 175.922V157.15H139.354C139.854 157.15 140.365 157.237 140.876 157.4C141.137 157.487 141.376 157.606 141.582 157.769C141.789 157.932 141.974 158.128 142.126 158.367L142.137 158.378C142.311 158.693 142.408 159.052 142.408 159.465V165.313C142.408 165.596 142.332 165.878 142.18 166.161V166.172C142.093 166.313 141.995 166.444 141.898 166.563C141.832 166.639 141.767 166.715 141.702 166.781C141.8 166.868 141.887 166.954 141.963 167.041C142.071 167.161 142.158 167.281 142.224 167.411C142.278 167.531 142.332 167.672 142.365 167.835C142.387 167.987 142.408 168.161 142.408 168.346V173.737C142.408 173.933 142.387 174.129 142.343 174.314C142.289 174.487 142.224 174.661 142.137 174.824H142.126C141.974 175.064 141.789 175.259 141.582 175.422C141.376 175.585 141.137 175.705 140.876 175.792C140.365 175.966 139.854 176.042 139.354 176.042H136.571V175.922ZM138.539 158.671V166.031H139.354C139.474 166.031 139.604 166.02 139.724 165.987C139.854 165.954 139.974 165.9 140.093 165.824C140.311 165.704 140.419 165.498 140.419 165.226V159.465C140.419 159.313 140.397 159.182 140.343 159.085C140.289 158.987 140.213 158.911 140.115 158.856C140.006 158.791 139.887 158.748 139.756 158.715C139.637 158.682 139.495 158.671 139.354 158.671H138.539ZM139.397 167.715H138.539V174.498H139.354C139.484 174.498 139.626 174.487 139.745 174.455C139.876 174.433 139.995 174.379 140.115 174.324C140.213 174.281 140.289 174.205 140.343 174.107C140.387 174.009 140.419 173.89 140.419 173.737V168.509C140.419 168.368 140.397 168.248 140.343 168.139C140.289 168.052 140.213 167.976 140.115 167.911C140.006 167.846 139.887 167.802 139.767 167.77C139.647 167.737 139.528 167.715 139.397 167.715ZM123.505 175.922V157.15H126.288C126.799 157.15 127.31 157.237 127.821 157.4C128.082 157.487 128.321 157.606 128.527 157.769C128.734 157.932 128.919 158.128 129.071 158.367V158.378C129.256 158.693 129.343 159.052 129.343 159.465V165.313C129.343 165.596 129.277 165.878 129.125 166.161L129.114 166.172C129.027 166.313 128.94 166.444 128.843 166.563C128.777 166.639 128.712 166.715 128.636 166.781C128.745 166.868 128.832 166.954 128.908 167.041C129.016 167.161 129.093 167.281 129.158 167.411C129.223 167.531 129.266 167.672 129.299 167.835C129.332 167.987 129.343 168.161 129.343 168.346V173.737C129.343 173.933 129.321 174.129 129.277 174.314C129.234 174.487 129.169 174.661 129.071 174.824C128.919 175.064 128.734 175.259 128.527 175.422C128.321 175.585 128.082 175.705 127.821 175.792C127.31 175.966 126.799 176.042 126.288 176.042H123.505V175.922ZM125.473 158.671V166.031H126.288C126.419 166.031 126.549 166.02 126.669 165.987C126.788 165.954 126.919 165.9 127.038 165.824C127.256 165.704 127.353 165.498 127.353 165.226V159.465C127.353 159.313 127.332 159.182 127.277 159.085C127.234 158.987 127.158 158.911 127.06 158.856C126.951 158.791 126.832 158.748 126.701 158.715C126.571 158.682 126.44 158.671 126.288 158.671H125.473ZM126.332 167.715H125.473V174.498H126.288C126.429 174.498 126.56 174.487 126.69 174.455C126.81 174.433 126.94 174.379 127.049 174.324C127.158 174.281 127.234 174.205 127.277 174.107C127.332 174.009 127.353 173.89 127.353 173.737V168.509C127.353 168.368 127.332 168.248 127.277 168.139C127.234 168.052 127.158 167.976 127.06 167.911C126.951 167.846 126.832 167.802 126.712 167.77C126.592 167.737 126.462 167.715 126.332 167.715ZM110.363 175.911L112.374 157.128H114.266C114.94 163.433 115.625 169.737 116.298 176.042H114.309L113.896 172.129H112.733L112.331 176.042H110.342L110.363 175.911ZM113.755 170.422L113.32 165.563L112.918 170.422H113.755ZM101.146 165.226V159.465C101.146 159.313 101.124 159.182 101.069 159.085C101.015 158.987 100.95 158.911 100.841 158.856C100.732 158.791 100.613 158.748 100.493 158.715C100.363 158.682 100.222 158.671 100.08 158.671H99.265V166.031H100.08C100.211 166.031 100.33 166.02 100.45 165.976C100.58 165.944 100.7 165.889 100.819 165.824C100.928 165.748 101.015 165.672 101.069 165.574C101.113 165.476 101.146 165.357 101.146 165.226ZM97.2975 175.922V157.15H100.08C100.265 157.15 100.45 157.161 100.635 157.171C100.83 157.193 101.004 157.226 101.189 157.258C101.363 157.291 101.537 157.345 101.7 157.411C101.863 157.465 102.015 157.541 102.156 157.639C102.298 157.726 102.428 157.834 102.548 157.954C102.667 158.063 102.765 158.204 102.863 158.345C103.048 158.65 103.135 159.019 103.135 159.465V165.226C103.135 165.835 102.896 166.357 102.428 166.781C102.515 166.857 102.591 166.944 102.667 167.02C102.765 167.128 102.852 167.248 102.928 167.378L102.939 167.389C103.004 167.541 103.048 167.694 103.08 167.846C103.113 168.009 103.135 168.172 103.135 168.346V176.042H101.146V168.509C101.146 168.378 101.124 168.259 101.069 168.161C101.015 168.063 100.939 167.987 100.83 167.922C100.711 167.857 100.602 167.802 100.482 167.77C100.363 167.737 100.243 167.715 100.124 167.715H99.265V176.042H97.2975V175.922ZM81.0141 159.085C80.9598 158.987 80.8837 158.911 80.7858 158.856C80.6771 158.791 80.5576 158.748 80.4271 158.715C80.3075 158.682 80.1662 158.671 80.0249 158.671H79.2097V166.031H80.0249C80.1445 166.031 80.2749 166.02 80.3945 165.976C80.525 165.944 80.6445 165.889 80.7641 165.824C80.8728 165.748 80.9598 165.672 81.0032 165.574C81.0576 165.476 81.0902 165.357 81.0902 165.226V159.465C81.0902 159.313 81.0685 159.182 81.0141 159.085ZM77.2422 175.922V157.15H80.0249C80.2097 157.15 80.3945 157.161 80.5793 157.171C80.7641 157.193 80.9489 157.226 81.1228 157.258C81.3076 157.291 81.4815 157.345 81.6446 157.411C81.8076 157.465 81.9598 157.541 82.1011 157.639C82.2424 157.726 82.3729 157.834 82.4924 157.954C82.612 158.063 82.7098 158.204 82.8077 158.345C82.9816 158.65 83.0794 159.019 83.0794 159.465V165.226C83.0794 165.835 82.8403 166.357 82.3729 166.781C82.4598 166.857 82.5359 166.944 82.612 167.02C82.7098 167.128 82.7968 167.248 82.8729 167.378L82.8838 167.389C82.949 167.541 82.9925 167.694 83.0251 167.846C83.0577 168.009 83.0794 168.172 83.0794 168.346V176.042H81.0902V168.509C81.0902 168.378 81.0685 168.259 81.0141 168.161C80.9598 168.063 80.8837 167.987 80.775 167.922C80.6554 167.857 80.5467 167.802 80.4271 167.77C80.3075 167.737 80.188 167.715 80.0684 167.715H79.2097V176.042H77.2422V175.922ZM64.9698 175.922V157.128H70.0136V158.835H66.9373V166.031H70.0136V167.715H66.9373V174.357H70.0136V176.042H64.9698V175.922ZM51.9148 175.922V157.15H54.6976C54.8824 157.15 55.0672 157.161 55.252 157.171C55.4476 157.193 55.6216 157.226 55.7955 157.258C55.9803 157.291 56.1542 157.345 56.3172 157.411C56.4803 157.465 56.6325 157.541 56.7738 157.639C56.9151 157.726 57.0455 157.834 57.1651 157.954C57.2847 158.063 57.3825 158.204 57.4803 158.345C57.6543 158.65 57.7521 159.019 57.7521 159.465V165.411C57.7521 165.607 57.7303 165.802 57.6869 165.987C57.6434 166.172 57.5673 166.335 57.4803 166.498C57.3173 166.737 57.1434 166.933 56.926 167.096C56.7194 167.259 56.4803 167.378 56.2194 167.465C55.7085 167.639 55.1976 167.715 54.6976 167.715H53.8823V176.042H51.9148V175.922ZM53.8823 158.671V166.031H54.6976C54.828 166.031 54.9476 166.02 55.0672 165.976C55.1976 165.944 55.3172 165.889 55.4368 165.824C55.6542 165.683 55.7629 165.487 55.7629 165.226V159.465C55.7629 159.313 55.7411 159.182 55.6868 159.085C55.6324 158.987 55.5672 158.911 55.4585 158.856C55.3498 158.791 55.2302 158.748 55.1107 158.715C54.9802 158.682 54.8389 158.671 54.6976 158.671H53.8823ZM38.762 175.911L40.7839 157.128H42.6753C43.3492 163.433 44.0232 169.737 44.708 176.042H42.7187L42.2948 172.129H41.1317L40.7404 176.042H38.7512L38.762 175.911ZM41.7296 165.563L41.3165 170.422H42.1535L41.7296 165.563ZM27.6636 158.671V166.031H28.4789C28.6093 166.031 28.7398 166.02 28.8594 165.976C28.9789 165.944 29.1094 165.889 29.2181 165.824C29.3376 165.748 29.4137 165.672 29.4681 165.574C29.5224 165.476 29.555 165.357 29.555 165.226V159.465C29.555 159.313 29.5224 159.182 29.4681 159.085C29.4246 158.987 29.3485 158.911 29.2507 158.856C29.142 158.791 29.0224 158.748 28.892 158.715C28.7615 158.682 28.6311 158.671 28.4789 158.671H27.6636ZM25.707 175.922V157.15H28.4789C28.6637 157.15 28.8594 157.161 29.0442 157.171C29.2289 157.193 29.4137 157.226 29.5877 157.258C29.7724 157.291 29.9355 157.345 30.0986 157.411C30.2616 157.465 30.4138 157.541 30.566 157.639C30.7073 157.726 30.8377 157.834 30.9573 157.954C31.066 158.063 31.1747 158.204 31.2617 158.345C31.4464 158.65 31.5334 159.019 31.5334 159.465V165.411C31.5334 165.607 31.5117 165.802 31.4682 165.987C31.4247 166.172 31.3595 166.335 31.2617 166.498C31.1095 166.737 30.9247 166.933 30.7181 167.096C30.5116 167.259 30.2725 167.378 30.0116 167.465C29.5007 167.639 28.9898 167.715 28.4789 167.715H27.6636V176.042H25.707V175.922Z" fill="#373535"/>
<g id="Group">
<path id="Vector_11" fill-rule="evenodd" clip-rule="evenodd" d="M86.7419 119.148L106.83 119.061L106.754 120.626L86.6875 120.713L86.7419 119.148Z" fill="#373535"/>
<path id="Vector_12" fill-rule="evenodd" clip-rule="evenodd" d="M122.068 86.1117L129.438 106.384L128.069 107.2L120.242 85.666L122.068 86.1117Z" fill="#373535"/>
<path id="Vector_13" fill-rule="evenodd" clip-rule="evenodd" d="M96.8164 81.6138V79.9941L122.068 86.114L122.72 87.8858L96.8164 81.6138Z" fill="#373535"/>
<path id="Vector_14" fill-rule="evenodd" clip-rule="evenodd" d="M106.578 118.342L128.905 104.929L129.862 106.135L107.98 119.103L106.578 118.342Z" fill="#373535"/>
<path id="Vector_15" fill-rule="evenodd" clip-rule="evenodd" d="M105.219 121.626L120.372 85.7002L122.057 86.1241L106.958 121.528L105.219 121.626Z" fill="#373535"/>
<path id="Vector_16" fill-rule="evenodd" clip-rule="evenodd" d="M128.901 104.93L138.956 117.604L138.173 119.148L127.531 105.756L128.901 104.93Z" fill="#373535"/>
<path id="Vector_17" fill-rule="evenodd" clip-rule="evenodd" d="M127.688 136.419L137.862 116.233L138.96 117.603L129.785 135.767L127.688 136.419Z" fill="#373535"/>
<path id="Vector_18" fill-rule="evenodd" clip-rule="evenodd" d="M108.48 140.865L130.732 133.887L129.786 135.767L108.72 142.333L108.48 140.865Z" fill="#373535"/>
<path id="Vector_19" fill-rule="evenodd" clip-rule="evenodd" d="M106.578 119.103L110.252 141.854L108.719 142.343L105.121 120.44L106.578 119.103Z" fill="#373535"/>
<path id="Vector_20" fill-rule="evenodd" clip-rule="evenodd" d="M96.1719 128.572L106.075 119.571L107.346 120.593L96.1719 130.528V128.572Z" fill="#373535"/>
<path id="Vector_21" fill-rule="evenodd" clip-rule="evenodd" d="M116.981 86.4925L115.48 86.1338L128.264 39.7402L128.905 43.2839L116.981 86.4925Z" fill="#373535"/>
<path id="Vector_22" fill-rule="evenodd" clip-rule="evenodd" d="M127.882 46.9801L122.219 13.8154L124.328 16.6525L128.871 43.306L127.882 46.9801Z" fill="#373535"/>
<path id="Vector_23" fill-rule="evenodd" clip-rule="evenodd" d="M102.602 49.5132L118.646 10.6091L117.102 10.2178L102.982 44.4912L102.602 49.5132Z" fill="#373535"/>
<path id="Vector_24" fill-rule="evenodd" clip-rule="evenodd" d="M100.348 82.4828L102.978 44.3614L104.88 39.709L101.891 82.8416L100.348 82.4828Z" fill="#373535"/>
<path id="Vector_25" fill-rule="evenodd" clip-rule="evenodd" d="M120.046 10.9458L117.068 10.2393L116.383 11.9676L119.589 12.7503L120.046 10.9458Z" fill="#373535"/>
<path id="Vector_26" fill-rule="evenodd" clip-rule="evenodd" d="M96.9688 144.083L106.611 141.365L108.73 142.344L96.9688 145.702V144.083Z" fill="#373535"/>
<path id="Vector_27" fill-rule="evenodd" clip-rule="evenodd" d="M101.273 139.551L108.48 140.866L108.719 142.334L101.937 141.127L101.273 139.551Z" fill="#373535"/>
<path id="Vector_28" fill-rule="evenodd" clip-rule="evenodd" d="M96.1719 135.562L103.39 140.192L101.933 141.127L96.1719 137.42V135.562Z" fill="#373535"/>
<path id="Vector_29" fill-rule="evenodd" clip-rule="evenodd" d="M114.231 100.299L118.264 106.538L117.808 108.647L113.492 102.038L114.231 100.299Z" fill="#373535"/>
<path id="Vector_30" fill-rule="evenodd" clip-rule="evenodd" d="M118.262 106.538L116.675 113.94L114.914 115.006L117.099 104.733L118.262 106.538Z" fill="#373535"/>
<path id="Vector_31" fill-rule="evenodd" clip-rule="evenodd" d="M109.241 62.6113L118.024 86.743L116.155 86.2973L109.078 66.7637L109.241 62.6113Z" fill="#373535"/>
<path id="Vector_32" fill-rule="evenodd" clip-rule="evenodd" d="M111.469 44.6006L110.49 70.6236L109.066 66.7212L109.871 45.0463L111.469 44.6006Z" fill="#373535"/>
<path id="Vector_33" fill-rule="evenodd" clip-rule="evenodd" d="M109.609 52.4042L120.045 10.9456L118.555 10.5869L109.859 45.1212L109.609 52.4042Z" fill="#373535"/>
<path id="Vector_34" fill-rule="evenodd" clip-rule="evenodd" d="M124.338 16.6304L120.044 10.9453L119.555 12.7389L124.903 19.8805L124.338 16.6304Z" fill="#373535"/>
<path id="Vector_35" fill-rule="evenodd" clip-rule="evenodd" d="M96.1758 127.821H97.8172V138.007H96.1758V127.821Z" fill="#373535"/>
<path id="Vector_36" fill-rule="evenodd" clip-rule="evenodd" d="M71.9129 86.1127L64.543 106.385L65.9126 107.19L73.7499 85.667L71.9129 86.1127Z" fill="#373535"/>
<path id="Vector_37" fill-rule="evenodd" clip-rule="evenodd" d="M97.1769 81.6138L97.166 79.9941L71.9148 86.114L71.2734 87.8858L97.1769 81.6138Z" fill="#373535"/>
<path id="Vector_38" fill-rule="evenodd" clip-rule="evenodd" d="M87.4135 118.343L65.0972 104.918L64.1406 106.135L86.0113 119.103L87.4135 118.343Z" fill="#373535"/>
<path id="Vector_39" fill-rule="evenodd" clip-rule="evenodd" d="M88.7705 121.626L73.6067 85.7002L71.9219 86.1241L87.0748 121.626H88.7705Z" fill="#373535"/>
<path id="Vector_40" fill-rule="evenodd" clip-rule="evenodd" d="M65.097 104.918L55.0312 117.603L55.803 119.147L66.4557 105.733L65.097 104.918Z" fill="#373535"/>
<path id="Vector_41" fill-rule="evenodd" clip-rule="evenodd" d="M66.3035 136.419L56.1183 116.233L55.0312 117.603L64.2056 135.767L66.3035 136.419Z" fill="#373535"/>
<path id="Vector_42" fill-rule="evenodd" clip-rule="evenodd" d="M85.498 140.876L63.2578 133.887L64.2035 135.767L85.2806 142.355L85.498 140.876Z" fill="#373535"/>
<path id="Vector_43" fill-rule="evenodd" clip-rule="evenodd" d="M87.4115 119.104L83.7266 141.876L85.2484 142.344L88.8681 120.43L87.4115 119.104Z" fill="#373535"/>
<path id="Vector_44" fill-rule="evenodd" clip-rule="evenodd" d="M97.8151 128.572L87.9124 119.571L86.6406 120.593L97.8151 130.528V128.572Z" fill="#373535"/>
<path id="Vector_45" fill-rule="evenodd" clip-rule="evenodd" d="M77.0104 86.4925L78.5105 86.1338L65.7164 39.7402L65.0859 43.2839L77.0104 86.4925Z" fill="#373535"/>
<path id="Vector_46" fill-rule="evenodd" clip-rule="evenodd" d="M66.1094 46.9801L71.7727 13.8154L69.664 16.6525L65.1094 43.306L66.1094 46.9801Z" fill="#373535"/>
<path id="Vector_47" fill-rule="evenodd" clip-rule="evenodd" d="M91.3919 49.5132L75.3477 10.6091L76.8912 10.2178L91.0115 44.4912L91.3919 49.5132Z" fill="#373535"/>
<path id="Vector_48" fill-rule="evenodd" clip-rule="evenodd" d="M93.6422 82.4828L91.0008 44.3614L89.1094 39.709L92.0987 82.8416L93.6422 82.4828Z" fill="#373535"/>
<path id="Vector_49" fill-rule="evenodd" clip-rule="evenodd" d="M73.9453 10.9458L76.9237 10.2393L77.6085 11.9676L74.4019 12.7503L73.9453 10.9458Z" fill="#373535"/>
<path id="Vector_50" fill-rule="evenodd" clip-rule="evenodd" d="M97.0254 144.083L87.3727 141.365L85.2422 142.344L97.0254 145.702V144.083Z" fill="#373535"/>
<path id="Vector_51" fill-rule="evenodd" clip-rule="evenodd" d="M92.7208 139.551L85.5031 140.877L85.2422 142.344L92.0577 141.127L92.7208 139.551Z" fill="#373535"/>
<path id="Vector_52" fill-rule="evenodd" clip-rule="evenodd" d="M97.8154 135.561L90.5977 140.191L92.0543 141.126L97.8154 137.419V135.561Z" fill="#373535"/>
<path id="Vector_53" fill-rule="evenodd" clip-rule="evenodd" d="M79.7624 100.298L75.7188 106.646L76.1427 108.646L80.5016 102.037L79.7624 100.298Z" fill="#373535"/>
<path id="Vector_54" fill-rule="evenodd" clip-rule="evenodd" d="M75.7188 106.646L77.3166 113.94L79.0776 115.005L76.9036 104.787L75.7188 106.646Z" fill="#373535"/>
<path id="Vector_55" fill-rule="evenodd" clip-rule="evenodd" d="M84.7518 62.6113L75.9688 86.743L77.8384 86.2973L84.904 66.7637L84.7518 62.6113Z" fill="#373535"/>
<path id="Vector_56" fill-rule="evenodd" clip-rule="evenodd" d="M82.5234 44.6006L83.5017 70.6236L84.9257 66.7212L84.1105 45.0463L82.5234 44.6006Z" fill="#373535"/>
<path id="Vector_57" fill-rule="evenodd" clip-rule="evenodd" d="M84.3806 52.4042L73.9453 10.9456L75.4345 10.5869L84.1306 45.1212L84.3806 52.4042Z" fill="#373535"/>
<path id="Vector_58" fill-rule="evenodd" clip-rule="evenodd" d="M69.6512 16.6304L73.9449 10.9453L74.434 12.7389L69.0859 19.8805L69.6512 16.6304Z" fill="#373535"/>
</g>
<g id="Group_2">
<g id="Group_3">
<path id="Vector_59" fill-rule="evenodd" clip-rule="evenodd" d="M70.3594 51.632L76.3814 64.4913L77.5336 63.0565L72.1203 51.5342L70.3594 51.632Z" fill="#373535"/>
<path id="Vector_60" fill-rule="evenodd" clip-rule="evenodd" d="M76.3828 64.4915L83.2962 71.2092L83.9593 69.383L76.8502 62.3936L76.3828 64.4915Z" fill="#373535"/>
</g>
<path id="Vector_61" fill-rule="evenodd" clip-rule="evenodd" d="M66.7734 49.3936L72.1215 51.535L71.0889 53.1981L67.4583 51.8611L66.7734 49.3936Z" fill="#373535"/>
</g>
<g id="Group_4">
<g id="Group_5">
<path id="Vector_62" fill-rule="evenodd" clip-rule="evenodd" d="M123.686 51.631L117.664 64.4904L116.512 63.0555L121.925 51.5332L123.686 51.631Z" fill="#373535"/>
<path id="Vector_63" fill-rule="evenodd" clip-rule="evenodd" d="M117.666 64.4905L110.742 71.2082L110.09 69.3821L117.199 62.3926L117.666 64.4905Z" fill="#373535"/>
</g>
<path id="Vector_64" fill-rule="evenodd" clip-rule="evenodd" d="M127.267 49.3926L121.93 51.534L122.951 53.1971L126.593 51.8601L127.267 49.3926Z" fill="#373535"/>
</g>
</g>
<path id="Vector_65" d="M172.249 153.096C171.662 153.096 171.162 153.313 170.749 153.726C170.325 154.15 170.118 154.65 170.118 155.237C170.118 155.835 170.325 156.335 170.738 156.759C171.151 157.172 171.662 157.389 172.249 157.389C172.847 157.389 173.347 157.172 173.76 156.759C174.173 156.335 174.379 155.835 174.379 155.237C174.379 154.65 174.173 154.15 173.76 153.726C173.347 153.313 172.836 153.096 172.249 153.096ZM174.727 155.237C174.727 155.922 174.488 156.509 173.999 156.998C173.521 157.487 172.934 157.726 172.249 157.726C171.564 157.726 170.977 157.487 170.499 156.998C170.02 156.509 169.781 155.922 169.781 155.237C169.781 154.552 170.02 153.976 170.499 153.487C170.988 153.009 171.564 152.77 172.249 152.77C172.934 152.77 173.521 153.009 173.999 153.487C174.488 153.965 174.727 154.552 174.727 155.237ZM172.901 154.694C172.901 154.498 172.836 154.367 172.716 154.302C172.597 154.237 172.401 154.194 172.14 154.194H171.727V155.183H172.162C172.368 155.183 172.521 155.161 172.618 155.117C172.803 155.052 172.901 154.911 172.901 154.694ZM172.205 153.867C172.542 153.867 172.792 153.9 172.944 153.965C173.227 154.085 173.368 154.313 173.368 154.661C173.368 154.9 173.281 155.074 173.097 155.194C173.01 155.259 172.879 155.302 172.705 155.324C172.923 155.357 173.075 155.444 173.173 155.596C173.271 155.737 173.325 155.878 173.325 156.02V156.215C173.325 156.281 173.325 156.346 173.325 156.411C173.336 156.487 173.347 156.531 173.358 156.552L173.368 156.596H172.923C172.923 156.585 172.912 156.574 172.912 156.563C172.912 156.552 172.912 156.541 172.912 156.531L172.901 156.444V156.226C172.901 155.911 172.814 155.704 172.64 155.607C172.542 155.541 172.357 155.52 172.107 155.52H171.727V156.596H171.249V153.867H172.205Z" fill="#373535"/>
</g>
</g>
<defs>
<clipPath id="clip0_1281_34876">
<rect width="220" height="220" fill="white" transform="translate(-13 -10)"/>
</clipPath>
</defs>
</svg>
